<?xml version="1.0" standalone="no"?>
<!DOCTYPE svg PUBLIC "-//W3C//DTD SVG 1.1//EN" "http://www.w3.org/Graphics/SVG/1.1/DTD/svg11.dtd" >
<svg xmlns="http://www.w3.org/2000/svg" xmlns:xlink="http://www.w3.org/1999/xlink" version="1.1">
<metadata>
Created by FontForge 20161003 at Tue Jan 17 08:11:05 2017
 By www-data
Copyright (c) 1992 Adobe Systems Incorporated.  All Rights Reserved.Catull is a registered trademark of H. Berthold AG.
</metadata>
<defs>
<font id="catull" horiz-adv-x="271" >
  <font-face 
    font-family="catull"
    font-weight="400"
    font-stretch="normal"
    units-per-em="1000"
    panose-1="2 0 5 5 8 0 0 2 0 3"
    ascent="800"
    descent="-200"
    x-height="453"
    cap-height="706"
    bbox="-191 -309 1119 887"
    underline-thickness="50"
    underline-position="-150"
    unicode-range="U+0020-FB02"
  />
<missing-glyph 
 />
    <glyph glyph-name=".notdef" 
 />
    <glyph glyph-name=".null" horiz-adv-x="0" 
 />
    <glyph glyph-name="nonmarkingreturn" 
 />
    <glyph glyph-name="space" unicode=" " 
 />
    <glyph glyph-name="space" unicode="&#xa0;" 
 />
    <glyph glyph-name="exclam" unicode="!" horiz-adv-x="292" 
d="M212 385q-1 -25 -2 -43t-1.5 -33t-1 -29.5t-0.5 -31.5l-36 -9l-56 -16v74t1 60.5t1.5 61t2.5 75.5q0 12 1 30.5t2 40.5t2 46t3 47l101 54q0 -18 -0.5 -33t-1.5 -32t-2.5 -39.5t-3.5 -53.5zM221 56q-10 -11 -17.5 -18.5t-15.5 -15t-18 -15.5t-24 -19q-10 10 -16.5 17
t-13 14.5t-14 16.5t-17.5 23l56 49l19 18l19 -25z" />
    <glyph glyph-name="quotedbl" unicode="&#x22;" horiz-adv-x="396" 
d="M301 445h-20l-32 242q0 5 -0.5 8.5t-0.5 7.5q0 26 16 36t30 10q9 0 17 -3q19 -8 22 -20.5t3 -25.5zM113 445h-20l-32 242q0 5 -0.5 8.5t-0.5 7.5q0 26 16 36t30 10q9 0 17 -3q19 -8 22 -20.5t3 -25.5z" />
    <glyph glyph-name="numbersign" unicode="#" horiz-adv-x="583" 
d="M563 258h-175l-34 -258h-61l36 258h-101l-38 -258h-57l35 258h-167v55h174l14 97h-167v57h175l32 239h60l-33 -239h100l32 239h60l-32 -239h167v-57h-175l-13 -97h168v-55zM336 313l13 97h-101l-13 -97h101z" />
    <glyph glyph-name="dollar" unicode="$" horiz-adv-x="542" 
d="M297 -35l-31 -72l-4 92q-49 -1 -111.5 11t-127.5 44l67 77l28 7q-13 -24 -15.5 -30.5t-2.5 -10.5t9.5 -14.5t29.5 -21.5t50.5 -19.5t72.5 -8.5q-1 75 0.5 151t3.5 152q-25 10 -56 26t-58.5 39.5t-46 56.5t-18.5 77q0 27 10 59.5t32.5 62.5t59.5 52t91 28l1 23l35 49
l-2 -71q49 -2 92 -13q33 -9 52.5 -19t36.5 -20l-68 -74l-26 -5q6 12 10 18.5t6 10.5t2.5 6.5t0.5 4.5q0 4 -7 13.5t-20.5 19.5t-33.5 17.5t-46 7.5q-3 -41 -3 -80l-4 -93q0 -10 -0.5 -23.5l-1 -27t-1 -26.5t-0.5 -22l59 -31q28 -15 52.5 -31t47.5 -45q19 -23 30 -50.5
t11 -62.5q0 -37 -14.5 -73.5t-45.5 -68.5q-20 -20 -40.5 -32t-40 -19.5t-36.5 -11t-29 -5.5v-24zM269 436q1 24 2 57.5t2.5 68.5t3 68.5t2.5 58.5q-33 -5 -55 -19t-34.5 -31.5t-18 -36t-5.5 -33.5q0 -18 5.5 -35t14.5 -32q19 -29 41.5 -43t41.5 -23zM297 134
q0 -26 -0.5 -56.5t0.5 -56.5q5 2 10.5 3t11.5 3q27 9 45.5 23t30.5 31t17.5 35.5t5.5 36.5q0 26 -13.5 57t-46.5 57q-4 3 -7 5t-8.5 6t-15.5 10.5t-27 17.5q-1 -10 -1.5 -17t-0.5 -14.5v-17v-24.5z" />
    <glyph glyph-name="percent" unicode="%" horiz-adv-x="792" 
d="M311 514q0 -83 -23 -141q-9 -23 -21.5 -43.5t-29 -36.5t-36.5 -25.5t-44 -9.5q-35 0 -60 17t-42 45.5t-25 65.5t-8 78q0 54 12.5 100t34 79.5t51 52t64.5 18.5q55 0 91 -49t36 -151zM256 442q0 15 -1.5 33t-3.5 36t-5 35.5t-7 30.5q-4 16 -11 34t-17.5 32t-24 23.5
t-29.5 9.5q-25 0 -41.5 -15.5t-24.5 -38.5q-7 -20 -10 -44.5t-3 -47.5q0 -41 6.5 -82.5t19 -75t31.5 -54.5t45 -21q10 0 23 5.5t25 21t20 44t8 74.5zM769 250q0 -84 -23 -142q-9 -23 -21.5 -43.5t-29 -36.5t-36.5 -25.5t-44 -9.5q-35 0 -60 17t-41.5 45.5t-24.5 66t-8 78.5
q0 54 12.5 100t34 79t51 51.5t64.5 18.5q54 0 90 -48.5t36 -150.5zM714 177q0 15 -1 33t-3.5 36t-5.5 35.5t-6 30.5q-5 16 -12 34t-17 32t-23.5 23.5t-29.5 9.5q-25 0 -41.5 -15.5t-24.5 -38.5q-7 -20 -10 -44.5t-3 -47.5q0 -41 6.5 -82.5t19 -75t31.5 -54.5t44 -21
q10 0 23 5.5t25 21t20 44t8 74.5zM668 718q-15 -19 -29 -37.5t-29 -39t-31.5 -45t-36.5 -54.5q-28 -42 -55.5 -82.5t-54.5 -82.5q-30 -47 -59.5 -93t-59.5 -93q-29 -45 -46.5 -72.5t-29.5 -47t-22 -35t-23 -36.5l-50 -11q5 6 8.5 12t7.5 12q29 45 56.5 90.5t56.5 90.5
q34 55 77.5 123t90 138t91.5 136t82 118z" />
    <glyph glyph-name="ampersand" unicode="&#x26;" horiz-adv-x="771" 
d="M660 334q1 -11 2 -20t1 -19t-2 -27t-8.5 -39.5t-19 -49.5t-34.5 -57q7 -8 18.5 -18.5t31 -26.5t48.5 -36.5t71 -47.5q-11 -5 -21.5 -8t-28.5 -3q-52 0 -99.5 21t-89.5 53q-54 -34 -113.5 -54t-122.5 -20q-53 0 -100.5 15.5t-83.5 44t-57 68.5t-21 88q0 54 23 90t56 59.5
t70 37t65 21.5q-9 19 -21.5 51t-12.5 74q0 46 18.5 80.5t47 57t64 34t69.5 11.5q31 0 58.5 -9t48 -26t32 -40.5t11.5 -52.5t-12.5 -58.5t-41.5 -55.5q-33 -29 -72.5 -43.5t-70.5 -22.5q14 -21 38 -57.5t65 -87.5q25 -31 52 -59.5t56 -56.5q21 26 33 53.5t12 60.5
q0 26 -7.5 41.5t-18.5 24.5t-22.5 13t-20.5 6l39 24h209l-90 -34h-48zM348 435q7 2 13.5 5t13.5 6q44 20 69 56.5t25 79.5q0 45 -25 71.5t-63 26.5t-59.5 -26.5t-21.5 -71.5q0 -23 5 -44.5t12.5 -40.5t16 -35t14.5 -27zM495 83q-46 44 -80.5 82t-62 73.5t-50 69.5t-44.5 69
q-23 -7 -45.5 -18t-40.5 -28t-29 -41.5t-11 -58.5q0 -33 14.5 -66t42 -60t68 -43.5t93.5 -16.5t87 13t58 25z" />
    <glyph glyph-name="quotesingle" unicode="'" horiz-adv-x="208" 
d="M113 445h-20l-32 242q0 5 -0.5 8.5t-0.5 7.5q0 26 16 36t30 10q9 0 17 -3q19 -8 22 -20.5t3 -25.5z" />
    <glyph glyph-name="parenleft" unicode="(" horiz-adv-x="313" 
d="M305 -16q-18 8 -38 20q-30 17 -64.5 47.5t-64.5 74t-50 100.5t-20 127q0 26 4 54.5t13 59.5q15 54 42 97t69 82q35 34 60.5 48.5t48.5 25.5q-10 -11 -24 -28t-30 -41t-32 -55.5t-29 -71.5q-17 -50 -22.5 -93t-5.5 -78q0 -62 12.5 -116t31.5 -97.5t39.5 -76.5t37.5 -53
q5 -7 10.5 -13.5t11.5 -12.5z" />
    <glyph glyph-name="parenright" unicode=")" horiz-adv-x="313" 
d="M8 720q18 -8 38 -20q29 -17 64 -47.5t65 -74t50 -100.5t20 -127q0 -23 -3.5 -52t-13.5 -62q-15 -54 -42 -97t-69 -83q-35 -33 -60.5 -47.5t-48.5 -25.5q17 19 35 42t41 64q67 122 67 261q0 62 -12.5 116t-31.5 97.5t-40 76.5t-37 53q-5 7 -10.5 13t-11.5 13z" />
    <glyph glyph-name="asterisk" unicode="*" horiz-adv-x="437" 
d="M319 330l-72 104q-6 9 -9.5 14t-6.5 9.5l-6 9t-7 12.5q-4 -6 -14.5 -21t-22.5 -32.5t-23 -33t-15 -21.5l-65 -17q5 7 9 13t8.5 12l10.5 14t14 19l30 42q10 14 16.5 23t15.5 23q-13 4 -25.5 8t-26.5 9q-15 4 -24.5 7t-16 5.5t-12.5 4t-14 4.5l-40 58l58 -21l66 -20
q16 -5 22.5 -7t21.5 -6v121l41 59v-182l13.5 4.5l24 8t29 9t29 9t22 7t9.5 2.5l65 -22l-131 -39q-17 -6 -24 -8t-19 -6q17 -26 35 -52t37 -52z" />
    <glyph glyph-name="plus" unicode="+" horiz-adv-x="500" 
d="M469 262h-189v-190h-60v190h-190v60h190v187h60v-187h189v-60z" />
    <glyph glyph-name="comma" unicode="," horiz-adv-x="250" 
d="M169 80q6 -6 10.5 -12.5t4.5 -17.5q0 -8 -2.5 -16t-5.5 -15q-10 -23 -29.5 -51.5t-38.5 -54t-33.5 -43l-14.5 -17.5l-51 -28l27 39q8 14 17 27.5t18 27.5q11 16 21.5 34t10.5 34q0 9 -3 15t-7 11q-8 10 -19 23t-19 23q13 11 22 18.5t16.5 14.5t16 14.5t20.5 18.5z" />
    <glyph glyph-name="hyphen" unicode="-" horiz-adv-x="396" 
d="M296 240h-271l75 42h271z" />
    <glyph glyph-name="period" unicode="." horiz-adv-x="250" 
d="M192 57q-10 -11 -17.5 -19t-15.5 -15.5t-18 -15.5t-23 -19q-10 9 -16 15.5t-12 13.5t-14 16t-20 24l44 39l30 30l22 -28z" />
    <glyph glyph-name="slash" unicode="/" horiz-adv-x="417" 
d="M218 339l-75 -162q-12 -26 -23.5 -51t-21.5 -46t-17.5 -37.5t-11.5 -24.5l-66 -30q79 172 161.5 348t176.5 353l71 33q-4 -8 -8 -15.5t-8 -15.5q-24 -47 -39.5 -75.5t-28 -53t-25.5 -51t-34 -68.5z" />
    <glyph glyph-name="zero" unicode="0" horiz-adv-x="521" 
d="M488 399q0 -84 -18 -167t-67 -150q-24 -33 -47.5 -52t-44.5 -28t-38 -11.5t-29 -2.5q-56 0 -96 28t-66 74.5t-38 106t-12 121.5q0 85 19.5 158.5t53.5 127t81 84t103 30.5q43 0 80 -20t63 -59.5t41 -99.5t15 -140zM412 280q0 24 -2 54t-5.5 60t-8.5 58.5t-11 50.5
q-8 29 -20.5 58.5t-29.5 53.5t-39.5 39t-50.5 15q-7 0 -15 -1t-18 -4q-20 -7 -34 -18.5t-23.5 -24t-15 -25t-8.5 -20.5q-10 -29 -15.5 -68t-5.5 -84q0 -20 1.5 -46.5t5 -56.5t9 -61t13.5 -59q6 -19 17 -47t28.5 -53.5t41.5 -44t56 -18.5q6 0 18 2t26.5 9.5t29.5 23t27.5 42
t20.5 67t8 98.5z" />
    <glyph glyph-name="one" unicode="1" horiz-adv-x="521" 
d="M87 562q53 33 86 53.5t59.5 37.5t52.5 35l65 45l-9 -30q-3 -11 -4.5 -17.5t-2 -12.5t-1 -13t-0.5 -17l-14 -567q0 -29 9 -36.5t35 -10.5l51 -4l-41 -25h-177q15 18 20 27.5t5 30.5l8 458q1 9 1 18v19q0 14 0.5 22.5t1 14.5t1 11.5t0.5 13.5l-68 -44l-81 -17z" />
    <glyph glyph-name="two" unicode="2" horiz-adv-x="521" 
d="M28 565q26 26 47.5 46t41.5 37t42 32t49 30q11 2 29 5t41 3q43 0 75 -12.5t52.5 -34t30.5 -50t10 -59.5q0 -47 -18.5 -94.5t-56 -103.5t-96 -124.5t-137.5 -155.5q45 -7 95 -10t88 -3q18 0 39.5 0.5t43.5 3t42 7t34 12.5l-8 -25l-79 -91l-33 -6l22 33q-53 -5 -99 -6.5
t-66 -1.5q-8 0 -28.5 0.5t-47 1.5t-56.5 3.5t-55 6.5q31 31 59.5 65.5t56.5 69.5q34 42 69.5 89t65 95t48.5 95.5t19 91.5q0 26 -7.5 50.5t-22.5 44t-37 31t-52 11.5q-25 0 -44.5 -7t-34.5 -17t-26.5 -21t-18.5 -20z" />
    <glyph glyph-name="three" unicode="3" horiz-adv-x="521" 
d="M16 566q28 29 52 50.5t45.5 39t41 31t39.5 25.5q17 2 30.5 4t35.5 2q34 0 61 -7q25 -7 42.5 -20t27.5 -28.5t14.5 -31.5t4.5 -30q0 -26 -10.5 -49.5t-27.5 -43.5q-22 -25 -45 -41t-34 -23q17 -7 37 -16.5t40 -28.5q23 -23 36.5 -53.5t13.5 -64.5q0 -31 -11 -63.5
t-31 -61.5q-12 -17 -33 -38t-51 -43t-70 -43.5t-91 -39.5l-87 -6q10 4 22 9l24 10t21.5 9t15.5 7q28 14 66 38.5t70 60.5q25 29 39 61t14 70q0 34 -13 60t-35 43.5t-51.5 26.5t-63.5 10l25 35q28 1 54 13t45 30.5t30.5 42.5t11.5 48t-10 41t-25 28t-33.5 16t-35.5 5
q-3 0 -15.5 -1t-30 -6.5t-37.5 -18t-38 -35.5z" />
    <glyph glyph-name="four" unicode="4" horiz-adv-x="521" 
d="M456 25l-32 -25h-157q7 13 11 20.5t6 13.5t2.5 13t0.5 19l2 148q-34 1 -68.5 1h-68.5q-47 0 -86.5 -0.5t-59.5 -1.5l14 24.5t21.5 37.5t21.5 38t14 26q22 39 54 91.5t64.5 104.5t61 97t43.5 68l89 18q-2 -14 -2.5 -25.5t-1.5 -27.5t-2 -41t-2 -66l-6 -275h68h12.5t20 0.5
t20 0.5h13.5l-97 -74q-14 2 -21 2h-18v-135q0 -14 1 -23t4.5 -14t10.5 -7.5t19 -3.5zM301 642q-25 -37 -53.5 -83t-56 -94t-53.5 -95t-47 -84h99q25 0 50 -0.5t49 -0.5z" />
    <glyph glyph-name="five" unicode="5" horiz-adv-x="521" 
d="M246 711q21 -2 38.5 -2.5t31.5 -1.5q15 -1 27 -1h21q39 0 78 2.5t76 15.5l-13 -29l-90 -77l-34 -4l16 22q-17 -2 -42.5 -4.5t-67.5 -2.5q-26 0 -51 1t-51 3l-47 -122q15 -2 38.5 -6t50.5 -11.5t54.5 -20t51.5 -30.5q39 -31 58 -71.5t19 -84.5q0 -42 -16.5 -79t-42.5 -69
q-27 -31 -59 -54.5t-65.5 -40.5t-65.5 -29.5t-59 -22.5l-83 -6q29 11 53 20.5t45 19t41 20.5t41 25q36 24 58.5 48t35.5 47t18 45.5t5 43.5q0 41 -13.5 68t-29.5 44q-11 12 -27 22.5t-40.5 19.5t-60.5 15.5t-88 9.5l24 39q5 9 8.5 14.5t6.5 11.5t5.5 13t7.5 19l49 129z" />
    <glyph glyph-name="six" unicode="6" horiz-adv-x="521" 
d="M315 445q5 0 11 -1t12 -3q31 -7 59 -21.5t49.5 -37t34 -53.5t12.5 -71q0 -46 -17.5 -94t-50 -87t-79.5 -64t-107 -25q-54 0 -92.5 21t-63.5 54t-36.5 73t-11.5 79q0 64 30.5 137.5t90.5 148.5q34 43 70.5 78t71.5 64t67 51.5t57 39.5l-25 -53q-23 -16 -50 -37t-56 -48
t-57.5 -62t-53.5 -78q-27 -48 -39.5 -92.5t-12.5 -95.5q0 -54 13.5 -97t36.5 -72.5t52.5 -45.5t61.5 -16q22 0 44.5 8t40.5 25.5t29 43.5t11 62q0 33 -11.5 70.5t-34.5 69t-58 52t-83 20.5q-11 0 -20 -1t-19 -3l28 26z" />
    <glyph glyph-name="seven" unicode="7" horiz-adv-x="521" 
d="M190 724q1 -5 2.5 -8.5t6.5 -5.5q4 -2 17 -2.5t28 -1t29 -0.5h20q54 0 114 0.5t114 1.5q-52 -87 -93.5 -167t-76.5 -157q-11 -23 -25.5 -56.5t-30 -69t-30 -70t-25.5 -60.5q-9 -23 -18 -45.5t-19 -45.5l-5 -12q-21 -10 -35 -16.5t-27 -13.5t-28 -15.5t-39 -22.5
q8 18 14 32t14 29.5t19 37t29 54.5q20 40 40.5 79.5t41.5 78.5q50 94 104 185t112 181q-40 -2 -79.5 -3.5t-78.5 -1.5q-21 0 -42.5 0.5t-42.5 0.5q-20 0 -41 1t-38 2l-43 -30l-54 -14l127 126z" />
    <glyph glyph-name="eight" unicode="8" horiz-adv-x="521" 
d="M179 371q-14 11 -32 26t-33.5 35.5t-26 46t-10.5 58.5q0 23 8 49.5t28 50.5q26 33 59.5 50.5t57.5 28.5q14 1 23 1.5t20 0.5q48 0 82.5 -13.5t57 -35t33.5 -48.5t11 -54q0 -49 -32 -95q-21 -30 -46 -47.5t-42 -26.5q18 -10 39 -22.5t41 -30.5q29 -28 46.5 -64.5
t17.5 -78.5t-18.5 -80.5t-50.5 -68t-74 -47.5t-90 -18q-45 0 -84 14t-67.5 39.5t-44.5 59.5t-16 75q0 33 12 65.5t36 60.5q23 26 50 43t45 26zM306 412q10 6 22 14t24 24q13 16 20.5 37.5t7.5 46.5q0 26 -9.5 51.5t-27 46t-43 33t-57.5 12.5q-27 0 -46 -8.5t-31 -22.5
t-17.5 -31t-5.5 -33q0 -24 9.5 -45.5t26 -39.5t39 -34t47.5 -30zM208 353q-15 -7 -32.5 -16.5t-34.5 -30.5t-23 -43t-6 -43q0 -29 11 -62t32.5 -61t54 -46t74.5 -18q27 0 51 8.5t42 24.5t28 38.5t10 49.5q0 33 -13.5 58.5t-33 44.5t-40.5 32.5t-35 21.5q-5 2 -16.5 8
t-25 12.5t-26 12.5t-17.5 9z" />
    <glyph glyph-name="nine" unicode="9" horiz-adv-x="521" 
d="M207 261l-13.5 2t-33.5 9t-43 19.5t-43 33t-33 51t-13 72.5q0 39 14.5 84t40.5 82q33 46 84.5 75t115.5 29q54 0 92.5 -21t63.5 -53.5t36.5 -73t11.5 -79.5q0 -64 -30.5 -137.5t-90.5 -148.5q-34 -43 -70.5 -78t-71.5 -63.5t-67 -51t-57 -39.5l24 52q41 29 76.5 58
t74.5 74q45 51 69 96t35 82t13 63.5t2 40.5q0 54 -13.5 96.5t-36.5 72t-53 45.5t-62 16q-22 0 -44.5 -8t-40.5 -25t-29 -43t-11 -62q0 -35 12 -73t35.5 -69t58.5 -51t80 -20q11 0 20 1t21 3l-28 -26z" />
    <glyph glyph-name="colon" unicode=":" horiz-adv-x="292" 
d="M237 391q-13 -14 -23 -23.5t-18 -17t-16 -14t-18 -13.5q-9 8 -15.5 14.5t-13 13.5t-14.5 16.5t-19 23.5l75 69l21 -26l19 -21zM233 58q-10 -12 -18 -20.5t-16.5 -16t-17.5 -15t-22 -17.5q-23 22 -35 35.5t-27 33.5l74 69l23 -28l15 -17z" />
    <glyph glyph-name="semicolon" unicode=";" horiz-adv-x="292" 
d="M237 391q-13 -14 -23 -23.5t-18 -17t-16.5 -14t-18.5 -13.5q-9 8 -15 14.5t-12.5 13.5t-14.5 16.5t-19 23.5l24 23l29 25l22 21l39 -47zM211 80q5 -6 10 -12.5t5 -17.5q0 -8 -3 -16t-6 -15q-10 -23 -29.5 -51.5t-38.5 -54t-33 -43l-14 -17.5l-51 -28l26 39q9 14 18 27.5
t18 27.5q11 16 21.5 34t10.5 34q0 9 -3.5 15t-7.5 11q-8 10 -19 23t-19 23q13 11 22 19t17 14.5t16 14t20 18.5z" />
    <glyph glyph-name="less" unicode="&#x3c;" horiz-adv-x="500" 
d="M500 68l-500 251v70l500 249v-64l-434 -220l434 -222v-64z" />
    <glyph glyph-name="equal" unicode="=" horiz-adv-x="500" 
d="M500 173h-500v59h500v-59zM500 349h-500v59h500v-59z" />
    <glyph glyph-name="greater" unicode="&#x3e;" horiz-adv-x="500" 
d="M0 68v64l434 222l-434 220v64l500 -249v-70z" />
    <glyph glyph-name="question" unicode="?" horiz-adv-x="458" 
d="M343 405q-17 -15 -27 -28t-16.5 -29.5t-9.5 -39.5t-6 -57l-40 -8l-29 -7l-39 -11q3 44 11.5 74.5t22.5 53.5t32.5 41t41.5 37q15 15 28 29.5t23 31t16 37t6 46.5q0 30 -8 47q-2 4 -8 14t-18 20.5t-30 18.5t-43 8q-50 0 -83 -32q-27 -25 -35 -50.5t-11 -43.5l-105 -19
q2 21 8 44t30 52q26 30 77.5 55.5t128.5 25.5q42 0 78 -9t62.5 -27t42 -45t15.5 -62q0 -25 -6.5 -44.5t-18 -36.5t-27 -32t-32.5 -30zM294 57q-9 -11 -16 -18t-14.5 -13.5t-17.5 -15.5t-26 -22l-14 14t-13 13.5t-15 17t-20 24.5l51 46l24 23l21 -26z" />
    <glyph glyph-name="at" unicode="@" horiz-adv-x="896" 
d="M824 26q-17 -17 -45.5 -42.5t-72 -49.5t-102.5 -41t-137 -17q-99 0 -174 29t-124.5 78.5t-74.5 116t-25 140.5q0 91 33 176t91.5 151t138 105.5t172.5 39.5q77 0 137 -27t101 -73t62.5 -105.5t21.5 -123.5q0 -59 -17.5 -115.5t-47 -100.5t-68.5 -71t-82 -27q-6 0 -21.5 3
t-31.5 19q-17 17 -19 37t-2 40q-15 -24 -31 -44t-48 -37q-31 -16 -62 -16q-19 0 -41.5 8t-42 28t-32.5 53t-13 83q0 57 19 108t50 89.5t70 61t79 22.5q15 0 30 -3.5t29 -11.5q26 -14 35.5 -32t16.5 -36l13 56h59l-29 -135q-9 -38 -17 -76t-15 -76q-2 -10 -4.5 -25.5
t-2.5 -29.5q0 -27 12 -34.5t20 -7.5q21 0 47 20.5t49.5 57t39.5 86t16 107.5q0 64 -22 117t-60 91.5t-88.5 59.5t-107.5 21q-72 0 -137 -29t-112 -82q-27 -30 -49 -67.5t-37.5 -80.5t-24 -88.5t-8.5 -90.5q0 -57 18.5 -114t58.5 -102.5t104 -74t156 -28.5q44 0 98 10.5
t111 39.5q41 22 66 43.5t50 45.5zM573 394q0 28 -8 46t-20 29t-25 15.5t-23 4.5q-26 0 -45.5 -12t-36.5 -34q-14 -17 -27.5 -42.5t-24 -55.5t-17.5 -63t-7 -65q0 -20 3.5 -39t15.5 -35q16 -20 33 -23.5t23 -3.5q28 0 50.5 15.5t40.5 41t30.5 56.5t21 62t12.5 58t4 45z" />
    <glyph glyph-name="A" unicode="A" horiz-adv-x="750" 
d="M267 699l140 10q4 -9 15.5 -34t24.5 -52.5t24.5 -52t14.5 -31.5q8 -18 17.5 -40.5t20 -46.5t20 -46.5t17.5 -40.5l39 -89q31 -67 54 -111t43 -74t41 -50.5t49 -40.5q-19 -5 -34 -7.5t-32 -2.5q-20 0 -38.5 5.5t-41.5 19.5q-20 13 -35.5 29.5t-27.5 35.5t-22 39.5
t-20 43.5l-59 138l-24.5 -7t-19 -6t-17 -6.5t-18.5 -7.5h-159q-17 0 -24 -3t-15 -12l-87 -161q-2 -5 -4.5 -11t-2.5 -12q0 -13 14 -19q20 -12 51.5 -19t55.5 -11l-84 -26q-56 -2 -83.5 8.5t-45.5 21.5q19 25 36.5 48.5t35.5 52.5t39 68t48 95l37 78q16 31 25 50t17 36
t16.5 37t23.5 54q7 15 11.5 25.5t8 19t6.5 16.5t6 19q-7 16 -20 25.5t-29.5 14t-35 5t-36.5 -0.5zM410 310q24 2 36 2.5t26 1.5q-9 24 -26.5 64.5t-36 82t-35.5 76.5t-24 50q-19 -44 -32 -74.5t-27 -61.5q-13 -27 -26.5 -54t-26.5 -54q-4 -8 -7.5 -16t-6.5 -16z" />
    <glyph glyph-name="B" unicode="B" horiz-adv-x="604" 
d="M72 707h221q35 0 73 -6.5t69 -31.5q21 -17 34.5 -44t13.5 -56q0 -31 -12.5 -55t-31 -42t-40.5 -32t-40 -24q16 -2 36 -5.5t41.5 -11t43 -21t40.5 -34.5q26 -29 37 -61.5t11 -64.5q0 -51 -24 -95.5t-61 -73.5q-26 -20 -53 -30.5t-53.5 -15.5t-52 -6t-48.5 -1
q-24 0 -48 0.5t-47 1.5l-125 4q13 14 20.5 24.5t11 19.5t5 17.5t1.5 20.5v93t0.5 113t1 111t1.5 88q1 41 2.5 81t1.5 82l1 20h-99zM199 373q17 4 39.5 11t54.5 24q10 6 25 15.5t28.5 25t23 37.5t9.5 52q0 15 -5.5 37t-20 43.5t-40.5 38.5t-67 21q-11 1 -19.5 1h-19.5
q-1 -5 -1 -9.5t-1 -9.5q-1 -17 -2 -39t-1.5 -44.5t-1 -44.5t-0.5 -40zM199 204v-31t1 -36.5t2.5 -35t4.5 -26.5q8 -25 33 -39t69 -14q69 0 110.5 42t41.5 115q0 37 -11.5 69.5t-34.5 56.5t-56.5 37.5t-78.5 13.5q-29 0 -47.5 -4t-33.5 -9v-139z" />
    <glyph glyph-name="C" unicode="C" horiz-adv-x="667" 
d="M614 22q-13 -5 -26 -9.5t-27 -8.5q-26 -8 -59 -13.5t-75 -5.5q-105 0 -177.5 35t-117.5 88.5t-65 117t-20 120.5q0 69 26.5 136.5t76 120.5t120.5 85.5t161 32.5q66 0 129 -18q60 -17 92 -38.5t49 -35.5l-75 -73l-32 -3l27 38q-12 13 -29 30t-40.5 32t-55 25.5
t-71.5 10.5q-48 0 -96.5 -19.5t-87.5 -58t-63 -94.5t-24 -129q0 -60 20 -124t62.5 -116.5t108 -86.5t156.5 -34q54 0 91.5 11t69.5 24z" />
    <glyph glyph-name="D" unicode="D" horiz-adv-x="771" 
d="M79 706h200q41 0 88 -2t94.5 -12t92.5 -30.5t83 -56.5q39 -37 67.5 -98t28.5 -144q0 -46 -10.5 -90t-30.5 -84t-49.5 -74t-68.5 -59q-36 -23 -74.5 -37t-79 -21t-82.5 -9t-85 -2q-69 0 -109 4t-65 8l15 29q6 11 8 18.5t2 23.5v167v115t0.5 84.5t1.5 75.5q1 41 1.5 66
t1 41.5t0.5 27.5v25l-86 -3zM208 239q-1 -29 -0.5 -57.5t2.5 -57.5q1 -17 5 -36.5t21 -34.5q14 -11 43.5 -20.5t77.5 -9.5q64 0 114 21.5t84.5 59t52.5 89t18 111.5q0 45 -8.5 91t-25.5 87q-8 20 -20 41.5t-29.5 41.5t-41 38.5t-54.5 33.5q-24 11 -50 18t-49.5 11t-44 5.5
t-34.5 1.5q-20 0 -33 -1t-21 -3l-5 -197z" />
    <glyph glyph-name="E" unicode="E" horiz-adv-x="521" 
d="M471 0h-405q12 14 19.5 23.5t11 18.5t4.5 20t1 27q0 146 2.5 291t9.5 291h-107l72 35h416l-64 -59l-26 -7q4 5 9 13t5 10q0 5 -9 6q-7 1 -21 1.5t-31 0.5h-35.5h-34.5h-71l-10 -280h231l-58 -55l-27 -8q8 14 10 17t2 5q0 5 -3.5 6t-7.5 1h-117q-15 0 -23 -5t-7 -24v-228
q0 -18 1 -30t8 -19q6 -7 20.5 -11t31.5 -5.5t33 -2t26 -0.5q23 0 46.5 1t46.5 5q35 5 53 12t35 15l54 18z" />
    <glyph glyph-name="F" unicode="F" horiz-adv-x="479" 
d="M274 0h-205q9 11 15.5 19t11 16.5t6.5 18t3 22.5v24.5t-0.5 37.5t-0.5 37.5v25.5q0 234 9 467h-101l66 38h420l-64 -60l-27 -8l7.5 12.5t3.5 4.5q1 2 2 3t1 3q0 4 -6 5t-12 1h-8h-11.5t-20.5 0.5t-35 0.5h-111l-5 -148q0 -6 -0.5 -22t-1 -34t-1 -34.5t-0.5 -23.5v-16h231
l-58 -54l-26 -7q8 11 9.5 14.5t1.5 6.5q0 5 -4.5 6t-11.5 1h-112q-19 0 -25 -6.5t-6 -26.5v-227q0 -23 1 -35.5t5 -19t13 -8.5t25 -3l71 -4z" />
    <glyph glyph-name="G" unicode="G" horiz-adv-x="792" 
d="M727 35l-143 -33q-44 -7 -83.5 -12t-81.5 -5q-69 0 -124 16t-97.5 42.5t-72.5 62.5t-49.5 76.5t-28.5 82.5t-9 82q0 73 27.5 140.5t79 119.5t126.5 83t171 31q41 0 79.5 -5.5t73.5 -15.5q57 -16 86 -33.5t46 -28.5l-83 -79l-35 -8l25 40q-13 12 -31.5 28.5t-44 31
t-60 24.5t-78.5 10q-59 0 -110 -21.5t-88 -60.5t-58 -93t-21 -120q0 -71 24.5 -136.5t70.5 -116.5t111.5 -81.5t147.5 -30.5q48 0 76 8t51 17v161l-151 -8l80 43h212l-26 -25q-5 -5 -6.5 -7.5t-3.5 -8.5q-1 -7 -1.5 -23.5t-0.5 -24.5v-122z" />
    <glyph glyph-name="H" unicode="H" horiz-adv-x="875" 
d="M839 0h-216q16 16 25 28t13.5 27.5t5.5 39.5t1 63v210q-13 -3 -22 -5.5t-17.5 -5.5t-17 -6.5t-21.5 -9.5h-307q-14 0 -30.5 -1t-27.5 -7q-6 -4 -9.5 -8t-5 -12t-1.5 -22v-36v-70q0 -41 0.5 -69t2.5 -53q1 -20 8 -25.5t25 -7.5l77 -3l-55 -27h-203q16 17 25.5 30.5
t12.5 36.5q1 7 2 26.5t1.5 41.5t0.5 42.5v30.5v29t-0.5 45t-0.5 45.5v30.5q0 79 3 157q2 35 2.5 69.5t1.5 69.5v9t1 9l-101 -2l75 37h175l-30 -23q-7 -5 -9 -9t-4 -12q-1 -5 -1.5 -25t-1.5 -47.5t-2 -59.5t-2 -61.5t-2 -53t-1 -34.5h414q14 0 22 1t23 4l1 107q1 43 2 69
t1.5 44t1 32.5t1.5 33.5l-97 -3l74 37h167l-33 -26q-2 -2 -3.5 -4t-2.5 -7q-1 -2 -2.5 -42.5t-3.5 -107.5t-3.5 -155t-1.5 -185v-26v-33t0.5 -32t1.5 -24q1 -24 13.5 -29.5t41.5 -6.5l71 -2z" />
    <glyph glyph-name="I" unicode="I" horiz-adv-x="313" 
d="M277 0h-211q13 16 20 25.5t11 17t5 15t2 18.5q0 88 0.5 172.5t1.5 161t3 142.5t5 119h-101l66 35h181l-25 -21l-7 -7t-5 -8q-2 -2 -2 -6.5t-1 -21.5q-1 -20 -2 -45t-2 -51.5t-1.5 -52t-1.5 -45.5l-4 -148q-1 -33 -1.5 -65.5t-0.5 -65.5v-64q0 -23 1 -37t4.5 -21.5
t11.5 -10.5t22 -4l74 -8z" />
    <glyph glyph-name="J" unicode="J" horiz-adv-x="292" 
d="M6 -257q14 23 27 46t23 47q13 30 20.5 57.5t12 59t6.5 70.5t5 93l6 226q0 39 0.5 78.5t1.5 79.5q2 38 3 75l2 74v21l-149 -4l64 40h230l-25 -21q-9 -9 -11.5 -15t-4.5 -27q0 -12 -1 -43t-2.5 -66t-2.5 -66.5t-1 -44.5l-8 -334q-2 -34 -5 -70t-16 -74t-38.5 -79t-70.5 -84
z" />
    <glyph glyph-name="K" unicode="K" horiz-adv-x="667" 
d="M557 149q24 -28 42.5 -49t35.5 -39t34.5 -33.5t39.5 -33.5q-14 -3 -26.5 -5t-25.5 -2q-42 0 -79.5 20t-74.5 54.5t-73.5 80.5t-76.5 99l-50 65q-10 15 -23 29q-3 3 -8 7.5t-12 4.5q-6 0 -10 -3.5t-8 -6.5l-35 -37v-139v-25t0.5 -32.5t1.5 -32t2 -22.5q2 -6 6 -10.5
t26 -6.5l81 -4l-50 -28h-205l26 32q7 8 8.5 13t2.5 16v27t-0.5 42.5t-1 43t-0.5 28.5q-1 118 1 235t4 235l-97 -3l66 38h177l-21 -18q-14 -10 -17 -15.5t-4 -14.5q0 -4 -0.5 -15t-1 -23t-1 -23t-0.5 -15q-1 -23 -1 -44.5v-44.5l-2 -139l67 66q50 52 82 87t55 61.5t41 50
t40 52.5h-100l60 35h141l-25 -20q-6 -5 -9 -8t-12 -14q-54 -60 -107.5 -119t-109.5 -118q15 -15 35 -38.5t38 -45t30.5 -37.5t13.5 -17q4 -5 15 -19.5t23.5 -31t23.5 -31t16 -20.5z" />
    <glyph glyph-name="L" unicode="L" horiz-adv-x="542" 
d="M492 0h-426q17 17 26 29.5t11 32.5v188v43t1 64.5t2 79t3 84.5q1 32 2.5 65t2.5 65v9t1 9h-97l68 37h173l-22 -22q-13 -12 -16.5 -19.5t-4.5 -26.5q0 -8 -0.5 -17t-1.5 -26t-2 -46.5t-2 -78.5v-143q0 -11 -0.5 -42t-1 -65.5t-1 -63.5t-0.5 -35q0 -15 0.5 -24.5t1.5 -17.5
q0 -6 1.5 -15t7.5 -15q6 -7 20.5 -10.5t31.5 -5t33.5 -2t26.5 -0.5q25 0 49.5 1t49.5 3q21 2 36 4.5t26.5 6.5t20.5 8.5l19 9.5l54 18z" />
    <glyph glyph-name="M" unicode="M" horiz-adv-x="1042" 
d="M941 319q6 -56 9.5 -89t5.5 -53.5t4 -32.5t4 -25q5 -33 19 -63.5t50 -46.5q3 -2 6 -2.5t6 -2.5q-5 -1 -10.5 -2t-10.5 -2q-12 -2 -23.5 -3.5t-23.5 -1.5q-15 0 -30 3t-29 11q-17 9 -28 21.5t-17 26t-9 27t-4 24.5q-5 29 -8.5 58.5t-6.5 58.5q-9 92 -16 183.5t-12 183.5
l-63 -126q-12 -26 -21.5 -45t-18.5 -38t-19.5 -40t-24.5 -51l-118 -261l6 -17l-99 -25l-154 334q-16 33 -31.5 66t-32.5 65q-4 7 -13.5 26.5t-21 41.5t-21.5 42l-14 28l-28 -322q-2 -21 -3 -35t-2 -25.5l-2 -23t-2 -28.5q-1 -12 -2 -31t-1 -35q0 -21 3 -32.5t8.5 -17.5
t14 -8t19.5 -3l56 -6l-44 -25h-149q14 17 22 29t13.5 27.5t9 39t7.5 63.5l23 229q2 29 5 58.5t5 58.5q0 6 2 26.5t3.5 43.5t3 42t1.5 21q0 19 -5.5 24t-13.5 7q-3 1 -6 1.5t-12 0.5h-26h-47l65 35h143q35 -67 65 -126.5t55 -111.5q29 -64 58 -125q15 -33 30.5 -65.5
t30.5 -65.5q3 -7 11.5 -26t18.5 -40.5t18.5 -40.5t12.5 -27q29 64 52.5 115t43 92.5t36.5 78t34.5 72t36.5 73.5l42 84l14 32q3 6 6 13.5t3 14.5q0 14 -12.5 17.5t-28.5 3.5q-13 0 -31.5 -1t-32.5 -1l75 35h184q-5 -4 -15 -11.5t-15 -12.5q-5 -4 -6 -8t-1 -15v-13.5t1 -22.5
t3 -46.5t6 -85.5z" />
    <glyph glyph-name="N" unicode="N" horiz-adv-x="896" 
d="M820 25q-27 -11 -46.5 -19.5t-50.5 -21.5q-65 74 -113 128.5t-66 74.5q-10 10 -32 34t-51.5 56.5t-65 70l-71 75t-70 73t-61.5 62.5q-13 13 -21 20.5t-13 12.5l-8 8l-7 7v-244q0 -72 1 -142t3 -142q1 -16 3 -25.5t11.5 -15t30 -8t58.5 -4.5l-38 -25h-151l23 23q8 8 11 14
t5 23q0 4 0.5 23.5t1 43t1 45.5t0.5 33v144v67.5t-1 66.5q-1 51 -1.5 81.5t-0.5 53.5q0 35 -11.5 45.5t-40.5 10.5q-14 0 -28.5 -1t-28.5 -3l70 37h125l38 -36l38 -36q20 -21 58 -59.5t84.5 -87.5t98 -104.5t100 -108t89.5 -99t66 -77.5l5 242q1 71 1 126.5t-1 115.5
q0 5 -0.5 18t-1 27.5t-1 27.5t-0.5 19l-114 -4l59 36h132q-8 -5 -11.5 -7t-8.5 -9q-3 -5 -5.5 -9.5t-4 -12t-2 -19.5t-0.5 -31q-1 -23 -1 -47t-1 -48v-479z" />
    <glyph glyph-name="O" unicode="O" horiz-adv-x="875" 
d="M837 369q0 -75 -28.5 -144.5t-81.5 -122.5t-129 -85t-170 -32q-91 0 -163.5 30t-122.5 80t-77 115t-27 136q0 67 26 134t78 120.5t129.5 87t179.5 33.5q87 0 158 -27.5t121.5 -75.5t78.5 -112t28 -137zM728 329q0 28 -3.5 58t-11.5 60q-12 41 -37 83.5t-62.5 77.5t-86 57
t-108.5 22q-55 0 -105 -20t-87.5 -58.5t-60 -94t-22.5 -126.5q0 -69 23 -135t64.5 -117t99.5 -82.5t128 -31.5q40 0 87.5 15.5t87.5 51t67 94.5t27 146z" />
    <glyph glyph-name="P" unicode="P" horiz-adv-x="521" 
d="M278 0h-211l25 32q7 10 9.5 16.5t2.5 23.5v29.5t-0.5 46t-0.5 46.5v31v57t0.5 72t1.5 78.5t2 77.5t2 73.5t2 73.5v14l-104 -5l76 40h216q38 0 75.5 -5t73.5 -28q68 -45 68 -122q0 -42 -18 -73.5t-44.5 -54t-56 -37.5t-51.5 -25l-107 -19q26 9 50 18.5t47 26.5
q28 20 49 53.5t21 81.5q0 25 -8 52t-27.5 49.5t-51.5 37t-80 14.5h-10t-12 -1l-6 -170q-1 -41 -1.5 -99t-1 -117t-0.5 -112v-84q0 -19 1 -30.5t5.5 -18t14 -9t27.5 -3.5l74 -4z" />
    <glyph glyph-name="Q" unicode="Q" horiz-adv-x="896" 
d="M700 40q12 -1 22 -3t20.5 -6.5t23 -13t29.5 -23.5q26 -23 50 -47.5t49 -49.5q17 -17 36.5 -33t39.5 -26q5 -2 9.5 -3.5t9.5 -3.5h-116q-19 0 -32.5 4t-29.5 16.5t-38.5 35.5t-58.5 60l-29 30q-13 11 -33 25.5t-46 14.5h-3q-27 -10 -68 -20.5t-103 -11.5q-92 0 -165 30
t-124 80.5t-78 115.5t-27 135q0 76 29.5 144.5t84 120t131.5 81.5t171 30q91 0 162 -30t120 -79.5t75 -114t26 -132.5q0 -73 -27 -137q-17 -43 -39.5 -75t-45 -54.5t-43 -37t-32.5 -22.5h50zM462 21q61 0 111 25t85 67.5t54 98t19 116.5q0 70 -24 135t-66 115t-99 80
t-122 30q-53 0 -104.5 -20.5t-88.5 -58.5q-35 -36 -58 -92t-23 -130q0 -69 23 -134.5t64.5 -117t99.5 -83t129 -31.5z" />
    <glyph glyph-name="R" unicode="R" horiz-adv-x="667" 
d="M78 706h201q30 0 60 -3.5t56 -15.5q49 -19 82 -61.5t33 -100.5q0 -37 -13 -65t-30.5 -48t-36 -32.5t-28.5 -18.5q10 -11 18.5 -20.5t16 -19.5t16.5 -22.5t21 -29.5q14 -21 29 -42t31 -41l31 -42q20 -27 36 -47t32.5 -37.5t35 -33t42.5 -32.5q-13 -2 -24 -4t-23 -2
q-32 0 -67.5 12.5t-63.5 32.5q-16 12 -31 27.5t-31.5 36.5t-35.5 47.5t-42 60.5l-48 66q-9 13 -15.5 21t-12.5 12.5t-12.5 6t-16.5 1.5q-5 0 -8.5 -0.5t-16.5 -2.5t-25.5 -2.5t-27.5 -0.5v-64v-40t0.5 -33t1 -39t1.5 -58q0 -11 1 -18t5 -12t12.5 -7.5t23.5 -3.5
q20 -2 38.5 -2.5t37.5 -1.5l-57 -27h-208q10 10 17 18.5t11.5 17.5t6.5 20.5t2 28.5q0 108 0.5 214.5t4.5 214.5q0 8 1 31.5t2 50t1.5 48t0.5 25.5h-108zM210 335q23 0 52.5 2.5t62.5 19.5q29 15 45.5 34.5t24.5 38.5t9.5 36t1.5 27q0 38 -12.5 70.5t-32.5 56.5
q-18 20 -36.5 31t-37.5 16t-36.5 6t-33.5 1q-2 -26 -2.5 -54t-1.5 -56q-1 -26 -1.5 -52t-1.5 -52v-125z" />
    <glyph glyph-name="S" unicode="S" horiz-adv-x="562" 
d="M391 376q18 -10 40 -24t41 -34.5t32 -49t13 -68.5q0 -45 -19 -84t-54 -68.5t-84 -46t-109 -16.5q-59 0 -115.5 13.5t-110.5 36.5l78 88l27 6l-17 -34q-3 -5 -3 -8q0 -4 5 -11q6 -7 22.5 -16.5t38.5 -18.5t47.5 -15t50.5 -6q33 0 60.5 10.5t48 28.5t32 42t11.5 52
q0 16 -4 30t-9 25q-18 39 -50 60.5t-66 38.5l-69 33q-32 16 -63.5 35.5t-52.5 52.5q-14 22 -20 45.5t-6 43.5q0 30 13 66t41.5 66.5t72.5 51t107 20.5q38 0 86.5 -9.5t99.5 -38.5l-76 -81l-26 -6l16 30q5 12 5 14q0 5 -8 15t-23 19.5t-37 17t-50 7.5t-52.5 -9t-43 -25.5
t-29 -39t-10.5 -49.5q0 -32 13 -55.5t32.5 -40.5t43 -29.5t43.5 -22.5z" />
    <glyph glyph-name="T" unicode="T" horiz-adv-x="583" 
d="M398 0h-206l18 25q6 11 10.5 22t4.5 40v110.5t0.5 90.5t1 81.5t1.5 83.5t2.5 96t4.5 120h-160q-11 0 -21 -1.5t-19 -6.5q-4 -3 -7 -5.5t-6.5 -7t-8.5 -11.5t-13 -19l-31 -14l41 102h595l-53 -92l-24 -10q8 22 8 38q0 21 -13.5 24.5t-28.5 3.5h-156q0 -12 -1 -44.5
t-2.5 -68.5t-2.5 -69t-1 -47l-1 -224q1 -65 1 -97t1 -51q0 -11 2 -17.5t7.5 -10.5t16.5 -6t30 -4l59 -6z" />
    <glyph glyph-name="U" unicode="U" horiz-adv-x="750" 
d="M712 706l-27 -23q-6 -6 -8 -11.5t-4 -25.5q0 -12 -0.5 -23.5t-0.5 -23.5l-10 -291q-2 -29 -4.5 -59.5t-9.5 -61.5t-20 -61t-36 -56q-40 -46 -98 -65.5t-119 -19.5q-47 0 -79.5 7t-52.5 15q-59 23 -91 59t-46.5 74.5t-17 74.5t-2.5 59q0 40 1 88t3 116l2 61q0 22 0.5 37.5
t0.5 29v28v34.5h-107l75 38h181l-26 -22q-11 -9 -12 -19q-2 -6 -3.5 -32t-3 -56t-3 -58t-1.5 -38l-3 -100q-1 -40 -1 -72t2 -58t6 -48.5t11 -42.5q24 -67 76 -101.5t125 -34.5q27 0 52.5 5.5t48.5 18.5q53 29 81 85q20 39 25.5 89t8.5 116l3 130q0 25 0.5 46.5t0 44
t-1.5 48.5t-2 61h-114l77 38h124z" />
    <glyph glyph-name="V" unicode="V" horiz-adv-x="688" 
d="M723 706q-8 -6 -18 -14t-18 -14q-9 -7 -14.5 -12.5t-10.5 -15.5t-11.5 -26t-16.5 -43q-1 -2 -10 -25t-23.5 -59t-33 -81l-37 -90t-35.5 -85.5t-30 -68.5q-16 -36 -32.5 -71.5t-30.5 -71.5q-2 -5 -4 -9.5t-4 -9.5q-23 -4 -38 -6.5t-27 -5t-22.5 -6t-25.5 -7.5
q-50 127 -98 252t-92 254l-27.5 82.5t-27.5 81.5l-6 16l-95 -4l71 39h180l-25 -21q-9 -9 -13 -14t-4 -14q0 -5 1.5 -10.5t3.5 -10.5q4 -13 8 -24.5t10 -29.5t16 -46.5t26 -75.5l84 -227q18 -48 37.5 -97t37.5 -90l47 104q35 81 58 135t40 96.5t31.5 80.5t31.5 87l15.5 46.5
t10.5 33.5t6.5 24l4.5 18l-119 -4l72 39h157z" />
    <glyph glyph-name="W" unicode="W" horiz-adv-x="1083" 
d="M1096 686q-12 -10 -18.5 -15.5t-10.5 -11.5t-7.5 -14t-8.5 -21l-27 -78q-12 -34 -23 -64.5t-21.5 -59.5t-22 -59.5t-24.5 -64.5l-57 -150q-11 -28 -18 -47t-13 -34.5t-12.5 -29t-14.5 -29.5q-20 -3 -33 -5t-24 -4.5t-23 -5.5t-28 -8q-12 35 -24 71t-23 71q-9 29 -22 74.5
t-26.5 92.5t-25 89t-17.5 65q-4 14 -10 37.5t-12.5 47.5t-12 44t-7.5 28q-11 -29 -23.5 -65t-25.5 -73.5t-25.5 -74t-22.5 -64.5q-15 -42 -30.5 -82t-30.5 -82q-12 -34 -19.5 -56t-14 -38.5t-12.5 -30.5t-15 -31l-35 -5t-26 -4.5t-23.5 -6t-27.5 -7.5q-13 42 -25.5 84
t-24.5 85q-4 14 -11 41t-16 61t-19 72t-19 73t-16.5 64.5t-11.5 47.5l-7.5 30t-11.5 47t-11.5 48t-7.5 32l-93 -3l62 40h179l-21 -25q-8 -8 -11 -13.5t-3 -13.5q0 -11 5 -32.5t14 -56.5q5 -20 10 -40.5t10 -40.5l52 -201q8 -32 17 -64t17 -64q6 -23 10.5 -38t7.5 -26.5
t6 -21t7 -22.5q11 28 20 52t18.5 50.5t22 59.5t29.5 80l44 124q20 59 33 99.5t22 69t14.5 48.5t10.5 39h-92l65 37h190l-23 -28q-5 -6 -9.5 -12.5t-4.5 -16.5q0 -6 1 -9q1 -5 1.5 -9.5t3 -13t6.5 -23.5t11 -40l3.5 -14t4.5 -17.5t8 -30t14 -51.5l48 -172q8 -29 17 -57.5
t17 -57.5q6 -21 10.5 -35.5t8 -26t7 -22t8.5 -23.5q16 41 27 68.5t20 51.5t19 50t24 64l62 166q10 29 19 57.5t19 57.5q7 22 11.5 36.5t8 25.5t6.5 21.5t6 23.5h-117l65 37h153z" />
    <glyph glyph-name="X" unicode="X" horiz-adv-x="708" 
d="M524 232q33 -43 60 -77t52.5 -62.5t52 -53t58.5 -47.5q-11 -4 -21 -6.5t-27 -2.5q-40 0 -73.5 14.5t-62 37.5t-52.5 51.5t-46 55.5l-22 29q-15 21 -27 38t-24 33.5t-25.5 35.5t-31.5 46l-147 -188q-14 -18 -26 -34.5t-20 -30.5q-7 -11 -7 -19t4.5 -12.5t10.5 -6.5
t13 -2.5t12 -0.5q20 -1 38.5 -1.5t37.5 -2.5l-44 -26h-214q16 9 27.5 15.5t23.5 16.5q16 13 40.5 40.5t51.5 60t53 65.5t46 59l75 100l-99 131q-17 24 -35 48t-36 47q-14 19 -23.5 31.5t-17 22t-13.5 17t-13 16.5l-98 -6l66 43h199q-8 -8 -15.5 -17.5t-7.5 -21.5t5.5 -22.5
t11.5 -18.5l138 -192l44 60q34 47 54.5 75.5t33 46.5t20 30t16.5 27l-124 -4l60 37h164q-21 -21 -34.5 -34t-25.5 -27t-27 -32.5t-40 -50.5l-118 -159z" />
    <glyph glyph-name="Y" unicode="Y" horiz-adv-x="625" 
d="M443 0h-204l22 34q6 11 7 16.5t2 18.5v221l-90 141q-22 32 -43 63.5t-43 63.5q-4 6 -15 21.5t-23.5 33t-24 33.5t-15.5 22h-87l70 39h173l-5.5 -5.5l-7.5 -7.5l-7.5 -7.5t-3.5 -4.5q-3 -3 -3 -9t3.5 -13t5.5 -12q7 -12 19 -31.5t39 -62.5l43 -65q3 -5 11.5 -17.5
t18.5 -26.5t19 -27t13 -18q1 -2 5.5 -8.5t9.5 -14l9 -13.5t5 -7l66 94q17 27 34.5 53.5t34.5 53.5q16 24 26 40l17.5 28t13 21.5t11.5 20.5h-122l68 39h160l-38 -28q-8 -7 -13.5 -11.5t-10 -10t-9.5 -12t-12 -16.5l-200 -304v-253q0 -17 3.5 -23.5t14.5 -9.5q14 -5 40.5 -8
t57.5 -6z" />
    <glyph glyph-name="Z" unicode="Z" horiz-adv-x="688" 
d="M552 -15l-40 -1l23 20l-528 -10q28 31 56 62.5t63 72.5t79.5 95t106.5 131l118 148q33 42 66 85t64 85l-339 -6l-94 -68l-61 -25l133 134l37 13q-3 -10 5 -14q3 -2 7 -2h7l448 7q-29 -42 -60 -84.5t-67 -90.5q-15 -20 -39 -51t-52 -66.5t-57.5 -73t-55.5 -70.5t-47 -59
t-31 -38q-5 -7 -22 -28t-36.5 -44.5t-36.5 -44.5t-22 -28l282 4q51 2 99 5t99 14q29 6 44 11.5t29 12.5l-36 -33z" />
    <glyph glyph-name="bracketleft" unicode="[" horiz-adv-x="313" 
d="M260 676h-36q-11 0 -20 -4.5t-14 -19.5q-3 -10 -5 -36.5t-3.5 -57t-2 -59t-0.5 -41.5l-4 -188q-2 -35 -2.5 -66t-0.5 -62q0 -27 0.5 -42.5t1 -24.5t1.5 -13t3 -7q8 -18 23.5 -22t40.5 -5q16 -1 30 -1.5t28 -0.5l-54 -26h-152q-1 13 -1.5 30t-0.5 45q0 1 0.5 21t1 50
t1 64.5t1 64.5t1 51.5t0.5 25.5q1 21 2.5 63t3.5 93t4 104t4 94h201z" />
    <glyph glyph-name="backslash" unicode="\" horiz-adv-x="417" 
d="M347 18q-4 8 -11.5 24.5t-17 37.5t-21 46t-23.5 51q-19 41 -37.5 81t-38.5 81l-51 104q-15 31 -30 61.5t-31 60.5q-4 9 -15.5 31t-24.5 47t-25 47.5t-17 31.5l72 -33q94 -177 176.5 -353t160.5 -348z" />
    <glyph glyph-name="bracketright" unicode="]" horiz-adv-x="313" 
d="M52 30h35q11 0 20.5 4.5t14.5 19.5q3 10 5 36.5t3.5 57t2 58.5t0.5 42l4 188q2 36 2.5 67t0.5 62q0 27 -0.5 42.5t-1 24.5t-1.5 13t-2 7q-6 19 -23.5 22t-44.5 4q-14 1 -27.5 1.5t-27.5 0.5l54 26h152q1 -13 1.5 -30t0.5 -44q0 -1 -0.5 -21t-1 -50t-1 -64.5t-1 -65
t-1 -52t-0.5 -24.5q0 -21 -1.5 -63t-3.5 -92.5t-4 -103.5t-4 -96h-202z" />
    <glyph glyph-name="asciicircum" unicode="^" horiz-adv-x="729" 
d="M573 350h-76l-131 273l-134 -273h-76l180 356h63z" />
    <glyph glyph-name="underscore" unicode="_" horiz-adv-x="500" 
d="M510 -125h-520v50h520v-50z" />
    <glyph glyph-name="grave" unicode="`" 
d="M278 525l-217 48l-68 51l215 -49z" />
    <glyph glyph-name="a" unicode="a" horiz-adv-x="437" 
d="M360 216q12 -41 22.5 -74.5t23.5 -64.5q14 -37 25.5 -53.5t23.5 -31.5q-8 -1 -15 -2t-14 -1q-17 0 -32 5t-30 13q-25 14 -37 31.5t-19 31.5l-47 -46q-14 -8 -44.5 -22t-78.5 -14q-31 0 -54.5 8.5t-39 23t-23 33t-7.5 39.5q0 43 26 76t62.5 56.5t75 38.5t63.5 24l-15 44
q-13 35 -25.5 54.5t-29 29t-39.5 11t-57 0.5l73 31q33 0 65 -2.5t56 -18.5q13 -9 22.5 -21.5t17 -30t15 -41.5t16.5 -56zM261 220q-5 20 -9 28t-14 8q-8 0 -28.5 -9t-42.5 -25.5t-39 -40.5t-17 -55q0 -22 9 -37.5t23 -25.5t31 -14.5t33 -4.5q39 0 61.5 15t32.5 25
q-5 15 -8.5 24.5t-6.5 20t-6.5 23.5t-9.5 34z" />
    <glyph glyph-name="b" unicode="b" horiz-adv-x="542" 
d="M47 0q11 11 17 18.5t9 14t3.5 15t0.5 21.5v46q0 49 0.5 81t0.5 59t0.5 55.5t1.5 70.5q2 68 3.5 143t3.5 148h-73l73 34h135q-13 -8 -20.5 -13.5t-11.5 -12.5t-5.5 -16.5t-2.5 -24.5l-8 -207l66 24q9 0 18 0.5t19 0.5q60 0 103.5 -18t72 -47.5t42.5 -68t14 -79.5
q0 -37 -10.5 -72t-32.5 -65t-54.5 -53.5t-76.5 -38.5q-29 -10 -50.5 -12t-44.5 -3h-193zM173 337v-49t-0.5 -54.5t-0.5 -54.5v-48q0 -36 0.5 -50t1.5 -20q0 -8 1.5 -14t7 -10.5t17 -7t31.5 -2.5q41 0 68 7q36 10 58.5 29.5t35.5 44t17.5 50.5t4.5 50q0 21 -5 49.5t-18.5 58
t-39 56t-65.5 41.5q-33 13 -60.5 14.5t-52.5 0.5z" />
    <glyph glyph-name="c" unicode="c" horiz-adv-x="396" 
d="M385 24l-16 -8t-16 -7q-16 -7 -44 -14.5t-63 -7.5q-60 0 -101 23.5t-66 58.5t-36 75.5t-11 75.5q0 40 14.5 83.5t48 79.5t88 59.5t133.5 23.5q36 0 59.5 -4t43.5 -9l-79 -80l-42 -15l36 48q-10 6 -30 14t-52 8q-23 0 -46.5 -8.5t-43 -27.5t-32 -48.5t-12.5 -72.5
q0 -38 11.5 -79t35 -74.5t60.5 -55t88 -21.5q42 0 71 12t54 26z" />
    <glyph glyph-name="d" unicode="d" horiz-adv-x="542" 
d="M506 0h-220q-25 0 -53.5 2t-57 10t-55.5 25t-48 47q-17 23 -28.5 54.5t-11.5 73.5q0 51 17.5 90t45 67.5t61.5 46.5t67 27q38 10 76 11.5t75 1.5q3 60 4 117t0 98h-79l77 35h136q-15 -10 -23.5 -16.5t-12.5 -17t-5 -28.5t-1 -50l-4 -266q-2 -83 -3 -135t-1 -92
q0 -30 0.5 -37.5t1.5 -11.5q2 -12 10 -16.5t32 -5.5q11 -1 22.5 -1.5t22.5 -2.5zM372 425q-13 1 -25 1.5t-25 0.5t-29 -1t-34 -5.5t-36.5 -12.5t-36.5 -22q-39 -31 -50 -67.5t-11 -68.5q0 -35 10.5 -74t33 -71.5t58 -54t85.5 -21.5q19 0 30.5 3t17 8t7 11t2.5 11q1 6 1.5 26
t1 44t0.5 45.5v30.5v217z" />
    <glyph glyph-name="e" unicode="e" horiz-adv-x="437" 
d="M397 22q-8 -5 -16.5 -9.5t-16.5 -8.5q-25 -11 -49.5 -15t-47.5 -4q-12 0 -27 1t-32.5 4.5t-36 11.5t-37.5 22q-27 19 -46 43.5t-31.5 52.5t-18.5 57.5t-6 57.5q0 58 21.5 101.5t54.5 72t73.5 43t79.5 14.5q27 0 53.5 -7t49.5 -21q19 -12 31 -26t20 -27.5t12 -25t7 -20.5
l-235 -95l-77 -6q9 -48 29 -85t47.5 -63t60.5 -39.5t69 -13.5q38 0 67 11t55 24zM303 320q14 5 21.5 10.5t7.5 16.5q0 15 -8 30.5t-21.5 27.5t-31.5 20t-38 8q-15 0 -35 -6.5t-37.5 -22.5t-30 -43t-12.5 -67q0 -13 1 -26t2 -27z" />
    <glyph glyph-name="f" unicode="f" horiz-adv-x="292" 
d="M232 0h-175q4 5 9.5 12t9.5 12q6 8 7 16.5t2 28.5v350h-56l56 34q1 17 4 45.5t17 63.5q25 59 68 92t87 44q12 3 21.5 4.5t23 2.5t33.5 1h51l-78 -43q-18 3 -34 3q-25 0 -41 -8.5t-25.5 -20.5t-14 -25t-6.5 -23q-2 -11 -3.5 -19.5t-2.5 -22.5t-2 -36t-2 -58h146l-56 -34
h-90l-3 -174v-184q0 -19 5 -24.5t33 -8.5q14 -2 28.5 -2.5t28.5 -2.5z" />
    <glyph glyph-name="g" unicode="g" horiz-adv-x="479" 
d="M349 417q9 -7 21 -18.5t23 -28t19 -38.5t8 -50t-7 -49t-19 -37.5t-27 -30t-31 -25.5q-10 -10 -19 -21t-9 -28t9 -26.5t17 -16.5l36 -28q16 -14 31.5 -28t27 -30t18.5 -36t7 -46q0 -35 -17 -69t-50 -60.5t-82.5 -43t-113.5 -16.5q-54 0 -94.5 12t-67.5 32t-40 45.5
t-13 53.5q0 27 16.5 61.5t60.5 60.5q23 14 49.5 22.5t52.5 13.5t49 7t40 3q-11 14 -20.5 29.5t-9.5 38.5q0 13 3 21.5t7 17.5q-8 -1 -16 -1.5t-16 -0.5q-40 0 -71 13.5t-52 35.5t-32 50.5t-11 57.5q0 35 16 70.5t48 63.5q43 35 90.5 45t88.5 10h206l-64 -36h-62zM239 135
q19 0 37.5 8t30.5 20q17 17 21 38t4 35q0 27 -8 59t-24 60t-39.5 46.5t-54.5 18.5q-20 0 -39 -9t-31 -24q-13 -16 -17.5 -35t-4.5 -39q0 -25 7.5 -56t23 -58t39 -45.5t55.5 -18.5zM387 -159q0 19 -6.5 34.5t-19.5 30.5t-34 31t-49 36q-6 1 -10.5 1h-12.5q-3 0 -14 -0.5
t-26 -2t-32 -5t-33 -8.5q-8 -3 -22.5 -9.5t-28.5 -18.5t-24.5 -30t-10.5 -45q0 -54 47.5 -88t128.5 -34q72 0 109.5 30.5t37.5 77.5z" />
    <glyph glyph-name="h" unicode="h" horiz-adv-x="562" 
d="M529 0h-165q14 17 18.5 26t4.5 29l4 188q1 48 -3 85.5t-29 60.5q-25 22 -60 22q-18 0 -32.5 -5.5t-26.5 -13t-20.5 -16t-14.5 -15.5q-12 -14 -18 -23.5t-11 -16.5l-2 -234q0 -27 3.5 -39.5t21.5 -17.5q3 -1 12 -2t19.5 -2.5t19.5 -3t13 -1.5l-34 -21h-174q14 18 18 26
t4 26l1 85q1 91 2 180t3 177q1 52 2 81.5t1.5 46.5t0.5 26.5v22.5l-79 -4l79 39h138q-21 -16 -27 -20.5t-9 -11.5q-4 -7 -5 -17t-2 -30q0 -7 -0.5 -24t-1 -36.5t-1 -37.5t-0.5 -25l-3 -127q9 10 23 25t35 29.5t49.5 24.5t66.5 10q20 0 48 -6.5t52 -31.5q27 -29 31.5 -61
t4.5 -65q0 -60 -1.5 -119t-3.5 -119v-5q0 -17 5 -21t10 -6q4 -1 14.5 -2.5t22.5 -3t22.5 -3t15.5 -1.5z" />
    <glyph glyph-name="i" unicode="i" horiz-adv-x="250" 
d="M223 0h-169q9 10 14.5 16.5t8 12.5t3.5 14t1 21v354h-75l67 35h120q-6 -8 -9 -13.5t-4.5 -10.5t-2.5 -11t-1 -16l-4 -290v-10t-0.5 -15t-0.5 -15.5v-10.5q0 -22 8.5 -27t31.5 -7l51 -4zM195 592q-8 -9 -14.5 -16t-14 -14t-17.5 -15.5t-25 -20.5q-12 11 -19.5 19t-14 15.5
t-12 14.5t-12.5 17q11 10 22.5 20t23.5 21l25 24l22 -27q2 -2 4 -4.5t4 -4.5z" />
    <glyph glyph-name="j" unicode="j" horiz-adv-x="229" 
d="M44 -263q2 6 2.5 12.5t1.5 13.5q6 41 8 75t4 74l5 216q0 39 0.5 66t0.5 56v67v101h-70l64 35h122q-5 -7 -8 -11t-4.5 -9t-2.5 -12.5t-2 -19.5l-7 -349q-2 -44 -5.5 -77t-11 -62.5t-20 -59.5t-31.5 -67zM175 592q-8 -9 -14 -15.5t-13.5 -13t-17 -14.5t-25.5 -21
q-11 12 -18.5 19.5t-13 14t-11.5 13t-14 17.5l19 17q9 9 14 13t13 11l22 21l21 -22q4 -5 7.5 -8.5t7.5 -8.5z" />
    <glyph glyph-name="k" unicode="k" horiz-adv-x="500" 
d="M437 95q16 -17 27.5 -28.5l21 -21t20.5 -20t27 -25.5q-11 -5 -19.5 -6.5t-24.5 -1.5q-29 0 -52 7.5t-42.5 20t-35.5 28.5t-31 32l-100 120q-20 23 -32 29.5t-27 6.5v-160q0 -26 5 -35.5t30 -12.5q14 -2 27.5 -4t27.5 -4l-34 -20h-175q10 13 15 21.5t7 23.5q0 3 0.5 23.5
t0.5 51t0.5 66.5t0.5 70t0.5 61t0.5 39q0 11 0.5 35.5t1.5 55t2 64.5t2 65.5t1.5 56t0.5 37.5h-79l79 36h138q-13 -9 -20.5 -15t-11.5 -10.5t-6 -8.5t-3 -10q-1 -5 -2 -21.5t-1.5 -39t-1.5 -48.5t-1.5 -49.5t-1 -42t-0.5 -25.5l-2 -180q30 20 50 33t37 24.5t34.5 24.5
t43.5 32l34 26q5 4 13.5 10.5t8.5 11.5t-16 7q-21 2 -42 3.5t-42 3.5l40 21h167q-24 -20 -41.5 -33.5t-30.5 -24t-23 -18t-19 -14.5q-23 -17 -47 -34t-47 -35l-15 -12q45 -48 73.5 -82t54.5 -65z" />
    <glyph glyph-name="l" unicode="l" horiz-adv-x="250" 
d="M228 0h-177q9 11 14 18t8 12t4 10t1 13v163q0 59 1 137t3 156q1 38 3 82t3 79h-78l75 36h143q-12 -7 -19.5 -12t-13 -11t-8.5 -14.5t-4 -21.5q-6 -58 -7.5 -146t-1.5 -195v-231q0 -29 7.5 -37.5t32.5 -10.5q13 -2 25.5 -2.5t25.5 -2.5z" />
    <glyph glyph-name="m" unicode="m" horiz-adv-x="875" 
d="M843 0h-163q8 9 13 15t7 12.5t3 14t1 19.5l1 205q0 25 -1 41t-2 26t-3 15.5t-3 9.5q-1 3 -5.5 11.5t-14 18t-24.5 17t-38 7.5q-26 0 -46 -9.5t-35.5 -23t-26.5 -28.5t-18 -25l-1 -84q-1 -36 -1.5 -62.5t-0.5 -57.5v-68q1 -14 7 -18t29 -7l55 -6l-43 -23h-166q7 7 11.5 13
t7 12t3.5 14.5t2 20.5l2 168q1 42 -1 75.5t-10 54.5q-10 26 -32 39.5t-51 13.5q-24 0 -42 -8t-33 -20.5t-27.5 -29t-24.5 -33.5v-254q0 -20 4.5 -27.5t25.5 -9.5l58 -6l-43 -23h-164q8 9 12.5 15t7.5 12.5t4 14.5t1 20l1 34v325h-75l67 32h123q-5 -5 -10 -9.5t-7 -10.5
t-2.5 -16.5t-1.5 -39.5q13 12 21.5 20t14.5 13t10 8.5t9 7.5q24 17 56.5 28.5t68.5 11.5t60 -10.5t38.5 -25t22 -30.5t11.5 -27q7 9 22 24.5t37.5 31t53 26.5t68.5 11q49 0 76 -18.5t39.5 -45.5t15 -56t2.5 -50v-21.5t-0.5 -35.5t-0.5 -36v-23v-102q0 -26 1 -32t3 -8
q3 -3 13 -5t17 -3l52 -7z" />
    <glyph glyph-name="n" unicode="n" horiz-adv-x="562" 
d="M529 0h-167q14 15 18.5 26t5.5 33l4 171q0 37 -0.5 61t-2.5 41t-7.5 28.5t-14.5 23.5q-6 9 -21 19t-41 10q-19 0 -34 -6t-26.5 -13.5t-19.5 -15.5t-11 -12q-6 -6 -17 -20.5t-20 -26.5l-6 -236q0 -17 0.5 -26.5t3.5 -15t10 -8t19 -3.5l58 -6l-41 -24h-168q9 9 14.5 15.5
t8.5 14t4 17t1 24.5q0 88 1 176t3 176h-75l67 31h120q-7 -8 -11 -14t-5.5 -13.5t-2 -19t-0.5 -29.5q17 17 30 29.5t27 22.5q22 16 52 28t65 12q42 0 73 -18.5t46 -49.5q13 -26 15 -57.5t2 -63.5l-5 -206q0 -27 4 -34.5t24 -9.5l62 -7z" />
    <glyph glyph-name="o" unicode="o" horiz-adv-x="562" 
d="M530 230q0 -44 -17 -87.5t-49 -78t-79.5 -56t-108.5 -21.5q-60 0 -105.5 21t-76 55t-46.5 76t-16 84q0 49 19 93t53.5 77.5t82 53t104.5 19.5q55 0 99.5 -20t75.5 -53t47.5 -75.5t16.5 -87.5zM299 17q29 0 57 13.5t45 37.5q18 24 24 53t6 58q0 33 -8.5 77t-28 84
t-51.5 67.5t-78 27.5q-25 0 -48.5 -9t-41.5 -25q-29 -26 -37.5 -58t-8.5 -64q0 -37 9.5 -82.5t30 -85.5t53 -67t77.5 -27z" />
    <glyph glyph-name="p" unicode="p" horiz-adv-x="542" 
d="M206 -262h-180q21 14 26.5 19t7.5 11q5 9 5.5 40t1.5 68q1 29 1.5 59t2.5 59l4 228q0 15 0.5 33.5t0.5 37.5t0.5 37.5t0.5 33.5q0 20 -1 31t-5.5 16.5t-14 7.5t-27.5 3q-9 1 -18 1.5t-18 2.5l40 27h139v-77q30 21 49.5 35t34 23t26.5 15t28 13q5 1 9.5 1h9.5
q30 0 61.5 -9.5t58 -31.5t43.5 -59t17 -91q0 -71 -26 -122.5t-61 -83.5q-30 -26 -60.5 -40.5t-63 -21.5t-66 -8.5t-67.5 -1.5l-6 -180q-1 -15 0 -24t4.5 -13.5t11 -7t19.5 -3.5q12 -2 23.5 -2.5t23.5 -2.5zM171 336q0 -12 -0.5 -37t-1 -57.5t-1 -68t-1.5 -68.5t-1.5 -59
t-0.5 -39l52 33q28 0 53 0.5t46 4t39 11.5t33 22q23 22 32.5 52t9.5 62q0 50 -14 88.5t-35.5 64.5t-47 39.5t-48.5 13.5q-29 0 -49.5 -13t-37.5 -28z" />
    <glyph glyph-name="q" unicode="q" horiz-adv-x="542" 
d="M512 -262h-177q19 18 23.5 22.5t7.5 9.5q3 7 3.5 16.5t1.5 26.5l4 212l-67 -24q-14 -1 -22.5 -1.5t-15.5 -0.5q-52 0 -96 14.5t-76 42.5t-50 68.5t-18 91.5q0 50 21 93.5t58 75.5t87 50.5t108 18.5h196q-10 -12 -16 -19.5t-9 -13t-3.5 -10.5t-0.5 -12v-35.5t0.5 -54.5
t0.5 -55v-37v-69.5t-1 -69.5l-3 -162q0 -29 -0.5 -56.5t-0.5 -57.5q0 -22 5 -27t11 -7q3 -1 11.5 -2.5t18.5 -3t19 -2.5t12 -2zM377 327v34t-1 21t-2 13t-4 10q-8 15 -24.5 18t-36.5 3t-44 -3t-49 -14q-48 -21 -70 -62.5t-22 -94.5q0 -42 13 -83t38 -71q23 -27 50 -41.5
t54 -21t52 -7t44 -0.5z" />
    <glyph glyph-name="r" unicode="r" horiz-adv-x="375" 
d="M237 0h-173q9 13 13.5 21.5t7 17t3 18.5t0.5 25v38t0.5 64t1 76.5t1 74.5t0.5 58v28h-77l68 32h121q-6 -7 -9 -11.5t-5 -9.5t-3 -10.5t-2 -13.5v-31q12 11 28.5 25.5t37.5 27t46.5 21.5t54.5 9q14 0 22 -2.5t14 -5.5l-41 -102l-28 -16l8 48q-7 4 -13.5 6.5t-21.5 2.5
q-28 0 -54.5 -15t-52.5 -52l-2 -251q0 -29 9 -35t30 -8l53 -2z" />
    <glyph glyph-name="s" unicode="s" horiz-adv-x="375" 
d="M252 261q24 -13 48.5 -30.5t37.5 -53.5q7 -17 7 -37q0 -30 -12 -57.5t-36 -49t-59.5 -34t-81.5 -12.5q-16 0 -39 2t-52 10q-27 8 -43.5 15.5t-30.5 15.5l62 64l34 6l-21 -33q28 -19 55 -33t65 -14q24 0 40 7t25.5 17.5t14 23.5t4.5 25q0 19 -7 32.5t-17.5 23.5t-24 17
t-25.5 13l-71 32q-14 8 -27 15t-24 18q-14 14 -23 34.5t-9 45.5t11 50t32.5 45.5t55 33.5t78.5 13q35 0 67.5 -8t63.5 -22l-45 -59l-37 -15l18 37q-21 12 -45.5 23.5t-53.5 11.5q-20 0 -33.5 -6.5t-21.5 -16.5t-11.5 -22t-3.5 -22q0 -17 6 -29t15.5 -21t21 -15t21.5 -10z
" />
    <glyph glyph-name="t" unicode="t" horiz-adv-x="292" 
d="M258 3q-5 -2 -11 -3t-11 -3q-26 -6 -50 -6q-39 0 -60.5 12.5t-31.5 30t-11.5 35.5t-1.5 29l6 321h-60l60 34v70q16 6 27 10t20.5 8t20.5 8.5t28 11.5v-108h142l-52 -34h-90l-4 -184v-32t0.5 -41.5t1 -41t1.5 -30.5q1 -13 5 -24.5t11.5 -20t20.5 -13.5t34 -5
q12 0 23.5 1.5t23.5 3.5z" />
    <glyph glyph-name="u" unicode="u" horiz-adv-x="562" 
d="M563 0q-2 -1 -27 -8t-54 -7t-46.5 8.5t-28 20t-14.5 23t-6 18.5q-3 -2 -9.5 -7t-14.5 -10t-15 -10t-10 -7q-25 -16 -53 -25.5t-65 -9.5q-47 0 -84 19t-53 63q-2 6 -4.5 14.5t-4 24.5t-2.5 43t-1 71q0 29 1.5 82.5t4.5 115.5h-85l66 34h135q-9 -11 -14 -19t-7.5 -16.5
t-3.5 -20t-1 -30.5l-1 -88v-66.5t0.5 -39.5t1 -22.5t1.5 -14.5q1 -9 4 -23.5t13 -29t29.5 -24.5t54.5 -10q39 0 67 12t50 26q0 92 1 174t3 158h-76l60 34h134q-9 -10 -13.5 -17.5t-7 -15t-3.5 -17.5t-1 -25l-2 -144q0 -15 -0.5 -33t-0.5 -34.5t0.5 -31t0.5 -23.5
q1 -20 3.5 -36.5t10.5 -28.5t23 -19t41 -7q10 0 20.5 0.5t18.5 1.5z" />
    <glyph glyph-name="v" unicode="v" horiz-adv-x="437" 
d="M438 453q-7 -10 -11 -17t-7.5 -14.5t-7.5 -17t-10 -25.5q-17 -46 -29 -79t-22 -60t-19.5 -50t-20 -49t-23.5 -56.5t-31 -72.5l-88 -26q-21 57 -41.5 114.5t-40.5 116.5q-16 48 -31.5 95.5t-32.5 94.5l-4 11h-66l61 35h121q-8 -14 -10 -18t-2 -9q0 -4 3 -15.5t7 -25
t7.5 -25.5t5.5 -18l61 -185l33 -97l39 93q21 54 35.5 91.5t24.5 67t17.5 54t14.5 52.5h-99l58 35h108z" />
    <glyph glyph-name="w" unicode="w" horiz-adv-x="771" 
d="M768 453l-10 -15t-7 -11t-5 -9.5t-5 -11.5q-6 -19 -11.5 -34t-10 -29t-9 -27t-8.5 -28q-12 -36 -25.5 -75t-27 -75.5t-26.5 -70t-24 -58.5l-96 -25l-10 24t-12 32q-13 35 -24 71t-22 71q-12 39 -20 63.5t-13 42t-8 31t-6 29.5q-6 -23 -11 -41.5t-11.5 -38.5t-15 -45
t-21.5 -60q-15 -41 -24 -66t-15 -40.5t-10 -26.5t-9 -24l-97 -22q-39 113 -74.5 219.5t-65.5 210.5h-67l70 39h115q-9 -19 -11.5 -24.5t-2.5 -10.5q0 -9 3.5 -24.5t8 -33t10 -34.5t8.5 -29l34 -108l48 -145q6 17 15 40.5t16 40.5l33 101q2 7 7.5 25.5t12 39.5t12 40t7.5 27
q4 13 6 21.5t3.5 14.5t2.5 11.5t3 13.5h-68l64 34h115q-10 -20 -12.5 -27.5t-2.5 -15.5q0 -4 0.5 -7t1.5 -8q0 -3 1 -6.5t3 -11t6 -21t11 -35.5l29 -97q8 -23 14.5 -45t14.5 -45q6 -21 10.5 -34t8.5 -22.5t7 -17t8 -16.5q8 18 13.5 31.5t10.5 27.5t11 30.5t14 42.5l15 49
q8 26 15.5 51t15.5 51q9 34 14 53.5t9 38.5h-93l62 34h102z" />
    <glyph glyph-name="x" unicode="x" horiz-adv-x="479" 
d="M333 173q17 -24 34.5 -47.5t36.5 -46.5q4 -5 14.5 -17.5t22.5 -27t22.5 -27.5t15.5 -19q-31 0 -57 3.5t-50 15.5t-47.5 34t-49.5 59l-28 41l-24 37l-49 -54q-10 -11 -19.5 -22t-19.5 -22q-14 -16 -18.5 -23t-4.5 -14q0 -9 6.5 -11.5t11.5 -3.5q17 -2 32.5 -2.5t31.5 -1.5
l-42 -24h-154q21 18 34 29t26.5 23.5t31 31t49.5 50.5l65 72l-78 116q-20 29 -36 52t-34 46h-62l62 33h124q-8 -11 -10 -15.5t-2 -9.5t2.5 -10t5.5 -9l89 -135l57 65q7 9 14 17.5t15 17.5q20 25 20 33q0 11 -11 13t-16 2q-1 0 -9 -0.5t-17.5 -0.5t-18 -0.5t-10.5 -0.5l60 33
h122l-23 -16l-17 -17t-16.5 -17.5t-19 -22t-25.5 -30.5l-86 -105z" />
    <glyph glyph-name="y" unicode="y" horiz-adv-x="437" 
d="M208 -264h-120q6 6 11 11.5t9.5 12.5t9.5 17t13 25l64 135q6 13 10.5 22t7.5 15.5l6 13t6 14.5l-50 -16q-14 36 -30.5 83t-31.5 91t-26.5 77.5t-14.5 42.5q-12 37 -19 59t-12 36t-8.5 23.5t-7.5 21.5h-71l62 33h122q-8 -16 -9.5 -20.5t-1.5 -9.5q0 -9 5.5 -27t9.5 -29
q8 -23 14.5 -45t13.5 -44l55 -164q6 -18 10.5 -30.5t10.5 -28.5l41 98q14 35 27.5 69.5t27.5 69.5q14 37 24 66t17 62h-93l59 33h103q-6 -8 -10 -12.5t-7 -9t-5.5 -10.5t-6.5 -16q-18 -48 -31 -82t-24 -62t-21 -54t-23.5 -58t-31 -74l-42.5 -102q-19 -45 -37 -89t-37 -89
q-1 -4 -2 -7.5t-1 -7.5q0 -9 11 -14q6 -2 18.5 -4t45.5 -5z" />
    <glyph glyph-name="z" unicode="z" horiz-adv-x="417" 
d="M347 -13l-38 -12l26 28l-341 -8q18 24 29 38.5t19.5 26t17 22.5t20.5 28l105 152q24 34 41 59t30 43.5t22.5 33t18.5 28.5l-166 -4l-59 -43l-47 -15l94 94l33 7q0 -9 5 -10q3 -2 16 -2l248 6q-8 -11 -14.5 -21l-13 -20t-14 -21t-17.5 -26l-27 -39q-16 -25 -27 -42
t-23.5 -36t-29.5 -44.5t-45 -66.5q-15 -22 -25.5 -38t-19.5 -29t-17.5 -25t-18.5 -25l147 4q34 1 56 3t37 5.5t27 8t27 12.5l-14 -23z" />
    <glyph glyph-name="braceleft" unicode="{" horiz-adv-x="354" 
d="M73 361q25 3 39.5 12t21 23.5t8 33.5t1.5 43v86q1 29 2 45t6 31q11 27 35 43.5t53 22.5q6 1 12 1.5t15 1.5t23 1.5t36 1.5v-15q-17 -3 -30.5 -6t-25.5 -9q-16 -8 -25 -18t-13 -22.5t-5 -28t-1 -34.5v-59q0 -48 -1.5 -70.5t-7.5 -37.5q-12 -30 -34.5 -40t-42.5 -14
q17 -4 40 -13.5t36 -35.5q7 -16 8.5 -38t2.5 -66v-67q0 -20 1 -35.5t7 -29.5q13 -28 38 -37.5t53 -15.5v-15q-54 2 -88.5 7t-59.5 27q-24 20 -28 45.5t-5 58.5v90v26.5t-0.5 17.5t-1.5 12l-2 10q-5 15 -12.5 24.5t-17 15.5t-19 8.5t-18.5 4.5v14z" />
    <glyph glyph-name="bar" unicode="|" horiz-adv-x="229" 
d="M85 -250v1000h60v-1000h-60z" />
    <glyph glyph-name="braceright" unicode="}" horiz-adv-x="354" 
d="M284 346q-26 -3 -40 -12t-20.5 -23.5t-8 -33.5t-1.5 -43v-86q-1 -30 -2 -45.5t-6 -30.5q-11 -27 -35 -43.5t-53 -22.5l-12 -2t-15 -1.5t-23 -1t-36 -1.5v15q17 3 30.5 6t25.5 9q16 8 25 18t13 22.5t5 28t1 34.5v59q0 24 0.5 41t1 29t2.5 21t5 17q6 15 15 24.5t19.5 15
t21.5 8.5t21 5q-17 5 -40 14.5t-36 35.5q-8 16 -9 38t-2 66v67q0 20 -1 35.5t-7 29.5q-13 28 -38 37.5t-53 15.5v15q54 -2 88.5 -7t59.5 -27q24 -20 28 -45.5t5 -58.5v-90v-27t0.5 -17t1 -12t2.5 -10q4 -15 12 -24.5t17.5 -15.5t19 -8.5t18.5 -4.5v-14z" />
    <glyph glyph-name="asciitilde" unicode="~" horiz-adv-x="729" 
d="M595 300q-25 -31 -55.5 -54t-72.5 -23q-23 0 -43 7.5t-53 23.5l-30 15q-16 8 -38 16.5t-45 8.5q-21 0 -37 -9q-6 -3 -10.5 -6.5t-10 -9t-13 -15t-20.5 -25.5l-33 55q6 9 16.5 22.5t25.5 26t35 21.5t46 9q29 0 56.5 -10.5t56.5 -24.5l32 -15q25 -11 38 -15.5t27 -4.5
q18 0 34 7.5t28 17.5t21 20.5t14 16.5z" />
    <glyph glyph-name="exclamdown" unicode="&#xa1;" horiz-adv-x="292" 
d="M71 651q10 10 17.5 18t16 15.5t18 15t23.5 18.5l16 -16t13.5 -14.5t14 -17t17.5 -22.5l-56 -49l-19 -18l-20 25zM80 314q1 25 2 43t1.5 33.5t1 29.5t0.5 32l36 8l56 17v-71t-1 -60.5t-2 -62.5t-2 -77q0 -12 -1 -30.5t-2 -41t-2.5 -46.5t-2.5 -47l-101 -47q2 39 3.5 73
t4.5 78z" />
    <glyph glyph-name="cent" unicode="&#xa2;" horiz-adv-x="417" 
d="M380 24q-5 -2 -10 -5t-10 -5q-33 -16 -64.5 -20t-54.5 -5v-19l-33 -76v95q-14 3 -33 8t-42 19q-26 16 -45 39.5t-31.5 50.5t-18.5 56t-6 57q0 13 4 44t22 67t55.5 70t105.5 55v26l33 48v-68q5 1 10.5 1.5t13.5 1.5t17.5 1h21.5q38 0 59.5 -3t39.5 -7l-78 -83l-41 -15
l37 47q-18 11 -34.5 17t-45.5 6l-8 -235q-1 -28 -1.5 -47.5t-1 -34.5t-0.5 -27.5v-27.5q11 -5 25.5 -10t42.5 -5q39 0 67 11t56 25zM208 76q0 6 1 31.5t2 62t2.5 77.5t2.5 77.5t2 63.5t1 35q-12 -4 -25 -9.5t-29 -19.5q-23 -21 -36.5 -55t-13.5 -76q0 -46 17 -89
q16 -42 36 -62.5t40 -35.5z" />
    <glyph glyph-name="sterling" unicode="&#xa3;" horiz-adv-x="729" 
d="M279 333q-5 -51 -11.5 -89t-20.5 -69.5t-37 -58.5t-60 -56q35 -9 72 -14.5t72.5 -9t67.5 -4.5t57 -1q39 0 83 5t77 22q30 16 40 34.5t15 35.5q13 1 25.5 2t25.5 3q20 3 34.5 4.5t21.5 2.5q1 -10 0 -19q-2 -22 -24 -48t-69 -43q-33 -12 -81.5 -18t-105 -8.5t-116.5 -3
t-116 -0.5h-209l83 60q14 11 24.5 22t18 24.5t12.5 31.5t7 43l11 152h-174l51 32h126q3 34 7 67.5t11.5 65t20.5 61t35 56.5q37 46 95 74t125 28q48 0 77.5 -12t43.5 -23q19 -15 30 -31.5t16 -32.5t6.5 -30t1.5 -24l-104 -31q2 11 3.5 20t1.5 22q0 51 -25.5 80t-69.5 29
q-26 0 -51.5 -10.5t-44.5 -30.5q-19 -19 -30.5 -43.5t-19 -50t-11.5 -51.5t-7 -48l-8 -85h200l-48 -32h-155z" />
    <glyph glyph-name="currency" unicode="&#xa4;" horiz-adv-x="667" 
d="M536 496q7 -9 16.5 -23t17.5 -33t14 -44t6 -58q0 -32 -6 -57t-15 -44t-18.5 -32.5t-15.5 -22.5l74 -75l-46 -45l-73 75l-30 -20t-33 -17.5t-41 -12t-53 -4.5q-29 0 -51.5 4.5t-40.5 12t-33.5 17t-30.5 20.5l-74 -73l-45 45l74 73q-11 16 -20.5 31.5t-17.5 34t-12.5 41
t-4.5 51.5q0 31 6 56t14.5 44t18 33t16.5 23l-73 73l45 45l73 -73q12 9 27 18.5t34 17.5t43 13.5t54 5.5t54.5 -5.5t43.5 -14t33 -18t25 -16.5l73 73l46 -46zM335 142q40 0 75.5 14.5t61.5 41t41.5 62.5t15.5 80q0 45 -16 81.5t-43 62t-62 39.5t-72 14q-39 0 -75 -14
t-63.5 -39.5t-43.5 -62.5t-16 -82q0 -41 15 -77t41 -62.5t62.5 -42t78.5 -15.5z" />
    <glyph glyph-name="yen" unicode="&#xa5;" horiz-adv-x="625" 
d="M270 247h-201l59 33h142v9l-29 45h-172l59 33h92l-40 64q-22 32 -43 63.5t-43 63.5q-4 6 -15 21.5t-23.5 33t-24 33.5t-15.5 22h-87l70 39h173q-18 -19 -22.5 -24t-4.5 -10q0 -3 1 -6.5t2 -5.5q2 -5 8 -16t15 -26t19.5 -32t21.5 -33l43 -65q3 -5 11.5 -17.5t18.5 -26.5
t19 -27t13 -18q1 -2 5.5 -9t9.5 -14t9 -13t5 -7l66 94q17 26 34.5 53t34.5 53q16 24 26 40.5t17.5 28.5t13 21.5t11.5 20.5h-122l68 39h160l-38 -28q-8 -6 -13.5 -11t-10 -10t-9.5 -12t-12 -17l-172 -262h166l-59 -33h-129l-6 -9v-45h194l-59 -33h-135v-175q0 -17 3.5 -23.5
t14.5 -9.5q14 -5 40.5 -8t57.5 -6l-45 -25h-204l22 34q6 11 7 17t2 18v178z" />
    <glyph glyph-name="brokenbar" unicode="&#xa6;" horiz-adv-x="229" 
d="M145 175v-350h-60v350h60zM145 675v-350h-60v350h60z" />
    <glyph glyph-name="section" unicode="&#xa7;" horiz-adv-x="479" 
d="M339 398q16 -7 35 -17t35.5 -24.5t27 -35.5t10.5 -51t-10 -53.5t-24 -41t-29 -29.5t-25 -19q10 -8 22.5 -19.5t23.5 -27.5t18.5 -36.5t7.5 -47.5q0 -33 -13 -64.5t-39.5 -56t-65.5 -39.5t-90 -15q-22 0 -45.5 3.5t-46 12.5t-42 24t-34.5 38q-14 23 -17 40.5t-5 31.5
l104 29q-1 -8 -1.5 -16.5t-0.5 -17.5q0 -31 8 -53t21.5 -36.5t31 -21t35.5 -6.5q25 0 44 11t32 28t19 37.5t6 39.5q0 33 -13 56t-31 39t-38.5 26.5t-35.5 16.5l-66 24q-17 7 -37 17t-37.5 25.5t-29.5 38t-12 54.5q0 31 10 55t24.5 42t29 30t23.5 19q-4 4 -7.5 7t-6.5 7
q-23 23 -36.5 54t-13.5 62q0 26 11.5 56.5t36.5 56.5t65.5 43.5t97.5 17.5q20 0 52.5 -5t64.5 -28q21 -15 33.5 -32t18.5 -33t7.5 -30t2.5 -23l-99 -27q1 8 1.5 16.5t0.5 17.5q0 24 -6.5 44.5t-19.5 36t-31 24.5t-40 9q-23 0 -42 -8.5t-33 -23.5t-22 -35t-8 -42
q0 -15 6.5 -39.5t30.5 -50.5q19 -21 41.5 -33.5t44.5 -22.5zM332 145q11 10 25 27t14 46q0 8 -3 22t-14 32q-17 27 -44.5 44t-69.5 35q-25 10 -39.5 15.5t-23.5 9t-15.5 6.5t-15.5 8q-13 -12 -25 -28.5t-12 -44.5q0 -29 13.5 -50.5t33 -37.5t41 -26.5t38.5 -17.5
q19 -7 31.5 -11.5t22.5 -8.5t19.5 -8.5t23.5 -11.5z" />
    <glyph glyph-name="dieresis" unicode="&#xa8;" 
d="M235 529q-10 10 -16.5 17.5t-12 15t-11.5 16.5t-15 22q13 10 21.5 16.5t15.5 12.5t14.5 12.5t18.5 16.5l15 -20t11.5 -14.5t12 -14.5t17.5 -20q-11 -11 -19 -18t-15.5 -13t-16 -13t-20.5 -16zM23 528q-11 10 -18 17.5t-13 14.5t-12 15.5t-15 21.5q12 9 20 16t15.5 13.5
t15 13.5t18.5 17q10 -12 16.5 -20t12.5 -15t13 -14.5t16 -17.5l-18.5 -18.5t-15 -14t-15.5 -13.5t-20 -16z" />
    <glyph glyph-name="copyright" unicode="&#xa9;" horiz-adv-x="833" 
d="M593 264v-128l-75 -7q-26 -3 -56.5 -6t-47.5 -3t-36.5 2t-42.5 9q-15 4 -31 11t-31 19t-29 30.5t-24 44.5q-12 30 -16.5 65t-4.5 59q0 42 7.5 74t16.5 49q23 50 72.5 73t111.5 23q9 0 17 -0.5t19 -1t26.5 -2t39.5 -3.5l69 -4l12 -132h-24q-4 17 -10 37.5t-16 35.5
q-2 4 -8.5 12t-18 16t-29 14.5t-41.5 6.5q-21 0 -42 -5t-39 -17q-19 -13 -31.5 -31.5t-19.5 -40.5t-10 -45.5t-3 -46.5q0 -28 3 -55q1 -18 6 -47.5t19.5 -58t42 -49.5t74.5 -21q40 0 63.5 12.5t36.5 31t18 40t8 39.5h24zM772 353q0 -74 -27 -139t-75 -113t-113 -76t-141 -28
q-71 0 -135 26t-113 73.5t-78 113t-29 143.5q0 76 28 141t76.5 113t113 75t138.5 27q77 0 142 -28t112.5 -76.5t74 -113.5t26.5 -138zM740 352q0 67 -24.5 126.5t-67 103.5t-101.5 69.5t-128 25.5t-129 -25.5t-103.5 -70t-68.5 -103t-25 -124.5q0 -70 26 -129.5t70 -103
t103 -68t125 -24.5q56 0 108 18t96 53q34 27 56.5 59t36.5 66t20 66.5t6 60.5z" />
    <glyph glyph-name="ordfeminine" unicode="&#xaa;" horiz-adv-x="292" 
d="M237 558q8 -29 17.5 -58.5t20.5 -49.5q5 -9 9 -14.5t15 -18.5q-13 -2 -17.5 -2.5t-8.5 -0.5q-14 0 -35.5 8.5t-38.5 37.5l-24 -24q-11 -6 -29.5 -14.5t-48.5 -8.5q-41 0 -61 20.5t-20 47.5t16 47.5t38 35.5t45.5 24.5t38.5 14.5q-8 26 -13.5 38.5t-14.5 23.5
q-6 7 -12 10.5t-16 5t-24.5 1.5t-37.5 -1l66 28q33 0 52.5 -4t32 -15.5t20.5 -32.5t18 -55zM192 476q-3 8 -5 14t-4.5 14t-5.5 20.5t-9 33.5q-4 14 -5.5 16.5t-5.5 2.5t-16 -5t-24.5 -15t-22.5 -23.5t-10 -31.5q0 -26 18 -36.5t37 -10.5q29 0 53 21z" />
    <glyph glyph-name="guillemotleft" unicode="&#xab;" horiz-adv-x="437" 
d="M414 89l-28 -26l-203 197l204 191l27 -26l-174 -165zM253 90l-30 -26l-201 196l205 193l27 -27l-175 -166z" />
    <glyph glyph-name="logicalnot" unicode="&#xac;" horiz-adv-x="667" 
d="M607 262h-607v59h667v-321h-60v262z" />
    <glyph glyph-name="registered" unicode="&#xae;" horiz-adv-x="833" 
d="M650 241q-3 -12 -8 -31.5t-14 -37.5t-24 -31.5t-37 -13.5q-12 0 -26 5t-23 15q-15 15 -23.5 43.5t-16.5 57.5q-6 27 -11.5 46t-14 31t-22 18t-35.5 8h-34v-121q0 -18 1 -29.5t5.5 -18.5t15 -10.5t30.5 -6.5v-34q-25 2 -40.5 2h-38.5q-24 0 -46.5 -0.5t-46.5 -1.5v34
q17 2 26 4.5t14 9.5q2 3 3 5.5t2 8t1 14.5v24v260q0 14 -0.5 23.5t-5 15.5t-13.5 9t-27 4v34q21 -1 34.5 -1.5t23 -0.5h16h13.5q6 0 22 0.5t34 0.5t34 0.5t23 0.5q29 0 55 -3t46 -14q23 -12 38.5 -35t15.5 -55q0 -14 -4.5 -30t-16.5 -31t-33 -27t-55 -17q16 -5 26 -14.5
t17 -21.5t10.5 -24.5t6.5 -22.5l9 -39q7 -26 12 -39t17 -13q9 0 18 10t16 45zM361 395h35q24 0 35.5 1t22.5 3q24 5 44 21.5t20 48.5q0 22 -11 39q-15 22 -37.5 26.5t-41.5 4.5q-25 0 -38.5 -2.5t-20 -10t-7.5 -20t-1 -33.5v-78zM773 354q0 -75 -27.5 -140t-75.5 -113
t-113 -76t-141 -28q-70 0 -134 26t-113 73t-78.5 112.5t-29.5 144.5q0 77 28.5 142t77 112.5t113 74.5t136.5 27q77 0 142.5 -28t113 -76.5t74.5 -113t27 -137.5zM416 29q69 0 128.5 25.5t103 69t68.5 102.5t25 127q0 67 -24.5 126t-67.5 103t-102.5 69.5t-128.5 25.5
t-128 -25.5t-103 -69.5t-69 -103t-25 -126q0 -68 25.5 -127.5t69.5 -103t102.5 -68.5t125.5 -25z" />
    <glyph glyph-name="macron" unicode="&#xaf;" 
d="M220 556h-232l64 36h232z" />
    <glyph glyph-name="degree" unicode="&#xb0;" horiz-adv-x="354" 
d="M177 748q31 0 57.5 -11.5t46.5 -31.5t31.5 -47t11.5 -57t-11.5 -57t-31.5 -47t-46.5 -31.5t-57.5 -11.5q-30 0 -57 11.5t-47 31.5t-31.5 47t-11.5 57q0 31 11.5 57.5t31.5 46.5t47 31.5t57 11.5zM177 688q-37 0 -62 -25.5t-25 -61.5t25 -61.5t62 -25.5q36 0 61.5 25.5
t25.5 61.5t-25.5 61.5t-61.5 25.5z" />
    <glyph glyph-name="plusminus" unicode="&#xb1;" horiz-adv-x="500" 
d="M281 152h-59v190h-191v59h191v190h59v-190h188v-59h-188v-190zM469 0h-438v59h438v-59z" />
    <glyph glyph-name="twosuperior" unicode="&#xb2;" horiz-adv-x="333" 
d="M10 607q18 18 33 32t29.5 26t29 22.5t32.5 20.5q12 2 20.5 3.5t22.5 1.5q30 0 50.5 -8.5t33.5 -22.5t18.5 -32t5.5 -37q0 -50 -34 -104t-101 -130q-3 -3 -10 -11t-14.5 -17t-14.5 -17t-10 -11q14 -2 29.5 -3.5t30 -2.5t26 -1h17.5q27 0 44.5 1.5t28.5 4t18.5 6t13.5 7.5
l-9 -26l-49 -57l-31 -6l14 21q-23 -2 -50 -3t-44 -1q-23 0 -56 2t-66 7q20 20 39 42.5t37 45.5q20 25 41.5 53t39.5 57.5t30 58.5t12 56q0 15 -4.5 29t-13 25.5t-21.5 18.5t-30 7q-29 0 -46.5 -14t-27.5 -25z" />
    <glyph glyph-name="threesuperior" unicode="&#xb3;" horiz-adv-x="333" 
d="M2 608q18 18 33 32t29 26t28.5 22.5t31.5 21.5q9 2 18.5 3t22.5 1q21 0 39 -5q33 -9 45.5 -31t12.5 -40q0 -19 -8 -34t-18.5 -27t-22 -20.5t-18.5 -13.5l19 -9.5t23 -16.5q32 -30 32 -75q0 -33 -15.5 -61t-41 -51t-57.5 -40.5t-65 -29.5l-80 -5q28 11 45.5 18.5t30 13.5
t21.5 11t20 13q29 20 50 48.5t21 63.5q0 16 -5 30.5t-17 26t-32 18.5t-50 8l20 29q39 2 62 27t23 51q0 13 -5.5 23t-14.5 16t-19.5 9t-20.5 3q-21 0 -39.5 -10t-31.5 -27z" />
    <glyph glyph-name="acute" unicode="&#xb4;" 
d="M207 573l-213 -48l68 50l215 49z" />
    <glyph glyph-name="mu" unicode="&#xb5;" horiz-adv-x="562" 
d="M192 453q-8 -11 -13 -18.5t-7.5 -16.5t-3.5 -20.5t-1 -30.5l-1 -86q-1 -70 0 -117q2 -27 6 -47.5t15 -34.5q17 -20 42.5 -26.5t44.5 -6.5q38 0 67 13.5t46 24.5q0 92 1 174t3 158h-76l60 34h134q-7 -9 -11.5 -15.5t-7.5 -14t-4 -18t-2 -27.5l-2 -144q0 -11 -0.5 -36.5
t-0.5 -48.5q0 -34 2.5 -58.5t11 -40t24 -22.5t42.5 -7q10 0 19 0.5t19 1.5l-36 -23q-25 -8 -45 -11.5t-36 -3.5q-29 0 -46.5 8.5t-28 20t-14.5 23.5l-6 18q-3 -2 -9.5 -7t-14.5 -10t-15 -10t-10 -7q-26 -17 -55 -26t-61 -9q-30 0 -43 7.5t-18 12.5l-1 -192q0 -15 0.5 -24
t4 -13.5t10.5 -7t20 -3.5q6 -1 21.5 -2.5t25.5 -2.5l-35 -23h-180q17 11 21 14.5t7 6.5t4.5 5.5t3 7.5t2 14t1.5 25q1 19 1 43v48.5t0.5 48.5t0.5 43l3 213q0 44 0.5 75.5t1.5 55.5t2 43l2 38h-85l66 34h134z" />
    <glyph glyph-name="paragraph" unicode="&#xb6;" horiz-adv-x="667" 
d="M531 706v-44h-33v-829h-46v829h-157v-829h-46v497q-25 5 -54 13.5t-58 40.5q-25 26 -36 61t-11 67q0 25 8 58t31 62q20 26 44 41t48 22t47 9t42 2h221z" />
    <glyph glyph-name="periodcentered" unicode="&#xb7;" horiz-adv-x="250" 
d="M192 261q-9 -10 -16.5 -17.5t-15.5 -15t-18 -16t-24 -19.5q-9 9 -15 14.5t-12 12t-14 16t-21 25.5l27 24l47 45l22 -27l16 -18z" />
    <glyph glyph-name="cedilla" unicode="&#xb8;" 
d="M150 -57q8 -4 12 -7q17 -12 29 -33.5t12 -48.5q0 -21 -8.5 -44t-25.5 -45q-3 -3 -8 -9t-11 -11.5t-11 -10t-7 -5.5l-64 -28q11 9 23.5 20t23 24.5t17.5 29.5t7 35t-6 32t-15.5 22t-21 14.5t-21.5 10.5q11 16 19.5 30t16 27.5t15 28.5t16.5 34h41z" />
    <glyph glyph-name="onesuperior" unicode="&#xb9;" horiz-adv-x="333" 
d="M57 617q30 18 49 29.5t35.5 22t36 24t51.5 35.5l-9 -29q-2 -10 -3.5 -16.5t-1.5 -19.5l-8 -348q0 -15 4 -18.5t19 -5.5l44 -4l-37 -22h-118q13 16 16 21.5t4 17.5l5 281q0 15 0.5 24.5t0.5 14.5v8v6l-35 -22l-58 -13z" />
    <glyph glyph-name="ordmasculine" unicode="&#xba;" horiz-adv-x="354" 
d="M334 565q0 -28 -10.5 -55.5t-31 -49t-50.5 -35t-68 -13.5t-66.5 13.5t-48 34.5t-29.5 47.5t-10 53.5q0 31 12 58.5t33.5 48.5t52 33.5t66.5 12.5q34 0 62 -12.5t47.5 -33t30 -47.5t10.5 -56zM188 439q17 0 33 7.5t26 21.5q11 14 14.5 31.5t3.5 35.5t-5 44t-16.5 50
t-30 41t-46.5 17q-2 0 -14.5 -1.5t-27 -10.5t-26 -27.5t-11.5 -52.5q0 -21 5.5 -48t17.5 -51t31 -40.5t46 -16.5z" />
    <glyph glyph-name="guillemotright" unicode="&#xbb;" horiz-adv-x="437" 
d="M24 427l27 26l204 -197l-203 -191l-29 26l175 165zM184 426l30 26l202 -196l-205 -193l-27 27l175 166z" />
    <glyph glyph-name="onequarter" unicode="&#xbc;" horiz-adv-x="792" 
d="M756 22l-30 -22h-104q5 9 8 14.5t4.5 10t2.5 8.5t1 11l1 88q-7 0 -26 0.5t-44.5 0.5t-54 -0.5t-52.5 -1.5q22 39 35.5 63t23.5 41t19 31.5t21 34.5q21 35 42 68.5t44 67.5l61 13q-1 -10 -1.5 -19t-1 -20t-1 -26.5t-1.5 -38.5l-4 -164h27q16 0 31.5 0.5t31.5 0.5l-70 -54
q-7 1 -11.5 1t-9.5 1v-80q0 -17 2 -20.5t16 -5.5zM645 384q-20 -33 -34 -56t-26.5 -44t-25.5 -44t-31 -56h111zM57 617q30 18 49 29.5t35.5 22t36 24t51.5 35.5l-9 -29q-2 -10 -3.5 -16.5t-1.5 -19.5l-8 -348q0 -15 4 -18.5t19 -5.5l44 -4l-37 -22h-118q13 16 16 21.5
t4 17.5l5 281q0 15 0.5 24.5t0.5 14.5v8v6l-35 -22l-58 -13zM667 718q-15 -19 -28.5 -37.5t-28.5 -39.5t-31.5 -45t-36.5 -54q-29 -42 -56 -83t-54 -83q-30 -47 -59.5 -92.5t-59.5 -92.5q-29 -45 -47 -73t-30 -47t-21.5 -34.5t-22.5 -36.5l-49 -12q4 7 7.5 13t7.5 12
q29 45 56.5 90.5t55.5 90.5q34 55 78 122.5t90.5 137.5t91.5 136t82 118z" />
    <glyph glyph-name="onehalf" unicode="&#xbd;" horiz-adv-x="792" 
d="M57 617q30 18 49 29.5t35.5 22.5l36 24t51.5 36l-9 -30q-2 -10 -3.5 -16.5t-1.5 -19.5l-8 -347q0 -16 4 -19.5t19 -5.5l44 -4l-37 -22h-118q13 16 16 21.5t4 17.5l5 282q0 15 0.5 24t0.5 14v8.5v6.5l-35 -23l-58 -13zM668 718q-15 -19 -29 -37.5t-29 -39.5t-31.5 -45
t-36.5 -54q-28 -42 -55.5 -82.5t-54.5 -82.5q-30 -47 -59.5 -93t-59.5 -93q-29 -45 -47 -72.5t-30 -46.5t-21.5 -34.5t-22.5 -36.5l-49 -12q4 6 7.5 12t7.5 13q29 45 56.5 90t55.5 90q34 55 78 122.5t90.5 137.5t91.5 136t82 119zM468 343q18 18 33 32t29.5 26t29 22.5
t32.5 20.5q12 2 20.5 3.5t22.5 1.5q30 0 50.5 -8.5t33.5 -22.5t18.5 -32t5.5 -37q0 -50 -34 -104.5t-101 -130.5q-3 -3 -10 -10.5t-15 -16.5t-15 -17t-10 -11q15 -2 30.5 -3.5t30 -2.5t26 -1h17.5q27 0 44.5 1.5t28.5 4t18.5 6t13.5 6.5l-9 -25l-49 -57l-31 -6l14 21
q-22 -2 -49.5 -3t-44.5 -1q-32 0 -63 2t-60 7q21 20 40 42.5t37 45.5q20 25 41.5 53t39.5 57t30 58t12 56q0 30 -17 55.5t-52 25.5q-29 0 -46.5 -14.5t-27.5 -25.5z" />
    <glyph glyph-name="threequarters" unicode="&#xbe;" horiz-adv-x="792" 
d="M756 22l-30 -22h-104q5 9 8 14.5t4.5 10t2.5 8.5t1 11l1 88q-7 0 -26 0.5t-44.5 0.5t-54 -0.5t-52.5 -1.5q22 39 35.5 63t23.5 41t19 31.5t21 35.5q21 34 42 67.5t44 67.5l61 13q-1 -10 -1.5 -18.5t-1 -20t-1 -27t-1.5 -38.5l-4 -164h27q16 0 31.5 0.5t31.5 0.5l-70 -54
q-7 1 -11.5 1t-9.5 1v-80q0 -17 2 -20.5t16 -5.5zM645 384q-20 -33 -34 -56t-26.5 -44t-25.5 -44t-31 -56h111zM2 609q18 18 33 32t29 25.5t28.5 22t31.5 21.5q9 2 18.5 3t22.5 1q21 0 39 -5q33 -9 45.5 -31t12.5 -40q0 -19 -8 -34t-18.5 -27t-22 -20.5t-18.5 -13.5l19 -9.5
t23 -16.5q32 -30 32 -75q0 -33 -15.5 -61t-41 -50.5t-57.5 -40t-65 -29.5l-80 -5q28 11 45.5 18.5t30 13.5t21.5 11t20 13q29 20 50 48.5t21 63.5q0 15 -5 29.5t-17 26t-32 18.5t-50 8l20 29q19 1 35 8.5t27 19t17 25t6 25.5q0 14 -5.5 23.5t-14.5 15.5t-19.5 9t-20.5 3
q-21 0 -39.5 -10t-31.5 -27zM668 718q-15 -19 -29 -37.5t-29 -39.5t-31.5 -45t-36.5 -54q-28 -42 -55.5 -83t-54.5 -83l-60 -92t-59 -93q-29 -45 -47 -73t-30 -47t-21.5 -34.5t-22.5 -36.5l-50 -12q4 7 8 13l8 12q29 45 56 90.5t56 90.5q34 55 78 122.5t90.5 137.5t91.5 136
t82 118z" />
    <glyph glyph-name="questiondown" unicode="&#xbf;" horiz-adv-x="458" 
d="M165 649q9 10 15.5 17.5t14 14t18 15t26.5 22.5q7 -8 13.5 -14t13 -13t15 -17t20.5 -25l-51 -46l-24 -23l-21 26zM115 301q17 15 27.5 28t16.5 29.5t9.5 39t6.5 57.5l40 8l29 7l39 11q-3 -44 -11.5 -74.5t-22.5 -53.5t-33 -41t-41 -37q-15 -15 -28.5 -29.5t-23.5 -31
t-16 -37t-6 -46.5q0 -30 8 -47q2 -4 8 -14t18 -20.5t30 -18.5t44 -8q50 0 83 32q27 25 35 50.5t11 44.5l105 18q-2 -21 -8 -44t-30 -51q-26 -31 -77 -56.5t-129 -25.5q-42 0 -78.5 9t-63 27t-42 45t-15.5 62q0 25 6.5 44.5t18 36.5t26.5 32t33 30z" />
    <glyph glyph-name="Agrave" unicode="&#xc0;" horiz-adv-x="750" 
d="M267 699l140 10q4 -9 15.5 -34t24.5 -52.5t24.5 -52t14.5 -31.5q8 -18 17.5 -40.5t20 -46.5t20 -46.5t17.5 -40.5l39 -89q31 -67 54 -111t43 -74t41 -50.5t49 -40.5q-19 -5 -34 -7.5t-32 -2.5q-20 0 -38.5 5.5t-41.5 19.5q-20 13 -35.5 29.5t-27.5 35.5t-22 39.5
t-20 43.5l-59 138l-24.5 -7t-19 -6t-17 -6.5t-18.5 -7.5h-159q-17 0 -24 -3t-15 -12l-87 -161q-2 -5 -4.5 -11t-2.5 -12q0 -13 14 -19q20 -12 51.5 -19t55.5 -11l-84 -26q-56 -2 -83.5 8.5t-45.5 21.5q19 25 36.5 48.5t35.5 52.5t39 68t48 95l37 78q16 31 25 50t17 36
t16.5 37t23.5 54q7 15 11.5 25.5t8 19t6.5 16.5t6 19q-7 16 -20 25.5t-29.5 14t-35 5t-36.5 -0.5zM410 310q24 2 36 2.5t26 1.5q-9 24 -26.5 64.5t-36 82t-35.5 76.5t-24 50q-19 -44 -32 -74.5t-27 -61.5q-13 -27 -26.5 -54t-26.5 -54q-4 -8 -7.5 -16t-6.5 -16zM456 755
l-217 47l-68 51l215 -48z" />
    <glyph glyph-name="Aacute" unicode="&#xc1;" horiz-adv-x="750" 
d="M267 699l140 10q4 -9 15.5 -34t24.5 -52.5t24.5 -52t14.5 -31.5q8 -18 17.5 -40.5t20 -46.5t20 -46.5t17.5 -40.5l39 -89q31 -67 54 -111t43 -74t41 -50.5t49 -40.5q-19 -5 -34 -7.5t-32 -2.5q-20 0 -38.5 5.5t-41.5 19.5q-20 13 -35.5 29.5t-27.5 35.5t-22 39.5
t-20 43.5l-59 138l-24.5 -7t-19 -6t-17 -6.5t-18.5 -7.5h-159q-17 0 -24 -3t-15 -12l-87 -161q-2 -5 -4.5 -11t-2.5 -12q0 -13 14 -19q20 -12 51.5 -19t55.5 -11l-84 -26q-56 -2 -83.5 8.5t-45.5 21.5q19 25 36.5 48.5t35.5 52.5t39 68t48 95l37 78q16 31 25 50t17 36
t16.5 37t23.5 54q7 15 11.5 25.5t8 19t6.5 16.5t6 19q-7 16 -20 25.5t-29.5 14t-35 5t-36.5 -0.5zM410 310q24 2 36 2.5t26 1.5q-9 24 -26.5 64.5t-36 82t-35.5 76.5t-24 50q-19 -44 -32 -74.5t-27 -61.5q-13 -27 -26.5 -54t-26.5 -54q-4 -8 -7.5 -16t-6.5 -16zM517 803
l-213 -48l68 50l215 49z" />
    <glyph glyph-name="Acircumflex" unicode="&#xc2;" horiz-adv-x="750" 
d="M267 699l140 10q4 -9 15.5 -34t24.5 -52.5t24.5 -52t14.5 -31.5q8 -18 17.5 -40.5t20 -46.5t20 -46.5t17.5 -40.5l39 -89q31 -67 54 -111t43 -74t41 -50.5t49 -40.5q-19 -5 -34 -7.5t-32 -2.5q-20 0 -38.5 5.5t-41.5 19.5q-20 13 -35.5 29.5t-27.5 35.5t-22 39.5
t-20 43.5l-59 138l-24.5 -7t-19 -6t-17 -6.5t-18.5 -7.5h-159q-17 0 -24 -3t-15 -12l-87 -161q-2 -5 -4.5 -11t-2.5 -12q0 -13 14 -19q20 -12 51.5 -19t55.5 -11l-84 -26q-56 -2 -83.5 8.5t-45.5 21.5q19 25 36.5 48.5t35.5 52.5t39 68t48 95l37 78q16 31 25 50t17 36
t16.5 37t23.5 54q7 15 11.5 25.5t8 19t6.5 16.5t6 19q-7 16 -20 25.5t-29.5 14t-35 5t-36.5 -0.5zM410 310q24 2 36 2.5t26 1.5q-9 24 -26.5 64.5t-36 82t-35.5 76.5t-24 50q-19 -44 -32 -74.5t-27 -61.5q-13 -27 -26.5 -54t-26.5 -54q-4 -8 -7.5 -16t-6.5 -16zM519 790
l-51 -23l-100 47l-155 -56l89 67l80 29z" />
    <glyph glyph-name="Atilde" unicode="&#xc3;" horiz-adv-x="750" 
d="M267 699l140 10q4 -9 15.5 -34t24.5 -52.5t24.5 -52t14.5 -31.5q8 -18 17.5 -40.5t20 -46.5t20 -46.5t17.5 -40.5l39 -89q31 -67 54 -111t43 -74t41 -50.5t49 -40.5q-19 -5 -34 -7.5t-32 -2.5q-20 0 -38.5 5.5t-41.5 19.5q-20 13 -35.5 29.5t-27.5 35.5t-22 39.5
t-20 43.5l-59 138l-24.5 -7t-19 -6t-17 -6.5t-18.5 -7.5h-159q-17 0 -24 -3t-15 -12l-87 -161q-2 -5 -4.5 -11t-2.5 -12q0 -13 14 -19q20 -12 51.5 -19t55.5 -11l-84 -26q-56 -2 -83.5 8.5t-45.5 21.5q19 25 36.5 48.5t35.5 52.5t39 68t48 95l37 78q16 31 25 50t17 36
t16.5 37t23.5 54q7 15 11.5 25.5t8 19t6.5 16.5t6 19q-7 16 -20 25.5t-29.5 14t-35 5t-36.5 -0.5zM410 310q24 2 36 2.5t26 1.5q-9 24 -26.5 64.5t-36 82t-35.5 76.5t-24 50q-19 -44 -32 -74.5t-27 -61.5q-13 -27 -26.5 -54t-26.5 -54q-4 -8 -7.5 -16t-6.5 -16zM460 784
q-2 -1 -8 -2t-13.5 -1.5t-14.5 -1t-10 -0.5q-12 0 -21.5 1.5t-20.5 3.5q-28 6 -44 7.5t-27 1.5q-31 0 -49 -7.5t-40 -20.5l83 60q15 3 29 3q10 0 24 -2t26 -4q40 -6 66 -6q28 0 47.5 5.5t41.5 13.5z" />
    <glyph glyph-name="Adieresis" unicode="&#xc4;" horiz-adv-x="750" 
d="M267 699l140 10q4 -9 15.5 -34t24.5 -52.5t24.5 -52t14.5 -31.5q8 -18 17.5 -40.5t20 -46.5t20 -46.5t17.5 -40.5l39 -89q31 -67 54 -111t43 -74t41 -50.5t49 -40.5q-19 -5 -34 -7.5t-32 -2.5q-20 0 -38.5 5.5t-41.5 19.5q-20 13 -35.5 29.5t-27.5 35.5t-22 39.5
t-20 43.5l-59 138l-24.5 -7t-19 -6t-17 -6.5t-18.5 -7.5h-159q-17 0 -24 -3t-15 -12l-87 -161q-2 -5 -4.5 -11t-2.5 -12q0 -13 14 -19q20 -12 51.5 -19t55.5 -11l-84 -26q-56 -2 -83.5 8.5t-45.5 21.5q19 25 36.5 48.5t35.5 52.5t39 68t48 95l37 78q16 31 25 50t17 36
t16.5 37t23.5 54q7 15 11.5 25.5t8 19t6.5 16.5t6 19q-7 16 -20 25.5t-29.5 14t-35 5t-36.5 -0.5zM410 310q24 2 36 2.5t26 1.5q-9 24 -26.5 64.5t-36 82t-35.5 76.5t-24 50q-19 -44 -32 -74.5t-27 -61.5q-13 -27 -26.5 -54t-26.5 -54q-4 -8 -7.5 -16t-6.5 -16zM473 759
q-10 10 -16.5 17.5t-12 15t-11.5 16t-15 22.5q13 10 21.5 16.5t15.5 12.5t14.5 12.5t18.5 15.5q9 -12 15 -19.5t11.5 -14t12 -14.5t17.5 -20q-11 -11 -19 -18t-15.5 -13.5t-16 -13t-20.5 -15.5zM261 758q-11 10 -18 17.5t-13 14.5t-12 15.5t-15 20.5q12 10 20 17t15.5 13.5
t15 13.5t18.5 17q10 -12 16.5 -20t12.5 -15.5t13 -15t16 -17.5l-18.5 -18.5t-15 -13.5t-15.5 -13t-20 -16z" />
    <glyph glyph-name="Aring" unicode="&#xc5;" horiz-adv-x="750" 
d="M267 699l140 10q4 -9 15.5 -34t24.5 -52.5t24.5 -52t14.5 -31.5q8 -18 17.5 -40.5t20 -46.5t20 -46.5t17.5 -40.5l39 -89q31 -67 54 -111t43 -74t41 -50.5t49 -40.5q-19 -5 -34 -7.5t-32 -2.5q-20 0 -38.5 5.5t-41.5 19.5q-20 13 -35.5 29.5t-27.5 35.5t-22 39.5
t-20 43.5l-59 138l-24.5 -7t-19 -6t-17 -6.5t-18.5 -7.5h-159q-17 0 -24 -3t-15 -12l-87 -161q-2 -5 -4.5 -11t-2.5 -12q0 -13 14 -19q20 -12 51.5 -19t55.5 -11l-84 -26q-56 -2 -83.5 8.5t-45.5 21.5q19 25 36.5 48.5t35.5 52.5t39 68t48 95l37 78q16 31 25 50t17 36
t16.5 37t23.5 54q7 15 11.5 25.5t8 19t6.5 16.5t6 19q-7 16 -20 25.5t-29.5 14t-35 5t-36.5 -0.5zM410 310q24 2 36 2.5t26 1.5q-9 24 -26.5 64.5t-36 82t-35.5 76.5t-24 50q-19 -44 -32 -74.5t-27 -61.5q-13 -27 -26.5 -54t-26.5 -54q-4 -8 -7.5 -16t-6.5 -16zM375 883
q18 0 31.5 -7t23 -18t14 -24.5t4.5 -25.5q0 -29 -21 -51.5t-54 -22.5q-32 0 -53 22.5t-21 50.5q0 29 20.5 52.5t55.5 23.5zM424 809q0 19 -13.5 35t-36.5 16t-37 -16.5t-14 -34.5q0 -20 14.5 -36t36.5 -16q21 0 35.5 15.5t14.5 36.5z" />
    <glyph glyph-name="AE" unicode="&#xc6;" horiz-adv-x="917" 
d="M848 0h-407q13 15 20.5 24.5t11.5 18.5t5 19t1 26v215q-16 -4 -27.5 -7t-21 -6t-18.5 -6.5t-19 -8.5h-110q-12 0 -19 -1t-12.5 -4t-11 -8t-12.5 -13q-17 -22 -29 -37.5t-23.5 -29.5t-24 -29t-29.5 -36q-14 -18 -19 -26t-5 -16q0 -2 0.5 -4.5t3.5 -6.5q5 -7 17.5 -12.5
t29 -9.5t35 -7t35.5 -6l-89 -29q-25 1 -59 5.5t-73 31.5q41 43 78.5 87.5t74.5 90.5q29 36 52 65.5t45 58.5t44.5 60t50.5 70l141 203h-102l74 34h421l-65 -59l-27 -7q3 5 5.5 9.5t4.5 6.5q3 3 3 7t-3.5 5t-5.5 1q-5 0 -19 0.5t-30 1t-30.5 0.5h-21.5l-93 1l-6 -134
q-1 -17 -1 -34.5t-1 -34.5q-1 -18 -1.5 -28.5t-0.5 -18v-15v-19.5h232l-58 -54l-27 -7q3 5 7 11.5t4 8.5q0 6 -5.5 7t-8.5 1h-115q-19 -1 -24.5 -7.5t-5.5 -25.5v-223q0 -21 2 -34t14 -20.5t38.5 -10t75.5 -2.5q38 0 65.5 2.5t47.5 7t34 10.5t26 12l53 17zM419 312
q10 0 16 0.5t12 0.5t13 0.5t19 1.5q0 6 1 27t1.5 44.5t1 44t0.5 27.5q1 37 2 73.5t3 73.5q-5 -7 -9 -12t-8.5 -11.5t-11 -15.5t-16.5 -24q-41 -59 -82.5 -116t-84.5 -114h143z" />
    <glyph glyph-name="Ccedilla" unicode="&#xc7;" horiz-adv-x="667" 
d="M614 22q-13 -5 -26 -9t-27 -9q-45 -13 -79 -15.5t-61 -3.5l-21 -42q3 -2 6 -3.5t6 -3.5q17 -12 29 -33.5t12 -49.5q0 -20 -8.5 -43t-25.5 -45q-10 -12 -19 -20l-18 -16l-64 -28q11 9 23.5 20t23 24.5t17.5 29.5t7 35t-6 32t-15.5 22t-21 14.5t-21.5 10.5q16 23 30.5 48
t25.5 51q-17 2 -46 6t-64 17q-59 22 -101 59.5t-69.5 83t-40.5 95.5t-13 97q0 69 26.5 136.5t76 120.5t120.5 85.5t161 32.5q66 0 129 -18q59 -17 91.5 -39t48.5 -35l-75 -73l-31 -3l27 38q-12 13 -29 30t-40.5 32t-55 25.5t-71.5 10.5q-48 0 -96.5 -19.5t-87.5 -58
t-63 -94.5t-24 -129q0 -60 20 -124t62.5 -116.5t108 -86.5t156.5 -34q54 0 91 11t69 24z" />
    <glyph glyph-name="Egrave" unicode="&#xc8;" horiz-adv-x="521" 
d="M471 0h-405q12 14 19.5 23.5t11 18.5t4.5 20t1 27q0 146 2.5 291t9.5 291h-107l72 35h416l-64 -59l-26 -7q4 5 9 13t5 10q0 5 -9 6q-7 1 -21 1.5t-31 0.5h-35.5h-34.5h-71l-10 -280h231l-58 -55l-27 -8q8 14 10 17t2 5q0 5 -3.5 6t-7.5 1h-117q-15 0 -23 -5t-7 -24v-228
q0 -18 1 -30t8 -19q6 -7 20.5 -11t31.5 -5.5t33 -2t26 -0.5q23 0 46.5 1t46.5 5q35 5 53 12t35 15l54 18zM383 755l-217 47l-68 51l215 -48z" />
    <glyph glyph-name="Eacute" unicode="&#xc9;" horiz-adv-x="521" 
d="M471 0h-405q12 14 19.5 23.5t11 18.5t4.5 20t1 27q0 146 2.5 291t9.5 291h-107l72 35h416l-64 -59l-26 -7q4 5 9 13t5 10q0 5 -9 6q-7 1 -21 1.5t-31 0.5h-35.5h-34.5h-71l-10 -280h231l-58 -55l-27 -8q8 14 10 17t2 5q0 5 -3.5 6t-7.5 1h-117q-15 0 -23 -5t-7 -24v-228
q0 -18 1 -30t8 -19q6 -7 20.5 -11t31.5 -5.5t33 -2t26 -0.5q23 0 46.5 1t46.5 5q35 5 53 12t35 15l54 18zM402 803l-213 -48l68 50l215 49z" />
    <glyph glyph-name="Ecircumflex" unicode="&#xca;" horiz-adv-x="521" 
d="M471 0h-405q12 14 19.5 23.5t11 18.5t4.5 20t1 27q0 146 2.5 291t9.5 291h-107l72 35h416l-64 -59l-26 -7q4 5 9 13t5 10q0 5 -9 6q-7 1 -21 1.5t-31 0.5h-35.5h-34.5h-71l-10 -280h231l-58 -55l-27 -8q8 14 10 17t2 5q0 5 -3.5 6t-7.5 1h-117q-15 0 -23 -5t-7 -24v-228
q0 -18 1 -30t8 -19q6 -7 20.5 -11t31.5 -5.5t33 -2t26 -0.5q23 0 46.5 1t46.5 5q35 5 53 12t35 15l54 18zM425 790l-51 -23l-100 47l-155 -56l89 67l80 29z" />
    <glyph glyph-name="Edieresis" unicode="&#xcb;" horiz-adv-x="521" 
d="M471 0h-405q12 14 19.5 23.5t11 18.5t4.5 20t1 27q0 146 2.5 291t9.5 291h-107l72 35h416l-64 -59l-26 -7q4 5 9 13t5 10q0 5 -9 6q-7 1 -21 1.5t-31 0.5h-35.5h-34.5h-71l-10 -280h231l-58 -55l-27 -8q8 14 10 17t2 5q0 5 -3.5 6t-7.5 1h-117q-15 0 -23 -5t-7 -24v-228
q0 -18 1 -30t8 -19q6 -7 20.5 -11t31.5 -5.5t33 -2t26 -0.5q23 0 46.5 1t46.5 5q35 5 53 12t35 15l54 18zM377 759q-10 10 -16.5 17.5t-12 15t-11.5 16t-15 22.5q13 10 21.5 16.5t15.5 12.5t14.5 12.5t18.5 15.5q9 -12 15 -19.5t11.5 -14t12 -14.5t17.5 -20q-11 -11 -19 -18
t-15.5 -13.5t-16 -13t-20.5 -15.5zM165 758q-11 10 -18 17.5t-13 14.5t-12 15.5t-15 20.5q12 10 20 17t15.5 13.5t15 13.5t18.5 17q10 -12 16.5 -20t12.5 -15.5t13 -15t16 -17.5l-18.5 -18.5t-15 -13.5t-15.5 -13t-20 -16z" />
    <glyph glyph-name="Igrave" unicode="&#xcc;" horiz-adv-x="313" 
d="M277 0h-211q13 16 20 25.5t11 17t5 15t2 18.5q0 88 0.5 172.5t1.5 161t3 142.5t5 119h-101l66 35h181l-25 -21l-7 -7t-5 -8q-2 -2 -2 -6.5t-1 -21.5q-1 -20 -2 -45t-2 -51.5t-1.5 -52t-1.5 -45.5l-4 -148q-1 -33 -1.5 -65.5t-0.5 -65.5v-64q0 -23 1 -37t4.5 -21.5
t11.5 -10.5t22 -4l74 -8zM237 755l-217 47l-68 51l215 -48z" />
    <glyph glyph-name="Iacute" unicode="&#xcd;" horiz-adv-x="313" 
d="M277 0h-211q13 16 20 25.5t11 17t5 15t2 18.5q0 88 0.5 172.5t1.5 161t3 142.5t5 119h-101l66 35h181l-25 -21l-7 -7t-5 -8q-2 -2 -2 -6.5t-1 -21.5q-1 -20 -2 -45t-2 -51.5t-1.5 -52t-1.5 -45.5l-4 -148q-1 -33 -1.5 -65.5t-0.5 -65.5v-64q0 -23 1 -37t4.5 -21.5
t11.5 -10.5t22 -4l74 -8zM298 803l-213 -48l68 50l215 49z" />
    <glyph glyph-name="Icircumflex" unicode="&#xce;" horiz-adv-x="313" 
d="M277 0h-211q13 16 20 25.5t11 17t5 15t2 18.5q0 88 0.5 172.5t1.5 161t3 142.5t5 119h-101l66 35h181l-25 -21l-7 -7t-5 -8q-2 -2 -2 -6.5t-1 -21.5q-1 -20 -2 -45t-2 -51.5t-1.5 -52t-1.5 -45.5l-4 -148q-1 -33 -1.5 -65.5t-0.5 -65.5v-64q0 -23 1 -37t4.5 -21.5
t11.5 -10.5t22 -4l74 -8zM311 790l-51 -23l-100 47l-155 -56l89 67l80 29z" />
    <glyph glyph-name="Idieresis" unicode="&#xcf;" horiz-adv-x="313" 
d="M277 0h-211q13 16 20 25.5t11 17t5 15t2 18.5q0 88 0.5 172.5t1.5 161t3 142.5t5 119h-101l66 35h181l-25 -21l-7 -7t-5 -8q-2 -2 -2 -6.5t-1 -21.5q-1 -20 -2 -45t-2 -51.5t-1.5 -52t-1.5 -45.5l-4 -148q-1 -33 -1.5 -65.5t-0.5 -65.5v-64q0 -23 1 -37t4.5 -21.5
t11.5 -10.5t22 -4l74 -8zM263 759q-10 10 -16.5 17.5t-12 15t-11.5 16t-15 22.5q13 10 21.5 16.5t15.5 12.5t14.5 12.5t18.5 15.5q9 -12 15 -19.5t11.5 -14t12 -14.5t17.5 -20q-11 -11 -19 -18t-15.5 -13.5t-16 -13t-20.5 -15.5zM51 758q-11 10 -18 17.5t-13 14.5t-12 15.5
t-15 20.5q12 10 20 17t15.5 13.5t15 13.5t18.5 17q10 -12 16.5 -20t12.5 -15.5t13 -15t16 -17.5l-18.5 -18.5t-15 -13.5t-15.5 -13t-20 -16z" />
    <glyph glyph-name="Eth" unicode="&#xd0;" horiz-adv-x="771" 
d="M79 706h200q41 0 88 -2t94.5 -12t92.5 -30.5t83 -56.5q39 -37 67.5 -97.5t28.5 -144.5q0 -46 -10.5 -90t-30.5 -84t-49.5 -74t-68.5 -59q-36 -23 -74.5 -37t-79 -21t-82.5 -9t-85 -2q-69 0 -108.5 4t-65.5 8l16 29q6 11 8 18.5t2 23.5v272h-96l42 40h54q1 32 1 65t1 66
q1 43 1.5 69t1 42t0.5 26.5v22.5l-86 -4zM208 239q0 -55 0.5 -90t5.5 -56t14.5 -32.5t27.5 -19.5q23 -11 50 -14.5t50 -3.5q14 0 42 2t61 13.5t67 36t61 70.5q26 45 32.5 88t6.5 72q0 41 -8 87.5t-25 89.5q-27 65 -66 103t-83 57.5t-88 24.5t-80 5q-19 0 -33.5 -0.5
t-27.5 -1.5l-6 -198l-1 -90h248l-57 -40h-191v-103z" />
    <glyph glyph-name="Ntilde" unicode="&#xd1;" horiz-adv-x="896" 
d="M820 25q-27 -11 -46.5 -19.5t-50.5 -21.5q-65 74 -113 128.5t-66 74.5q-10 10 -32 34t-51.5 56.5t-65 70l-71 75t-70 73t-61.5 62.5q-13 13 -21 20.5t-13 12.5l-8 8l-7 7v-244q0 -72 1 -142t3 -142q1 -16 3 -25.5t11.5 -15t30 -8t58.5 -4.5l-38 -25h-151l23 23q8 8 11 14
t5 23q0 4 0.5 23.5t1 43t1 45.5t0.5 33v144v67.5t-1 66.5q-1 51 -1.5 81.5t-0.5 53.5q0 35 -11.5 45.5t-40.5 10.5q-14 0 -28.5 -1t-28.5 -3l70 37h125l38 -36l38 -36q20 -21 58 -59.5t84.5 -87.5t98 -104.5t100 -108t89.5 -99t66 -77.5l5 242q1 71 1 126.5t-1 115.5
q0 5 -0.5 18t-1 27.5t-1 27.5t-0.5 19l-114 -4l59 36h132q-8 -5 -11.5 -7t-8.5 -9q-3 -5 -5.5 -9.5t-4 -12t-2 -19.5t-0.5 -31q-1 -23 -1 -47t-1 -48v-479zM533 784q-2 -1 -8 -2t-13.5 -1.5t-14.5 -1t-10 -0.5q-12 0 -21.5 1.5t-20.5 3.5q-28 6 -44 7.5t-27 1.5
q-31 0 -49 -7.5t-40 -20.5l83 60q15 3 29 3q10 0 24 -2t26 -4q40 -6 66 -6q28 0 47.5 5.5t41.5 13.5z" />
    <glyph glyph-name="Ograve" unicode="&#xd2;" horiz-adv-x="875" 
d="M837 369q0 -75 -28.5 -144.5t-81.5 -122.5t-129 -85t-170 -32q-91 0 -163.5 30t-122.5 80t-77 115t-27 136q0 67 26 134t78 120.5t129.5 87t179.5 33.5q87 0 158 -27.5t121.5 -75.5t78.5 -112t28 -137zM728 329q0 28 -3.5 58t-11.5 60q-12 41 -37 83.5t-62.5 77.5t-86 57
t-108.5 22q-55 0 -105 -20t-87.5 -58.5t-60 -94t-22.5 -126.5q0 -69 23 -135t64.5 -117t99.5 -82.5t128 -31.5q40 0 87.5 15.5t87.5 51t67 94.5t27 146zM518 755l-217 47l-68 51l215 -48z" />
    <glyph glyph-name="Oacute" unicode="&#xd3;" horiz-adv-x="875" 
d="M837 369q0 -75 -28.5 -144.5t-81.5 -122.5t-129 -85t-170 -32q-91 0 -163.5 30t-122.5 80t-77 115t-27 136q0 67 26 134t78 120.5t129.5 87t179.5 33.5q87 0 158 -27.5t121.5 -75.5t78.5 -112t28 -137zM728 329q0 28 -3.5 58t-11.5 60q-12 41 -37 83.5t-62.5 77.5t-86 57
t-108.5 22q-55 0 -105 -20t-87.5 -58.5t-60 -94t-22.5 -126.5q0 -69 23 -135t64.5 -117t99.5 -82.5t128 -31.5q40 0 87.5 15.5t87.5 51t67 94.5t27 146zM579 803l-213 -48l68 50l215 49z" />
    <glyph glyph-name="Ocircumflex" unicode="&#xd4;" horiz-adv-x="875" 
d="M837 369q0 -75 -28.5 -144.5t-81.5 -122.5t-129 -85t-170 -32q-91 0 -163.5 30t-122.5 80t-77 115t-27 136q0 67 26 134t78 120.5t129.5 87t179.5 33.5q87 0 158 -27.5t121.5 -75.5t78.5 -112t28 -137zM728 329q0 28 -3.5 58t-11.5 60q-12 41 -37 83.5t-62.5 77.5t-86 57
t-108.5 22q-55 0 -105 -20t-87.5 -58.5t-60 -94t-22.5 -126.5q0 -69 23 -135t64.5 -117t99.5 -82.5t128 -31.5q40 0 87.5 15.5t87.5 51t67 94.5t27 146zM581 790l-51 -23l-100 47l-155 -56l89 67l80 29z" />
    <glyph glyph-name="Otilde" unicode="&#xd5;" horiz-adv-x="875" 
d="M837 369q0 -75 -28.5 -144.5t-81.5 -122.5t-129 -85t-170 -32q-91 0 -163.5 30t-122.5 80t-77 115t-27 136q0 67 26 134t78 120.5t129.5 87t179.5 33.5q87 0 158 -27.5t121.5 -75.5t78.5 -112t28 -137zM728 329q0 28 -3.5 58t-11.5 60q-12 41 -37 83.5t-62.5 77.5t-86 57
t-108.5 22q-55 0 -105 -20t-87.5 -58.5t-60 -94t-22.5 -126.5q0 -69 23 -135t64.5 -117t99.5 -82.5t128 -31.5q40 0 87.5 15.5t87.5 51t67 94.5t27 146zM522 784q-2 -1 -8 -2t-13.5 -1.5t-14.5 -1t-10 -0.5q-12 0 -21.5 1.5t-20.5 3.5q-28 6 -44 7.5t-27 1.5q-31 0 -49 -7.5
t-40 -20.5l83 60q15 3 29 3q10 0 24 -2t26 -4q40 -6 66 -6q28 0 47.5 5.5t41.5 13.5z" />
    <glyph glyph-name="Odieresis" unicode="&#xd6;" horiz-adv-x="875" 
d="M837 369q0 -75 -28.5 -144.5t-81.5 -122.5t-129 -85t-170 -32q-91 0 -163.5 30t-122.5 80t-77 115t-27 136q0 67 26 134t78 120.5t129.5 87t179.5 33.5q87 0 158 -27.5t121.5 -75.5t78.5 -112t28 -137zM728 329q0 28 -3.5 58t-11.5 60q-12 41 -37 83.5t-62.5 77.5t-86 57
t-108.5 22q-55 0 -105 -20t-87.5 -58.5t-60 -94t-22.5 -126.5q0 -69 23 -135t64.5 -117t99.5 -82.5t128 -31.5q40 0 87.5 15.5t87.5 51t67 94.5t27 146zM536 759q-10 10 -16.5 17.5t-12 15t-11.5 16t-15 22.5q13 10 21.5 16.5t15.5 12.5t14.5 12.5t18.5 15.5q9 -12 15 -19.5
t11.5 -14t12 -14.5t17.5 -20q-11 -11 -19 -18t-15.5 -13.5t-16 -13t-20.5 -15.5zM324 758q-11 10 -18 17.5t-13 14.5t-12 15.5t-15 20.5q12 10 20 17t15.5 13.5t15 13.5t18.5 17q10 -12 16.5 -20t12.5 -15.5t13 -15t16 -17.5l-18.5 -18.5t-15 -13.5t-15.5 -13t-20 -16z" />
    <glyph glyph-name="multiply" unicode="&#xd7;" horiz-adv-x="500" 
d="M440 143l-42 -42l-148 148l-148 -148l-42 42l148 148l-148 148l42 42l148 -148l148 148l42 -42l-148 -148z" />
    <glyph glyph-name="Oslash" unicode="&#xd8;" horiz-adv-x="875" 
d="M744 599q15 -19 31 -41.5t30 -51t23 -63.5t9 -78q0 -70 -26.5 -138t-78.5 -122t-127.5 -87t-172.5 -33q-31 0 -68 4.5t-76 17.5q-47 15 -76 34t-43 30l-61 -52l-73 -17l106 98q-15 17 -32.5 39t-33.5 52t-26.5 68.5t-10.5 88.5q0 75 29 143t83 119t130.5 81t171.5 30
q46 0 85 -7.5t71.5 -20t60 -29.5t50.5 -35l65 57l63 16zM238 130q3 -3 6 -6.5t6 -7.5q45 -50 100.5 -72.5t109.5 -22.5q60 0 109.5 23.5t85 64.5t55.5 98t20 124q0 54 -14 104.5t-44 94.5zM651 564q-9 12 -19.5 24t-30.5 29q-39 33 -86.5 52t-99.5 19q-44 0 -91.5 -16
t-87 -52t-65 -93t-25.5 -138q0 -65 16 -119t54 -105z" />
    <glyph glyph-name="Ugrave" unicode="&#xd9;" horiz-adv-x="750" 
d="M712 706l-27 -23q-6 -6 -8 -11.5t-4 -25.5q0 -12 -0.5 -23.5t-0.5 -23.5l-10 -291q-2 -29 -4.5 -59.5t-9.5 -61.5t-20 -61t-36 -56q-40 -46 -98 -65.5t-119 -19.5q-47 0 -79.5 7t-52.5 15q-59 23 -91 59t-46.5 74.5t-17 74.5t-2.5 59q0 40 1 88t3 116l2 61q0 22 0.5 37.5
t0.5 29v28v34.5h-107l75 38h181l-26 -22q-11 -9 -12 -19q-2 -6 -3.5 -32t-3 -56t-3 -58t-1.5 -38l-3 -100q-1 -40 -1 -72t2 -58t6 -48.5t11 -42.5q24 -67 76 -101.5t125 -34.5q27 0 52.5 5.5t48.5 18.5q53 29 81 85q20 39 25.5 89t8.5 116l3 130q0 25 0.5 46.5t0 44
t-1.5 48.5t-2 61h-114l77 38h124zM456 755l-217 47l-68 51l215 -48z" />
    <glyph glyph-name="Uacute" unicode="&#xda;" horiz-adv-x="750" 
d="M712 706l-27 -23q-6 -6 -8 -11.5t-4 -25.5q0 -12 -0.5 -23.5t-0.5 -23.5l-10 -291q-2 -29 -4.5 -59.5t-9.5 -61.5t-20 -61t-36 -56q-40 -46 -98 -65.5t-119 -19.5q-47 0 -79.5 7t-52.5 15q-59 23 -91 59t-46.5 74.5t-17 74.5t-2.5 59q0 40 1 88t3 116l2 61q0 22 0.5 37.5
t0.5 29v28v34.5h-107l75 38h181l-26 -22q-11 -9 -12 -19q-2 -6 -3.5 -32t-3 -56t-3 -58t-1.5 -38l-3 -100q-1 -40 -1 -72t2 -58t6 -48.5t11 -42.5q24 -67 76 -101.5t125 -34.5q27 0 52.5 5.5t48.5 18.5q53 29 81 85q20 39 25.5 89t8.5 116l3 130q0 25 0.5 46.5t0 44
t-1.5 48.5t-2 61h-114l77 38h124zM517 803l-213 -48l68 50l215 49z" />
    <glyph glyph-name="Ucircumflex" unicode="&#xdb;" horiz-adv-x="750" 
d="M712 706l-27 -23q-6 -6 -8 -11.5t-4 -25.5q0 -12 -0.5 -23.5t-0.5 -23.5l-10 -291q-2 -29 -4.5 -59.5t-9.5 -61.5t-20 -61t-36 -56q-40 -46 -98 -65.5t-119 -19.5q-47 0 -79.5 7t-52.5 15q-59 23 -91 59t-46.5 74.5t-17 74.5t-2.5 59q0 40 1 88t3 116l2 61q0 22 0.5 37.5
t0.5 29v28v34.5h-107l75 38h181l-26 -22q-11 -9 -12 -19q-2 -6 -3.5 -32t-3 -56t-3 -58t-1.5 -38l-3 -100q-1 -40 -1 -72t2 -58t6 -48.5t11 -42.5q24 -67 76 -101.5t125 -34.5q27 0 52.5 5.5t48.5 18.5q53 29 81 85q20 39 25.5 89t8.5 116l3 130q0 25 0.5 46.5t0 44
t-1.5 48.5t-2 61h-114l77 38h124zM540 790l-51 -23l-100 47l-155 -56l89 67l80 29z" />
    <glyph glyph-name="Udieresis" unicode="&#xdc;" horiz-adv-x="750" 
d="M712 706l-27 -23q-6 -6 -8 -11.5t-4 -25.5q0 -12 -0.5 -23.5t-0.5 -23.5l-10 -291q-2 -29 -4.5 -59.5t-9.5 -61.5t-20 -61t-36 -56q-40 -46 -98 -65.5t-119 -19.5q-47 0 -79.5 7t-52.5 15q-59 23 -91 59t-46.5 74.5t-17 74.5t-2.5 59q0 40 1 88t3 116l2 61q0 22 0.5 37.5
t0.5 29v28v34.5h-107l75 38h181l-26 -22q-11 -9 -12 -19q-2 -6 -3.5 -32t-3 -56t-3 -58t-1.5 -38l-3 -100q-1 -40 -1 -72t2 -58t6 -48.5t11 -42.5q24 -67 76 -101.5t125 -34.5q27 0 52.5 5.5t48.5 18.5q53 29 81 85q20 39 25.5 89t8.5 116l3 130q0 25 0.5 46.5t0 44
t-1.5 48.5t-2 61h-114l77 38h124zM498 759q-10 10 -16.5 17.5t-12 15t-11.5 16t-15 22.5q13 10 21.5 16.5t15.5 12.5t14.5 12.5t18.5 15.5q9 -12 15 -19.5t11.5 -14t12 -14.5t17.5 -20q-11 -11 -19 -18t-15.5 -13.5t-16 -13t-20.5 -15.5zM286 758q-11 10 -18 17.5t-13 14.5
t-12 15.5t-15 20.5q12 10 20 17t15.5 13.5t15 13.5t18.5 17q10 -12 16.5 -20t12.5 -15.5t13 -15t16 -17.5l-18.5 -18.5t-15 -13.5t-15.5 -13t-20 -16z" />
    <glyph glyph-name="Yacute" unicode="&#xdd;" horiz-adv-x="625" 
d="M443 0h-204l22 34q6 11 7 16.5t2 18.5v221l-90 141q-22 32 -43 63.5t-43 63.5q-4 6 -15 21.5t-23.5 33t-24 33.5t-15.5 22h-87l70 39h173l-5.5 -5.5l-7.5 -7.5l-7.5 -7.5t-3.5 -4.5q-3 -3 -3 -9t3.5 -13t5.5 -12q7 -12 19 -31.5t39 -62.5l43 -65q3 -5 11.5 -17.5
t18.5 -26.5t19 -27t13 -18q1 -2 5.5 -8.5t9.5 -14l9 -13.5t5 -7l66 94q17 27 34.5 53.5t34.5 53.5q16 24 26 40l17.5 28t13 21.5t11.5 20.5h-122l68 39h160l-38 -28q-8 -7 -13.5 -11.5t-10 -10t-9.5 -12t-12 -16.5l-200 -304v-253q0 -17 3.5 -23.5t14.5 -9.5q14 -5 40.5 -8
t57.5 -6zM454 803l-213 -48l68 50l215 49z" />
    <glyph glyph-name="Thorn" unicode="&#xde;" horiz-adv-x="521" 
d="M84 706h172l-26 -22q-8 -6 -10 -10.5t-3 -12.5q-2 -23 -2.5 -44.5t-0.5 -39.5h86q30 0 71 -5t82 -32q34 -23 48.5 -53.5t14.5 -65.5q0 -42 -18 -73.5t-44.5 -54t-56 -37.5t-51.5 -24l-106 -19q26 8 50 18t46 27q28 20 49 53.5t21 81.5q0 6 -2.5 28t-15.5 47t-41 47.5
t-78 28.5q-17 2 -31 2t-25 -1l-1 -41q-1 -41 -1.5 -99t-1 -117t-0.5 -112v-84q0 -19 1 -30.5t5.5 -18t14 -9t27.5 -3.5l74 -4l-52 -27h-211l25 32q7 10 9.5 16.5t2.5 23.5v29.5t-0.5 46t-0.5 47v31.5q0 30 0.5 66t1 74t1 75.5t1.5 69.5q0 8 0.5 30.5t1 48t1.5 48.5t1 32
l-104 -4z" />
    <glyph glyph-name="germandbls" unicode="&#xdf;" horiz-adv-x="521" 
d="M68 455q2 21 5.5 48t15.5 58q15 39 38.5 67t51.5 45.5t57.5 25.5t55.5 8q36 0 66 -12.5t51.5 -32.5t33.5 -46.5t12 -53.5q0 -29 -9.5 -48.5t-19.5 -34.5q-6 -5 -12 -8.5t-15.5 -8.5t-24.5 -11.5t-39 -16.5q10 -3 23.5 -8.5t28.5 -15.5t31 -24.5t31 -35.5q22 -29 29 -56.5
t7 -55.5q0 -36 -9 -69q-12 -43 -35.5 -78t-46.5 -59.5t-41 -38.5l-18 -14l-129 -55q10 6 27 17t36.5 26.5t39.5 36t36 46.5q20 32 31.5 70t11.5 73t-10.5 68.5t-30.5 59.5q-17 22 -36.5 37t-38.5 25t-36.5 15t-29.5 8l62 39q9 0 14.5 -0.5l11 -1t11 -1.5t13.5 -2
q28 34 35.5 66t7.5 48q0 25 -8 46.5t-22 36.5t-32.5 23.5t-39.5 8.5q-8 0 -19 -2t-22.5 -8t-22.5 -18.5t-18 -33.5q-8 -26 -11 -65.5t-4 -112.5v-103v-58v-78.5v-75.5v-48t1.5 -20t6 -11t13 -5.5t22.5 -2.5l53 -4l-39 -23h-177q9 11 14 17.5t8 12.5t3.5 13.5t0.5 19.5v357
h-56z" />
    <glyph glyph-name="agrave" unicode="&#xe0;" horiz-adv-x="437" 
d="M360 216q12 -41 22.5 -74.5t23.5 -64.5q14 -37 25.5 -53.5t23.5 -31.5q-8 -1 -15 -2t-14 -1q-17 0 -32 5t-30 13q-25 14 -37 31.5t-19 31.5l-47 -46q-14 -8 -44.5 -22t-78.5 -14q-31 0 -54.5 8.5t-39 23t-23 33t-7.5 39.5q0 43 26 76t62.5 56.5t75 38.5t63.5 24l-15 44
q-13 35 -25.5 54.5t-29 29t-39.5 11t-57 0.5l73 31q33 0 65 -2.5t56 -18.5q13 -9 22.5 -21.5t17 -30t15 -41.5t16.5 -56zM261 220q-5 20 -9 28t-14 8q-8 0 -28.5 -9t-42.5 -25.5t-39 -40.5t-17 -55q0 -22 9 -37.5t23 -25.5t31 -14.5t33 -4.5q39 0 61.5 15t32.5 25
q-5 15 -8.5 24.5t-6.5 20t-6.5 23.5t-9.5 34zM289 525l-217 48l-68 51l215 -49z" />
    <glyph glyph-name="aacute" unicode="&#xe1;" horiz-adv-x="437" 
d="M360 216q12 -41 22.5 -74.5t23.5 -64.5q14 -37 25.5 -53.5t23.5 -31.5q-8 -1 -15 -2t-14 -1q-17 0 -32 5t-30 13q-25 14 -37 31.5t-19 31.5l-47 -46q-14 -8 -44.5 -22t-78.5 -14q-31 0 -54.5 8.5t-39 23t-23 33t-7.5 39.5q0 43 26 76t62.5 56.5t75 38.5t63.5 24l-15 44
q-13 35 -25.5 54.5t-29 29t-39.5 11t-57 0.5l73 31q33 0 65 -2.5t56 -18.5q13 -9 22.5 -21.5t17 -30t15 -41.5t16.5 -56zM261 220q-5 20 -9 28t-14 8q-8 0 -28.5 -9t-42.5 -25.5t-39 -40.5t-17 -55q0 -22 9 -37.5t23 -25.5t31 -14.5t33 -4.5q39 0 61.5 15t32.5 25
q-5 15 -8.5 24.5t-6.5 20t-6.5 23.5t-9.5 34zM350 573l-213 -48l68 50l215 49z" />
    <glyph glyph-name="acircumflex" unicode="&#xe2;" horiz-adv-x="437" 
d="M360 216q12 -41 22.5 -74.5t23.5 -64.5q14 -37 25.5 -53.5t23.5 -31.5q-8 -1 -15 -2t-14 -1q-17 0 -32 5t-30 13q-25 14 -37 31.5t-19 31.5l-47 -46q-14 -8 -44.5 -22t-78.5 -14q-31 0 -54.5 8.5t-39 23t-23 33t-7.5 39.5q0 43 26 76t62.5 56.5t75 38.5t63.5 24l-15 44
q-13 35 -25.5 54.5t-29 29t-39.5 11t-57 0.5l73 31q33 0 65 -2.5t56 -18.5q13 -9 22.5 -21.5t17 -30t15 -41.5t16.5 -56zM261 220q-5 20 -9 28t-14 8q-8 0 -28.5 -9t-42.5 -25.5t-39 -40.5t-17 -55q0 -22 9 -37.5t23 -25.5t31 -14.5t33 -4.5q39 0 61.5 15t32.5 25
q-5 15 -8.5 24.5t-6.5 20t-6.5 23.5t-9.5 34zM352 560l-51 -22l-100 46l-155 -55l89 66l80 29z" />
    <glyph glyph-name="atilde" unicode="&#xe3;" horiz-adv-x="437" 
d="M360 216q12 -41 22.5 -74.5t23.5 -64.5q14 -37 25.5 -53.5t23.5 -31.5q-8 -1 -15 -2t-14 -1q-17 0 -32 5t-30 13q-25 14 -37 31.5t-19 31.5l-47 -46q-14 -8 -44.5 -22t-78.5 -14q-31 0 -54.5 8.5t-39 23t-23 33t-7.5 39.5q0 43 26 76t62.5 56.5t75 38.5t63.5 24l-15 44
q-13 35 -25.5 54.5t-29 29t-39.5 11t-57 0.5l73 31q33 0 65 -2.5t56 -18.5q13 -9 22.5 -21.5t17 -30t15 -41.5t16.5 -56zM261 220q-5 20 -9 28t-14 8q-8 0 -28.5 -9t-42.5 -25.5t-39 -40.5t-17 -55q0 -22 9 -37.5t23 -25.5t31 -14.5t33 -4.5q39 0 61.5 15t32.5 25
q-5 15 -8.5 24.5t-6.5 20t-6.5 23.5t-9.5 34zM293 554q-2 -1 -8 -2t-13.5 -1.5t-14.5 -1t-10 -0.5q-12 0 -21.5 1.5t-20.5 3.5q-28 6 -44 7.5t-27 1.5q-31 0 -49 -7.5t-40 -20.5l83 60q15 3 29 3q10 0 24 -2t26 -4q40 -6 66 -6q28 0 47.5 5.5t41.5 13.5z" />
    <glyph glyph-name="adieresis" unicode="&#xe4;" horiz-adv-x="437" 
d="M360 216q12 -41 22.5 -74.5t23.5 -64.5q14 -37 25.5 -53.5t23.5 -31.5q-8 -1 -15 -2t-14 -1q-17 0 -32 5t-30 13q-25 14 -37 31.5t-19 31.5l-47 -46q-14 -8 -44.5 -22t-78.5 -14q-31 0 -54.5 8.5t-39 23t-23 33t-7.5 39.5q0 43 26 76t62.5 56.5t75 38.5t63.5 24l-15 44
q-13 35 -25.5 54.5t-29 29t-39.5 11t-57 0.5l73 31q33 0 65 -2.5t56 -18.5q13 -9 22.5 -21.5t17 -30t15 -41.5t16.5 -56zM261 220q-5 20 -9 28t-14 8q-8 0 -28.5 -9t-42.5 -25.5t-39 -40.5t-17 -55q0 -22 9 -37.5t23 -25.5t31 -14.5t33 -4.5q39 0 61.5 15t32.5 25
q-5 15 -8.5 24.5t-6.5 20t-6.5 23.5t-9.5 34zM321 529q-10 10 -16.5 17.5t-12 15t-11.5 16.5t-15 22q13 10 21.5 16.5t15.5 12.5t14.5 12.5t18.5 16.5l15 -20t11.5 -14.5t12 -14.5t17.5 -20q-11 -11 -19 -18t-15.5 -13t-16 -13t-20.5 -16zM109 528q-11 10 -18 17.5t-13 14.5
t-12 15.5t-15 21.5q12 9 20 16t15.5 13.5t15 13.5t18.5 17q10 -12 16.5 -20t12.5 -15t13 -14.5t16 -17.5l-18.5 -18.5t-15 -14t-15.5 -13.5t-20 -16z" />
    <glyph glyph-name="aring" unicode="&#xe5;" horiz-adv-x="437" 
d="M360 216q12 -41 22.5 -74.5t23.5 -64.5q14 -37 25.5 -53.5t23.5 -31.5q-8 -1 -15 -2t-14 -1q-17 0 -32 5t-30 13q-25 14 -37 31.5t-19 31.5l-47 -46q-14 -8 -44.5 -22t-78.5 -14q-31 0 -54.5 8.5t-39 23t-23 33t-7.5 39.5q0 43 26 76t62.5 56.5t75 38.5t63.5 24l-15 44
q-13 35 -25.5 54.5t-29 29t-39.5 11t-57 0.5l73 31q33 0 65 -2.5t56 -18.5q13 -9 22.5 -21.5t17 -30t15 -41.5t16.5 -56zM261 220q-5 20 -9 28t-14 8q-8 0 -28.5 -9t-42.5 -25.5t-39 -40.5t-17 -55q0 -22 9 -37.5t23 -25.5t31 -14.5t33 -4.5q39 0 61.5 15t32.5 25
q-5 15 -8.5 24.5t-6.5 20t-6.5 23.5t-9.5 34zM224 654q18 0 32 -7t23.5 -18t14 -24.5t4.5 -25.5q0 -29 -21 -51.5t-55 -22.5q-32 0 -53 22.5t-21 50.5q0 29 20.5 52.5t55.5 23.5zM274 580q0 19 -13.5 35t-36.5 16t-37.5 -16t-14.5 -35q0 -20 14.5 -36t36.5 -16t36.5 15.5
t14.5 36.5z" />
    <glyph glyph-name="ae" unicode="&#xe6;" horiz-adv-x="667" 
d="M624 23q-15 -8 -30 -14.5t-31 -11.5q-19 -7 -37.5 -9.5t-35.5 -2.5q-34 0 -60 8t-46 20.5t-36 28.5t-29 32l-52 -51q-16 -9 -46.5 -23t-76.5 -14q-61 0 -92.5 31.5t-31.5 73.5q0 34 17 62.5t47 52.5t71.5 44t90.5 38l-11 36q-14 39 -27 59.5t-31.5 30t-44 11t-63.5 0.5
l73 32q30 0 56.5 -1t49 -8.5t39 -24t27.5 -47.5q10 11 26 26.5t38.5 30t51 24.5t64.5 10q22 0 47 -5.5t48.5 -20t42.5 -39t29 -61.5l-226 -97l-72 -7q5 -44 22.5 -80.5t44 -63t60 -41.5t70.5 -15q38 0 66 11.5t53 25.5zM541 324q5 2 12 7.5t7 16.5q0 15 -7.5 30.5t-20 27.5
t-29 20t-35.5 8q-11 0 -29.5 -5.5t-36.5 -20.5t-31 -42t-13 -70q0 -14 1 -27.5t3 -27.5zM312 88q-14 22 -23 47.5t-18 63.5q-8 32 -12.5 44.5t-17.5 12.5q-9 0 -29.5 -10t-42 -27t-37.5 -41.5t-16 -52.5q0 -36 26.5 -59.5t69.5 -23.5q40 0 63 16t37 30z" />
    <glyph glyph-name="ccedilla" unicode="&#xe7;" horiz-adv-x="396" 
d="M385 23q-8 -4 -16 -7.5t-16 -7.5q-25 -11 -45 -14t-30 -5l-23 -46l6 -4l6 -4q17 -12 29 -33t12 -49q0 -21 -8.5 -43.5t-25.5 -45.5q-10 -12 -19 -20l-18 -16l-64 -28q11 9 23.5 20.5t23 25t17.5 29t7 34.5t-6 32t-15.5 22t-21 14.5t-21.5 10.5q28 41 39 64t16 35
q-17 2 -37.5 5t-46.5 15q-35 17 -57.5 43.5t-36.5 56t-19.5 59t-5.5 53.5q0 40 14.5 83.5t48 80t88 60t133.5 23.5q36 0 59.5 -4t43.5 -9l-79 -80l-42 -15l36 48q-11 6 -30.5 14t-50.5 8q-23 0 -47 -8.5t-43.5 -27.5t-32 -48.5t-12.5 -72.5q0 -39 11.5 -79.5t35 -74.5
t60.5 -55.5t88 -21.5q42 0 71 12t54 26z" />
    <glyph glyph-name="egrave" unicode="&#xe8;" horiz-adv-x="437" 
d="M397 22q-8 -5 -16.5 -9.5t-16.5 -8.5q-25 -11 -49.5 -15t-47.5 -4q-12 0 -27 1t-32.5 4.5t-36 11.5t-37.5 22q-27 19 -46 43.5t-31.5 52.5t-18.5 57.5t-6 57.5q0 58 21.5 101.5t54.5 72t73.5 43t79.5 14.5q27 0 53.5 -7t49.5 -21q19 -12 31 -26t20 -27.5t12 -25t7 -20.5
l-235 -95l-77 -6q9 -48 29 -85t47.5 -63t60.5 -39.5t69 -13.5q38 0 67 11t55 24zM303 320q14 5 21.5 10.5t7.5 16.5q0 15 -8 30.5t-21.5 27.5t-31.5 20t-38 8q-15 0 -35 -6.5t-37.5 -22.5t-30 -43t-12.5 -67q0 -13 1 -26t2 -27zM331 525l-217 48l-68 51l215 -49z" />
    <glyph glyph-name="eacute" unicode="&#xe9;" horiz-adv-x="437" 
d="M397 22q-8 -5 -16.5 -9.5t-16.5 -8.5q-25 -11 -49.5 -15t-47.5 -4q-12 0 -27 1t-32.5 4.5t-36 11.5t-37.5 22q-27 19 -46 43.5t-31.5 52.5t-18.5 57.5t-6 57.5q0 58 21.5 101.5t54.5 72t73.5 43t79.5 14.5q27 0 53.5 -7t49.5 -21q19 -12 31 -26t20 -27.5t12 -25t7 -20.5
l-235 -95l-77 -6q9 -48 29 -85t47.5 -63t60.5 -39.5t69 -13.5q38 0 67 11t55 24zM303 320q14 5 21.5 10.5t7.5 16.5q0 15 -8 30.5t-21.5 27.5t-31.5 20t-38 8q-15 0 -35 -6.5t-37.5 -22.5t-30 -43t-12.5 -67q0 -13 1 -26t2 -27zM392 573l-213 -48l68 50l215 49z" />
    <glyph glyph-name="ecircumflex" unicode="&#xea;" horiz-adv-x="437" 
d="M397 22q-8 -5 -16.5 -9.5t-16.5 -8.5q-25 -11 -49.5 -15t-47.5 -4q-12 0 -27 1t-32.5 4.5t-36 11.5t-37.5 22q-27 19 -46 43.5t-31.5 52.5t-18.5 57.5t-6 57.5q0 58 21.5 101.5t54.5 72t73.5 43t79.5 14.5q27 0 53.5 -7t49.5 -21q19 -12 31 -26t20 -27.5t12 -25t7 -20.5
l-235 -95l-77 -6q9 -48 29 -85t47.5 -63t60.5 -39.5t69 -13.5q38 0 67 11t55 24zM303 320q14 5 21.5 10.5t7.5 16.5q0 15 -8 30.5t-21.5 27.5t-31.5 20t-38 8q-15 0 -35 -6.5t-37.5 -22.5t-30 -43t-12.5 -67q0 -13 1 -26t2 -27zM394 560l-51 -22l-100 46l-155 -55l89 66
l80 29z" />
    <glyph glyph-name="edieresis" unicode="&#xeb;" horiz-adv-x="437" 
d="M397 22q-8 -5 -16.5 -9.5t-16.5 -8.5q-25 -11 -49.5 -15t-47.5 -4q-12 0 -27 1t-32.5 4.5t-36 11.5t-37.5 22q-27 19 -46 43.5t-31.5 52.5t-18.5 57.5t-6 57.5q0 58 21.5 101.5t54.5 72t73.5 43t79.5 14.5q27 0 53.5 -7t49.5 -21q19 -12 31 -26t20 -27.5t12 -25t7 -20.5
l-235 -95l-77 -6q9 -48 29 -85t47.5 -63t60.5 -39.5t69 -13.5q38 0 67 11t55 24zM303 320q14 5 21.5 10.5t7.5 16.5q0 15 -8 30.5t-21.5 27.5t-31.5 20t-38 8q-15 0 -35 -6.5t-37.5 -22.5t-30 -43t-12.5 -67q0 -13 1 -26t2 -27zM346 529q-10 10 -16.5 17.5t-12 15
t-11.5 16.5t-15 22q13 10 21.5 16.5t15.5 12.5t14.5 12.5t18.5 16.5l15 -20t11.5 -14.5t12 -14.5t17.5 -20q-11 -11 -19 -18t-15.5 -13t-16 -13t-20.5 -16zM134 528q-11 10 -18 17.5t-13 14.5t-12 15.5t-15 21.5q12 9 20 16t15.5 13.5t15 13.5t18.5 17q10 -12 16.5 -20
t12.5 -15t13 -14.5t16 -17.5l-18.5 -18.5t-15 -14t-15.5 -13.5t-20 -16z" />
    <glyph glyph-name="igrave" unicode="&#xec;" horiz-adv-x="250" 
d="M223 0h-169q9 10 14.5 16.5t8 12.5t3.5 14t1 21v354h-75l67 35h120q-6 -8 -9 -13.5t-4.5 -10.5t-2.5 -11t-1 -16l-4 -290v-10t-0.5 -15t-0.5 -15.5v-10.5q0 -22 8.5 -27t31.5 -7l51 -4zM207 525l-217 48l-68 51l215 -49z" />
    <glyph glyph-name="iacute" unicode="&#xed;" horiz-adv-x="250" 
d="M223 0h-169q9 10 14.5 16.5t8 12.5t3.5 14t1 21v354h-75l67 35h120q-6 -8 -9 -13.5t-4.5 -10.5t-2.5 -11t-1 -16l-4 -290v-10t-0.5 -15t-0.5 -15.5v-10.5q0 -22 8.5 -27t31.5 -7l51 -4zM267 573l-213 -48l68 50l215 49z" />
    <glyph glyph-name="icircumflex" unicode="&#xee;" horiz-adv-x="250" 
d="M223 0h-169q9 10 14.5 16.5t8 12.5t3.5 14t1 21v354h-75l67 35h120q-6 -8 -9 -13.5t-4.5 -10.5t-2.5 -11t-1 -16l-4 -290v-10t-0.5 -15t-0.5 -15.5v-10.5q0 -22 8.5 -27t31.5 -7l51 -4zM280 560l-51 -22l-100 46l-155 -55l89 66l80 29z" />
    <glyph glyph-name="idieresis" unicode="&#xef;" horiz-adv-x="250" 
d="M223 0h-169q9 10 14.5 16.5t8 12.5t3.5 14t1 21v354h-75l67 35h120q-6 -8 -9 -13.5t-4.5 -10.5t-2.5 -11t-1 -16l-4 -290v-10t-0.5 -15t-0.5 -15.5v-10.5q0 -22 8.5 -27t31.5 -7l51 -4zM232 529q-10 10 -16.5 17.5t-12 15t-11.5 16.5t-15 22q13 10 21.5 16.5t15.5 12.5
t14.5 12.5t18.5 16.5l15 -20t11.5 -14.5t12 -14.5t17.5 -20q-11 -11 -19 -18t-15.5 -13t-16 -13t-20.5 -16zM20 528q-11 10 -18 17.5t-13 14.5t-12 15.5t-15 21.5q12 9 20 16t15.5 13.5t15 13.5t18.5 17q10 -12 16.5 -20t12.5 -15t13 -14.5t16 -17.5l-18.5 -18.5t-15 -14
t-15.5 -13.5t-20 -16z" />
    <glyph glyph-name="eth" unicode="&#xf0;" horiz-adv-x="542" 
d="M216 712q32 -17 61.5 -37t56.5 -43l129 46l-27 -45l-75 -26q7 -7 21 -22t30.5 -37t33.5 -51.5t31 -65.5q13 -35 22 -78.5t9 -91.5q0 -54 -14.5 -103.5t-43.5 -87.5t-73 -60.5t-104 -22.5q-57 0 -101.5 18.5t-75 51t-47 75.5t-16.5 92q0 54 18.5 98.5t51.5 76.5t77.5 49.5
t96.5 17.5q23 0 45 -3.5t42 -16.5q-4 10 -11 25.5t-17.5 33.5t-24.5 37t-31 35l-183 -65l28 45l127 46q-11 9 -40.5 30.5t-83.5 46.5zM407 228q0 14 -1 31.5t-3.5 35.5t-6 35.5t-9.5 32.5q-2 6 -8 18t-18 24.5t-31.5 22t-49.5 9.5q-29 0 -49.5 -8.5t-34.5 -20.5t-22.5 -25
t-12.5 -21q-17 -32 -21 -69t-4 -63q0 -99 36 -156.5t102 -57.5q15 0 27 3t21 7q17 8 35 27t31 52q12 30 15.5 63.5t3.5 59.5z" />
    <glyph glyph-name="ntilde" unicode="&#xf1;" horiz-adv-x="562" 
d="M529 0h-167q14 15 18.5 26t5.5 33l4 171q0 37 -0.5 61t-2.5 41t-7.5 28.5t-14.5 23.5q-6 9 -21 19t-41 10q-19 0 -34 -6t-26.5 -13.5t-19.5 -15.5t-11 -12q-6 -6 -17 -20.5t-20 -26.5l-6 -236q0 -17 0.5 -26.5t3.5 -15t10 -8t19 -3.5l58 -6l-41 -24h-168q9 9 14.5 15.5
t8.5 14t4 17t1 24.5q0 88 1 176t3 176h-75l67 31h120q-7 -8 -11 -14t-5.5 -13.5t-2 -19t-0.5 -29.5q17 17 30 29.5t27 22.5q22 16 52 28t65 12q42 0 73 -18.5t46 -49.5q13 -26 15 -57.5t2 -63.5l-5 -206q0 -27 4 -34.5t24 -9.5l62 -7zM367 554q-2 -1 -8 -2t-13.5 -1.5
t-14.5 -1t-10 -0.5q-12 0 -21.5 1.5t-20.5 3.5q-28 6 -44 7.5t-27 1.5q-31 0 -49 -7.5t-40 -20.5l83 60q15 3 29 3q10 0 24 -2t26 -4q40 -6 66 -6q28 0 47.5 5.5t41.5 13.5z" />
    <glyph glyph-name="ograve" unicode="&#xf2;" horiz-adv-x="562" 
d="M530 230q0 -44 -17 -87.5t-49 -78t-79.5 -56t-108.5 -21.5q-60 0 -105.5 21t-76 55t-46.5 76t-16 84q0 49 19 93t53.5 77.5t82 53t104.5 19.5q55 0 99.5 -20t75.5 -53t47.5 -75.5t16.5 -87.5zM299 17q29 0 57 13.5t45 37.5q18 24 24 53t6 58q0 33 -8.5 77t-28 84
t-51.5 67.5t-78 27.5q-25 0 -48.5 -9t-41.5 -25q-29 -26 -37.5 -58t-8.5 -64q0 -37 9.5 -82.5t30 -85.5t53 -67t77.5 -27zM363 525l-217 48l-68 51l215 -49z" />
    <glyph glyph-name="oacute" unicode="&#xf3;" horiz-adv-x="562" 
d="M530 230q0 -44 -17 -87.5t-49 -78t-79.5 -56t-108.5 -21.5q-60 0 -105.5 21t-76 55t-46.5 76t-16 84q0 49 19 93t53.5 77.5t82 53t104.5 19.5q55 0 99.5 -20t75.5 -53t47.5 -75.5t16.5 -87.5zM299 17q29 0 57 13.5t45 37.5q18 24 24 53t6 58q0 33 -8.5 77t-28 84
t-51.5 67.5t-78 27.5q-25 0 -48.5 -9t-41.5 -25q-29 -26 -37.5 -58t-8.5 -64q0 -37 9.5 -82.5t30 -85.5t53 -67t77.5 -27zM440 573l-213 -48l68 50l215 49z" />
    <glyph glyph-name="ocircumflex" unicode="&#xf4;" horiz-adv-x="562" 
d="M530 230q0 -44 -17 -87.5t-49 -78t-79.5 -56t-108.5 -21.5q-60 0 -105.5 21t-76 55t-46.5 76t-16 84q0 49 19 93t53.5 77.5t82 53t104.5 19.5q55 0 99.5 -20t75.5 -53t47.5 -75.5t16.5 -87.5zM299 17q29 0 57 13.5t45 37.5q18 24 24 53t6 58q0 33 -8.5 77t-28 84
t-51.5 67.5t-78 27.5q-25 0 -48.5 -9t-41.5 -25q-29 -26 -37.5 -58t-8.5 -64q0 -37 9.5 -82.5t30 -85.5t53 -67t77.5 -27zM426 560l-51 -22l-100 46l-155 -55l89 66l80 29z" />
    <glyph glyph-name="otilde" unicode="&#xf5;" horiz-adv-x="562" 
d="M530 230q0 -44 -17 -87.5t-49 -78t-79.5 -56t-108.5 -21.5q-60 0 -105.5 21t-76 55t-46.5 76t-16 84q0 49 19 93t53.5 77.5t82 53t104.5 19.5q55 0 99.5 -20t75.5 -53t47.5 -75.5t16.5 -87.5zM299 17q29 0 57 13.5t45 37.5q18 24 24 53t6 58q0 33 -8.5 77t-28 84
t-51.5 67.5t-78 27.5q-25 0 -48.5 -9t-41.5 -25q-29 -26 -37.5 -58t-8.5 -64q0 -37 9.5 -82.5t30 -85.5t53 -67t77.5 -27zM367 554q-2 -1 -8 -2t-13.5 -1.5t-14.5 -1t-10 -0.5q-12 0 -21.5 1.5t-20.5 3.5q-28 6 -44 7.5t-27 1.5q-31 0 -49 -7.5t-40 -20.5l83 60q15 3 29 3
q10 0 24 -2t26 -4q40 -6 66 -6q28 0 47.5 5.5t41.5 13.5z" />
    <glyph glyph-name="odieresis" unicode="&#xf6;" horiz-adv-x="562" 
d="M530 230q0 -44 -17 -87.5t-49 -78t-79.5 -56t-108.5 -21.5q-60 0 -105.5 21t-76 55t-46.5 76t-16 84q0 49 19 93t53.5 77.5t82 53t104.5 19.5q55 0 99.5 -20t75.5 -53t47.5 -75.5t16.5 -87.5zM299 17q29 0 57 13.5t45 37.5q18 24 24 53t6 58q0 33 -8.5 77t-28 84
t-51.5 67.5t-78 27.5q-25 0 -48.5 -9t-41.5 -25q-29 -26 -37.5 -58t-8.5 -64q0 -37 9.5 -82.5t30 -85.5t53 -67t77.5 -27zM378 529q-10 10 -16.5 17.5t-12 15t-11.5 16.5t-15 22q13 10 21.5 16.5t15.5 12.5t14.5 12.5t18.5 16.5l15 -20t11.5 -14.5t12 -14.5t17.5 -20
q-11 -11 -19 -18t-15.5 -13t-16 -13t-20.5 -16zM166 528q-11 10 -18 17.5t-13 14.5t-12 15.5t-15 21.5q12 9 20 16t15.5 13.5t15 13.5t18.5 17q10 -12 16.5 -20t12.5 -15t13 -14.5t16 -17.5l-18.5 -18.5t-15 -14t-15.5 -13.5t-20 -16z" />
    <glyph glyph-name="divide" unicode="&#xf7;" horiz-adv-x="500" 
d="M251 206q15 0 31 -11t16 -35q0 -23 -15 -34t-29 -11q-20 0 -34 12t-14 32q0 19 12.5 33t32.5 14zM251 466q23 0 35 -14t12 -31.5t-11.5 -31.5t-34.5 -14q-18 0 -32 12t-14 33q0 23 15.5 34.5t29.5 11.5zM500 261h-500v59h500v-59z" />
    <glyph glyph-name="oslash" unicode="&#xf8;" horiz-adv-x="562" 
d="M470 387q58 -68 58 -160q0 -51 -19.5 -95.5t-53 -77t-80 -51t-100.5 -18.5q-56 0 -91.5 15.5t-69.5 41.5l-37 -35l-53 -7l66 66q-26 34 -41 74t-15 84q0 50 20 94t54.5 77t81.5 52t102 19q43 0 81 -13q29 -10 44.5 -21t27.5 -21l39 36l53 8zM385 353q-8 15 -20 32.5
t-38 32.5q-30 16 -62 16q-28 0 -55.5 -12.5t-45.5 -32.5q-20 -23 -28 -53t-8 -62q0 -47 10.5 -82.5t20.5 -59.5zM174 100q8 -13 20.5 -31t36.5 -34q15 -9 32.5 -14.5t36.5 -5.5q29 0 56 13t45 36q12 15 18.5 31.5t9.5 32t3.5 28.5t0.5 21q0 53 -11.5 88t-20.5 55z" />
    <glyph glyph-name="ugrave" unicode="&#xf9;" horiz-adv-x="562" 
d="M563 0q-2 -1 -27 -8t-54 -7t-46.5 8.5t-28 20t-14.5 23t-6 18.5q-3 -2 -9.5 -7t-14.5 -10t-15 -10t-10 -7q-25 -16 -53 -25.5t-65 -9.5q-47 0 -84 19t-53 63q-2 6 -4.5 14.5t-4 24.5t-2.5 43t-1 71q0 29 1.5 82.5t4.5 115.5h-85l66 34h135q-9 -11 -14 -19t-7.5 -16.5
t-3.5 -20t-1 -30.5l-1 -88v-66.5t0.5 -39.5t1 -22.5t1.5 -14.5q1 -9 4 -23.5t13 -29t29.5 -24.5t54.5 -10q39 0 67 12t50 26q0 92 1 174t3 158h-76l60 34h134q-9 -10 -13.5 -17.5t-7 -15t-3.5 -17.5t-1 -25l-2 -144q0 -15 -0.5 -33t-0.5 -34.5t0.5 -31t0.5 -23.5
q1 -20 3.5 -36.5t10.5 -28.5t23 -19t41 -7q10 0 20.5 0.5t18.5 1.5zM363 525l-217 48l-68 51l215 -49z" />
    <glyph glyph-name="uacute" unicode="&#xfa;" horiz-adv-x="562" 
d="M563 0q-2 -1 -27 -8t-54 -7t-46.5 8.5t-28 20t-14.5 23t-6 18.5q-3 -2 -9.5 -7t-14.5 -10t-15 -10t-10 -7q-25 -16 -53 -25.5t-65 -9.5q-47 0 -84 19t-53 63q-2 6 -4.5 14.5t-4 24.5t-2.5 43t-1 71q0 29 1.5 82.5t4.5 115.5h-85l66 34h135q-9 -11 -14 -19t-7.5 -16.5
t-3.5 -20t-1 -30.5l-1 -88v-66.5t0.5 -39.5t1 -22.5t1.5 -14.5q1 -9 4 -23.5t13 -29t29.5 -24.5t54.5 -10q39 0 67 12t50 26q0 92 1 174t3 158h-76l60 34h134q-9 -10 -13.5 -17.5t-7 -15t-3.5 -17.5t-1 -25l-2 -144q0 -15 -0.5 -33t-0.5 -34.5t0.5 -31t0.5 -23.5
q1 -20 3.5 -36.5t10.5 -28.5t23 -19t41 -7q10 0 20.5 0.5t18.5 1.5zM424 573l-213 -48l68 50l215 49z" />
    <glyph glyph-name="ucircumflex" unicode="&#xfb;" horiz-adv-x="562" 
d="M563 0q-2 -1 -27 -8t-54 -7t-46.5 8.5t-28 20t-14.5 23t-6 18.5q-3 -2 -9.5 -7t-14.5 -10t-15 -10t-10 -7q-25 -16 -53 -25.5t-65 -9.5q-47 0 -84 19t-53 63q-2 6 -4.5 14.5t-4 24.5t-2.5 43t-1 71q0 29 1.5 82.5t4.5 115.5h-85l66 34h135q-9 -11 -14 -19t-7.5 -16.5
t-3.5 -20t-1 -30.5l-1 -88v-66.5t0.5 -39.5t1 -22.5t1.5 -14.5q1 -9 4 -23.5t13 -29t29.5 -24.5t54.5 -10q39 0 67 12t50 26q0 92 1 174t3 158h-76l60 34h134q-9 -10 -13.5 -17.5t-7 -15t-3.5 -17.5t-1 -25l-2 -144q0 -15 -0.5 -33t-0.5 -34.5t0.5 -31t0.5 -23.5
q1 -20 3.5 -36.5t10.5 -28.5t23 -19t41 -7q10 0 20.5 0.5t18.5 1.5zM437 560l-51 -22l-100 46l-155 -55l89 66l80 29z" />
    <glyph glyph-name="udieresis" unicode="&#xfc;" horiz-adv-x="562" 
d="M563 0q-2 -1 -27 -8t-54 -7t-46.5 8.5t-28 20t-14.5 23t-6 18.5q-3 -2 -9.5 -7t-14.5 -10t-15 -10t-10 -7q-25 -16 -53 -25.5t-65 -9.5q-47 0 -84 19t-53 63q-2 6 -4.5 14.5t-4 24.5t-2.5 43t-1 71q0 29 1.5 82.5t4.5 115.5h-85l66 34h135q-9 -11 -14 -19t-7.5 -16.5
t-3.5 -20t-1 -30.5l-1 -88v-66.5t0.5 -39.5t1 -22.5t1.5 -14.5q1 -9 4 -23.5t13 -29t29.5 -24.5t54.5 -10q39 0 67 12t50 26q0 92 1 174t3 158h-76l60 34h134q-9 -10 -13.5 -17.5t-7 -15t-3.5 -17.5t-1 -25l-2 -144q0 -15 -0.5 -33t-0.5 -34.5t0.5 -31t0.5 -23.5
q1 -20 3.5 -36.5t10.5 -28.5t23 -19t41 -7q10 0 20.5 0.5t18.5 1.5zM373 529q-10 10 -16.5 17.5t-12 15t-11.5 16.5t-15 22q13 10 21.5 16.5t15.5 12.5t14.5 12.5t18.5 16.5l15 -20t11.5 -14.5t12 -14.5t17.5 -20q-11 -11 -19 -18t-15.5 -13t-16 -13t-20.5 -16zM161 528
q-11 10 -18 17.5t-13 14.5t-12 15.5t-15 21.5q12 9 20 16t15.5 13.5t15 13.5t18.5 17q10 -12 16.5 -20t12.5 -15t13 -14.5t16 -17.5l-18.5 -18.5t-15 -14t-15.5 -13.5t-20 -16z" />
    <glyph glyph-name="yacute" unicode="&#xfd;" horiz-adv-x="437" 
d="M208 -264h-120q6 6 11 11.5t9.5 12.5t9.5 17t13 25l64 135q6 13 10.5 22t7.5 15.5l6 13t6 14.5l-50 -16q-14 36 -30.5 83t-31.5 91t-26.5 77.5t-14.5 42.5q-12 37 -19 59t-12 36t-8.5 23.5t-7.5 21.5h-71l62 33h122q-8 -16 -9.5 -20.5t-1.5 -9.5q0 -9 5.5 -27t9.5 -29
q8 -23 14.5 -45t13.5 -44l55 -164q6 -18 10.5 -30.5t10.5 -28.5l41 98q14 35 27.5 69.5t27.5 69.5q14 37 24 66t17 62h-93l59 33h103q-6 -8 -10 -12.5t-7 -9t-5.5 -10.5t-6.5 -16q-18 -48 -31 -82t-24 -62t-21 -54t-23.5 -58t-31 -74l-42.5 -102q-19 -45 -37 -89t-37 -89
q-1 -4 -2 -7.5t-1 -7.5q0 -9 11 -14q6 -2 18.5 -4t45.5 -5zM361 573l-213 -48l68 50l215 49z" />
    <glyph glyph-name="thorn" unicode="&#xfe;" horiz-adv-x="542" 
d="M219 706q-8 -5 -15.5 -9.5t-12.5 -11.5q-7 -8 -8.5 -18.5t-2.5 -24.5l-8 -266q33 23 53 37t33.5 23t25 14.5t26.5 11.5q5 1 9.5 1h9.5q30 0 61.5 -9.5t58 -31.5t43.5 -59t17 -91q0 -71 -26 -122.5t-61 -83.5q-30 -26 -60.5 -40.5t-63 -21.5t-66 -8.5t-67.5 -1.5l-6 -180
q-1 -15 0 -24t4.5 -13.5t11 -7t19.5 -3.5q12 -2 23.5 -2.5t23.5 -2.5l-35 -23h-180q21 14 26.5 19t7.5 11q2 4 3.5 15.5t2 26.5t1 32.5t0.5 33.5q0 29 1 59t2 59l4 272q1 60 1.5 98.5t1 70.5t1.5 65.5t3 84.5q1 22 1 43.5t1 43.5h-73l73 34h136zM171 336q0 -12 -0.5 -37
t-1 -57.5t-1 -68t-1.5 -68.5t-1.5 -59t-0.5 -39l52 33q28 0 53 0.5t46 4t39 11.5t33 22q23 22 32.5 52t9.5 62q0 50 -14 88.5t-35.5 64.5t-47 39.5t-49.5 13.5q-28 0 -48.5 -13t-37.5 -28z" />
    <glyph glyph-name="ydieresis" unicode="&#xff;" horiz-adv-x="437" 
d="M208 -264h-120q6 6 11 11.5t9.5 12.5t9.5 17t13 25l64 135q6 13 10.5 22t7.5 15.5l6 13t6 14.5l-50 -16q-14 36 -30.5 83t-31.5 91t-26.5 77.5t-14.5 42.5q-12 37 -19 59t-12 36t-8.5 23.5t-7.5 21.5h-71l62 33h122q-8 -16 -9.5 -20.5t-1.5 -9.5q0 -9 5.5 -27t9.5 -29
q8 -23 14.5 -45t13.5 -44l55 -164q6 -18 10.5 -30.5t10.5 -28.5l41 98q14 35 27.5 69.5t27.5 69.5q14 37 24 66t17 62h-93l59 33h103q-6 -8 -10 -12.5t-7 -9t-5.5 -10.5t-6.5 -16q-18 -48 -31 -82t-24 -62t-21 -54t-23.5 -58t-31 -74l-42.5 -102q-19 -45 -37 -89t-37 -89
q-1 -4 -2 -7.5t-1 -7.5q0 -9 11 -14q6 -2 18.5 -4t45.5 -5zM325 529q-10 10 -16.5 17.5t-12 15t-11.5 16.5t-15 22q13 10 21.5 16.5t15.5 12.5t14.5 12.5t18.5 16.5l15 -20t11.5 -14.5t12 -14.5t17.5 -20q-11 -11 -19 -18t-15.5 -13t-16 -13t-20.5 -16zM113 528
q-11 10 -18 17.5t-13 14.5t-12 15.5t-15 21.5q12 9 20 16t15.5 13.5t15 13.5t18.5 17q10 -12 16.5 -20t12.5 -15t13 -14.5t16 -17.5l-18.5 -18.5t-15 -14t-15.5 -13.5t-20 -16z" />
    <glyph glyph-name="dotlessi" unicode="&#x131;" horiz-adv-x="250" 
d="M223 0h-169q9 10 14.5 16.5t8 12.5t3.5 14t1 21v354h-75l67 35h120q-6 -8 -9 -13.5t-4.5 -10.5t-2.5 -11t-1 -16l-4 -290v-10t-0.5 -15t-0.5 -15.5v-10.5q0 -22 8.5 -27t31.5 -7l51 -4z" />
    <glyph glyph-name="Lslash" unicode="&#x141;" horiz-adv-x="542" 
d="M493 0h-426q11 11 18 19t11.5 16.5t6 19t1.5 26.5v186l-96 -83l15 58l81 72q1 39 1.5 68t1 53t1.5 44.5t2 41.5q1 32 2.5 65t2.5 65v9t1 9h-97l68 37h172l-22 -22q-9 -8 -13 -14t-6 -16q-1 -5 -2.5 -31.5t-2.5 -58t-1.5 -59t-0.5 -35.5l-1 -62l181 156l-15 -59l-166 -146
v-32q0 -22 -0.5 -49t-0.5 -55t-0.5 -55t-0.5 -49v-23.5t1 -16.5q1 -5 2.5 -14t7.5 -16t20.5 -10.5t31.5 -5t33.5 -2t26.5 -0.5q25 0 49.5 1t48.5 3q22 2 37 4.5t26.5 6.5t20.5 8.5l19 9.5l53 18z" />
    <glyph glyph-name="lslash" unicode="&#x142;" horiz-adv-x="250" 
d="M228 0h-177q9 11 14 18t7.5 12t3.5 10t1 13v193l-73 -83l9 61l64 76q2 93 3.5 185t6.5 185h-77l75 36h143q-15 -9 -23.5 -15.5t-14 -16.5t-7.5 -26.5t-3 -45.5q-2 -47 -3.5 -92.5t-1.5 -92.5l74 85l-9 -62l-65 -77v-289q0 -18 2.5 -27.5t11.5 -14.5q3 -1 5.5 -2t9.5 -1.5
t21 -2t40 -4.5z" />
    <glyph glyph-name="OE" unicode="&#x152;" horiz-adv-x="1021" 
d="M952 0h-366q-12 0 -19.5 -0.5t-14.5 -1t-16 -2t-24 -4.5q-21 -5 -42 -6.5t-43 -1.5q-96 0 -169 31.5t-121.5 82.5t-73.5 116.5t-25 133.5q0 81 32 151.5t90 121.5q55 48 129.5 74t152.5 26q20 0 39.5 -2t39.5 -4t39.5 -5t39.5 -3h379l-65 -65l-27 -3q3 5 7.5 11t5.5 7
q0 2 0.5 2.5t0.5 2.5q0 5 -4 6t-6 1q-5 0 -16 0.5t-24 1t-25 0.5h-18l-110 1l-3 -148q-1 -24 -1.5 -41t-0.5 -31.5v-29.5v-35h227l-58 -53l-28 -7q3 4 7 9t4 6q1 1 1 4q0 6 -4.5 7t-7.5 1h-114q-20 0 -25 -7t-5 -21l2 -243q0 -14 2.5 -24t13.5 -16t34 -8.5t65 -2.5
q24 0 48 1t47 4q37 5 55.5 12t33.5 15l54 19zM459 23q15 0 30.5 2t30.5 5.5t28 9t21 12.5q11 9 13 19t4 24q0 7 0.5 26t0.5 40.5v41v29.5q0 43 0.5 73.5t0.5 55t0.5 46t1 46t1.5 55.5t2 75q0 25 -0.5 34.5t-5.5 17.5q-6 10 -20.5 19t-35 16t-45.5 10.5t-52 3.5
q-70 0 -123.5 -22.5t-90 -62.5t-55 -94.5t-18.5 -118.5q0 -31 4.5 -62.5t15.5 -63.5q12 -36 36 -78t60.5 -77t85.5 -58.5t110 -23.5z" />
    <glyph glyph-name="oe" unicode="&#x153;" horiz-adv-x="812" 
d="M784 24q-13 -6 -25.5 -11.5t-26.5 -10.5q-39 -15 -83 -15q-39 0 -68.5 11t-50.5 26t-34 30t-19 24q-38 -39 -84 -66t-116 -27q-62 0 -108 21.5t-76.5 56t-45.5 77t-15 83.5q0 52 20 96.5t55 77t82.5 51t101.5 18.5q52 0 99 -19q39 -16 57.5 -35t29.5 -34q8 11 28.5 31
t55.5 37q45 21 95 21q37 0 65 -11.5t48 -29.5t32.5 -41t19.5 -45l-227 -96l-72 -6q4 -19 9 -37.5t16 -43.5q30 -63 77.5 -91.5t95.5 -28.5q38 0 65.5 11.5t48.5 22.5zM522 243l86 40t87 39q11 5 18 10.5t7 16.5q0 10 -6 24.5t-18 28t-29.5 23.5t-40.5 10q-13 0 -31.5 -6
t-36 -22t-29.5 -43.5t-12 -70.5q0 -14 1.5 -25t3.5 -25zM431 176q0 18 -3 44t-11 55t-20.5 57.5t-31 51.5t-44 37t-58.5 14q-26 0 -52.5 -11.5t-43.5 -29.5q-14 -14 -22 -30.5t-11.5 -32t-4.5 -29.5t-1 -23q0 -23 4 -51.5t12.5 -58t22 -57t33 -49.5t44 -35t56.5 -13
q4 0 25.5 3t44.5 18t42 47.5t19 92.5z" />
    <glyph glyph-name="Scaron" unicode="&#x160;" horiz-adv-x="562" 
d="M391 376q18 -10 40 -24t41 -34.5t32 -49t13 -68.5q0 -45 -19 -84t-54 -68.5t-84 -46t-109 -16.5q-59 0 -115.5 13.5t-110.5 36.5l78 88l27 6l-17 -34q-3 -5 -3 -8q0 -4 5 -11q6 -7 22.5 -16.5t38.5 -18.5t47.5 -15t50.5 -6q33 0 60.5 10.5t48 28.5t32 42t11.5 52
q0 16 -4 30t-9 25q-18 39 -50 60.5t-66 38.5l-69 33q-32 16 -63.5 35.5t-52.5 52.5q-14 22 -20 45.5t-6 43.5q0 30 13 66t41.5 66.5t72.5 51t107 20.5q38 0 86.5 -9.5t99.5 -38.5l-76 -81l-26 -6l16 30q5 12 5 14q0 5 -8 15t-23 19.5t-37 17t-50 7.5t-52.5 -9t-43 -25.5
t-29 -39t-10.5 -49.5q0 -32 13 -55.5t32.5 -40.5t43 -29.5t43.5 -22.5zM176 823l51 23l99 -46l155 55l-89 -67l-79 -29z" />
    <glyph glyph-name="scaron" unicode="&#x161;" horiz-adv-x="375" 
d="M252 261q24 -13 48.5 -30.5t37.5 -53.5q7 -17 7 -37q0 -30 -12 -57.5t-36 -49t-59.5 -34t-81.5 -12.5q-16 0 -39 2t-52 10q-27 8 -43.5 15.5t-30.5 15.5l62 64l34 6l-21 -33q28 -19 55 -33t65 -14q24 0 40 7t25.5 17.5t14 23.5t4.5 25q0 19 -7 32.5t-17.5 23.5t-24 17
t-25.5 13l-71 32q-14 8 -27 15t-24 18q-14 14 -23 34.5t-9 45.5t11 50t32.5 45.5t55 33.5t78.5 13q35 0 67.5 -8t63.5 -22l-45 -59l-37 -15l18 37q-21 12 -45.5 23.5t-53.5 11.5q-20 0 -33.5 -6.5t-21.5 -16.5t-11.5 -22t-3.5 -22q0 -17 6 -29t15.5 -21t21 -15t21.5 -10z
M62 594l51 22l99 -46l155 55l-89 -66l-79 -29z" />
    <glyph glyph-name="Ydieresis" unicode="&#x178;" horiz-adv-x="625" 
d="M443 0h-204l22 34q6 11 7 16.5t2 18.5v221l-90 141q-22 32 -43 63.5t-43 63.5q-4 6 -15 21.5t-23.5 33t-24 33.5t-15.5 22h-87l70 39h173l-5.5 -5.5l-7.5 -7.5l-7.5 -7.5t-3.5 -4.5q-3 -3 -3 -9t3.5 -13t5.5 -12q7 -12 19 -31.5t39 -62.5l43 -65q3 -5 11.5 -17.5
t18.5 -26.5t19 -27t13 -18q1 -2 5.5 -8.5t9.5 -14l9 -13.5t5 -7l66 94q17 27 34.5 53.5t34.5 53.5q16 24 26 40l17.5 28t13 21.5t11.5 20.5h-122l68 39h160l-38 -28q-8 -7 -13.5 -11.5t-10 -10t-9.5 -12t-12 -16.5l-200 -304v-253q0 -17 3.5 -23.5t14.5 -9.5q14 -5 40.5 -8
t57.5 -6zM429 759q-10 10 -16.5 17.5t-12 15t-11.5 16t-15 22.5q13 10 21.5 16.5t15.5 12.5t14.5 12.5t18.5 15.5q9 -12 15 -19.5t11.5 -14t12 -14.5t17.5 -20q-11 -11 -19 -18t-15.5 -13.5t-16 -13t-20.5 -15.5zM217 758q-11 10 -18 17.5t-13 14.5t-12 15.5t-15 20.5
q12 10 20 17t15.5 13.5t15 13.5t18.5 17q10 -12 16.5 -20t12.5 -15.5t13 -15t16 -17.5l-18.5 -18.5t-15 -13.5t-15.5 -13t-20 -16z" />
    <glyph glyph-name="Zcaron" unicode="&#x17d;" horiz-adv-x="688" 
d="M552 -15l-40 -1l23 20l-528 -10q28 31 56 62.5t63 72.5t79.5 95t106.5 131l118 148q33 42 66 85t64 85l-339 -6l-94 -68l-61 -25l133 134l37 13q-3 -10 5 -14q3 -2 7 -2h7l448 7q-29 -42 -60 -84.5t-67 -90.5q-15 -20 -39 -51t-52 -66.5t-57.5 -73t-55.5 -70.5t-47 -59
t-31 -38q-5 -7 -22 -28t-36.5 -44.5t-36.5 -44.5t-22 -28l282 4q51 2 99 5t99 14q29 6 44 11.5t29 12.5l-36 -33zM270 823l51 23l99 -46l155 55l-89 -67l-79 -29z" />
    <glyph glyph-name="zcaron" unicode="&#x17e;" horiz-adv-x="417" 
d="M347 -13l-38 -12l26 28l-341 -8q18 24 29 38.5t19.5 26t17 22.5t20.5 28l105 152q24 34 41 59t30 43.5t22.5 33t18.5 28.5l-166 -4l-59 -43l-47 -15l94 94l33 7q0 -9 5 -10q3 -2 16 -2l248 6q-8 -11 -14.5 -21l-13 -20t-14 -21t-17.5 -26l-27 -39q-16 -25 -27 -42
t-23.5 -36t-29.5 -44.5t-45 -66.5q-15 -22 -25.5 -38t-19.5 -29t-17.5 -25t-18.5 -25l147 4q34 1 56 3t37 5.5t27 8t27 12.5l-14 -23zM103 594l51 22l99 -46l155 55l-89 -66l-79 -29z" />
    <glyph glyph-name="florin" unicode="&#x192;" horiz-adv-x="417" 
d="M1 -262q27 26 43 57t27.5 75.5t19.5 107.5t18 153q8 65 15 132t15 127l-93 -4l65 38h33q6 43 11.5 72t19.5 62q18 45 42.5 73t53 44t60 22t63.5 8q6 0 11 0.5t14.5 0.5h24.5h40l-72 -43q-8 2 -20 4.5t-28 2.5q-30 0 -49.5 -11t-31.5 -28.5t-18 -39t-10 -41.5
q-6 -30 -10 -62l-8 -64h179l-78 -34h-105q0 -2 -2 -15t-4 -29t-3.5 -30.5t-2.5 -19.5q-1 -8 -3 -25.5t-4.5 -39.5t-5.5 -46.5t-5.5 -47t-5 -40.5t-3.5 -27q-8 -64 -16 -113t-23 -87t-39 -67t-64 -51z" />
    <glyph glyph-name="circumflex" unicode="&#x2c6;" 
d="M289 560l-51 -22l-100 46l-155 -55l89 66l80 29z" />
    <glyph glyph-name="caron" unicode="&#x2c7;" 
d="M-17 594l51 22l99 -46l155 55l-89 -66l-79 -29z" />
    <glyph glyph-name="breve" unicode="&#x2d8;" 
d="M298 624l-6 -8t-7 -8q-37 -43 -79 -63t-71 -20q-13 0 -32 5t-41 16.5t-45 30.5t-44 47q34 -17 60 -27t45.5 -15t34.5 -6t26 -1q22 0 43 4t39 10t32 12t23 10q5 3 11 6.5t11 6.5z" />
    <glyph glyph-name="dotaccent" unicode="&#x2d9;" 
d="M128 528q-10 10 -17 17.5t-13 15t-12 16t-15 21.5q13 11 21.5 17.5t15 12.5t14 13t19.5 18q9 -12 15.5 -20t13 -15.5t13.5 -15t17 -18.5q-12 -11 -19.5 -18.5t-15 -14t-16 -13t-21.5 -16.5z" />
    <glyph glyph-name="ring" unicode="&#x2da;" 
d="M136 654q18 0 32 -7t23.5 -18t14 -24.5t4.5 -25.5q0 -29 -21 -51.5t-55 -22.5q-32 0 -53 22.5t-21 50.5q0 29 20.5 52.5t55.5 23.5zM186 580q0 19 -13.5 35t-36.5 16t-37.5 -16t-14.5 -35q0 -20 14.5 -36t36.5 -16t36.5 15.5t14.5 36.5z" />
    <glyph glyph-name="ogonek" unicode="&#x2db;" 
d="M199 -7q-30 -17 -53 -35t-23 -45q0 -17 11 -23.5t24 -6.5q11 0 27 3.5t30 6.5l-24 -34q-11 -3 -22.5 -5.5t-29.5 -2.5q-25 0 -43 7q-20 8 -30 23t-10 32q0 29 22.5 46.5t51.5 26.5q1 1 8 3t14.5 4t14 3.5t7.5 1.5z" />
    <glyph glyph-name="tilde" unicode="&#x2dc;" 
d="M225 554q-2 -1 -8 -2t-13.5 -1.5t-14.5 -1t-10 -0.5q-12 0 -21.5 1.5t-20.5 3.5q-28 6 -44 7.5t-27 1.5q-31 0 -49 -7.5t-40 -20.5l83 60q15 3 29 3q10 0 24 -2t26 -4q40 -6 66 -6q28 0 47.5 5.5t41.5 13.5z" />
    <glyph glyph-name="hungarumlaut" unicode="&#x2dd;" 
d="M117 573l-178 -48l63 50l179 49zM268 573l-178 -48l62 50l180 49z" />
    <glyph glyph-name="endash" unicode="&#x2013;" horiz-adv-x="479" 
d="M437 240h-425l76 42h421z" />
    <glyph glyph-name="emdash" unicode="&#x2014;" horiz-adv-x="646" 
d="M562 240h-550l76 42h546z" />
    <glyph glyph-name="quoteleft" unicode="&#x2018;" 
d="M215 688q-11 -17 -22.5 -35t-21.5 -36q-11 -20 -13.5 -30.5t-2.5 -15.5q0 -10 4.5 -16.5t8.5 -10.5q1 -2 5.5 -7t9.5 -10.5t9.5 -10.5t6.5 -7q-12 -10 -20 -17.5t-15.5 -14t-15.5 -14t-20 -18.5q-29 30 -39 42.5t-10 26.5q0 12 5 25.5t12.5 27t15.5 26t15 22.5q3 3 12 16
t19 27t18.5 25.5t10.5 12.5l48 22z" />
    <glyph glyph-name="quoteright" unicode="&#x2019;" 
d="M55 474q11 18 22.5 35.5t21.5 36.5q11 20 13.5 30.5t2.5 15.5q0 10 -4.5 16.5t-7.5 10.5q-2 2 -6.5 7t-9.5 10.5t-9.5 10.5t-6.5 7q12 10 20 17t15.5 14t15.5 14.5t20 18.5q15 -15 24.5 -25.5t15 -18t7.5 -13t2 -12.5q0 -12 -5 -25.5t-12.5 -27t-15.5 -26t-15 -22.5
q-3 -3 -12 -16t-19 -27.5t-18.5 -26t-9.5 -11.5l-48 -22z" />
    <glyph glyph-name="quotesinglbase" unicode="&#x201a;" horiz-adv-x="250" 
d="M18 -148q30 41 55.5 79.5t25.5 64.5q0 6 -1 10.5t-5.5 11t-13 16.5t-22.5 26q24 22 40 36t31 28q16 -18 25.5 -29t14 -18t5.5 -12.5t1 -14.5q0 -19 -16.5 -48.5t-36 -58t-36.5 -49.5l-17 -21z" />
    <glyph glyph-name="quotedblleft" unicode="&#x201c;" horiz-adv-x="396" 
d="M207 718q-15 -20 -29.5 -40.5t-26 -39t-18.5 -35.5t-7 -30q0 -6 1 -10.5t5.5 -11t13 -16.5t22.5 -26q-25 -22 -39.5 -35.5t-31.5 -28.5q-16 18 -25.5 28.5t-14 18t-5.5 13.5t-1 14q0 18 14.5 45t33 54t35.5 49t23 29zM361 690q-8 -11 -19 -26t-21 -31.5t-17 -33t-7 -28.5
q0 -10 3.5 -16t7.5 -11q6 -8 14.5 -18t14.5 -18q-17 -14 -31.5 -27t-39.5 -36q-15 18 -24.5 29t-14 18.5t-6 13t-1.5 13.5q0 14 10 33q9 19 25.5 43t32.5 45.5t28 36.5l12 15l51 24z" />
    <glyph glyph-name="quotedblright" unicode="&#x201d;" horiz-adv-x="396" 
d="M188 446q30 41 55.5 79.5t25.5 64.5q0 6 -1 10.5t-5.5 11t-13 16.5t-22.5 26q24 22 40 36t31 28q16 -18 25.5 -29t14 -18t5.5 -12.5t1 -14.5q0 -19 -16.5 -48.5t-36.5 -58t-36.5 -49.5l-16.5 -21zM34 472q8 10 19 25.5t21 32t17 33t7 29.5q0 10 -3.5 16t-7.5 11
q-6 8 -14.5 17.5t-14.5 17.5q12 10 19.5 17t14.5 13.5t15.5 14t21.5 19.5q16 -18 25 -29.5t13.5 -19t6 -13t1.5 -13.5q0 -14 -10 -33q-9 -18 -25.5 -42.5t-32.5 -46t-28 -36.5l-12 -15l-51 -23z" />
    <glyph glyph-name="quotedblbase" unicode="&#x201e;" horiz-adv-x="396" 
d="M188 -148q30 41 55.5 79.5t25.5 64.5q0 6 -1 10.5t-5.5 11t-13 16.5t-22.5 26q24 22 40 36t31 28q16 -18 25.5 -29t14 -18t5.5 -12.5t1 -14.5q0 -19 -16.5 -48.5t-36.5 -58t-36.5 -49.5l-16.5 -21zM34 -121q8 10 19 25.5t21 32t17 33t7 29.5q0 10 -3.5 16t-7.5 11
q-6 8 -14.5 17.5t-14.5 17.5q12 10 19.5 17t14.5 13.5t15.5 14t21.5 19.5q16 -18 25 -29.5t13.5 -19t6 -13t1.5 -13.5q0 -14 -10 -33q-9 -18 -25.5 -42t-32.5 -46t-28 -37l-12 -15l-51 -23z" />
    <glyph glyph-name="dagger" unicode="&#x2020;" horiz-adv-x="479" 
d="M265 35l-44 -72q-1 21 -2 43t-2 47.5t-1.5 56.5t-0.5 70q0 15 0.5 53t0.5 81t0.5 82t0.5 55l-213 1l50 36h163q0 9 0.5 31.5t1 48t1.5 48.5t1 32l53 85q-7 -123 -9 -245h210l-54 -36l-156 -1v-416z" />
    <glyph glyph-name="daggerdbl" unicode="&#x2021;" horiz-adv-x="479" 
d="M260 29l-40 -70q-2 36 -2.5 60t-1 48.5t-0.5 56v82.5h-209l45 34h164v225h-209l50 35h159q0 7 0.5 27t1.5 42.5t1.5 43t0.5 29.5l47 82q0 -23 -0.5 -47t-1.5 -47q-1 -30 -1.5 -48t-1 -31t0 -24t0.5 -27h210l-51 -35h-162v-225h208l-50 -34h-158v-177z" />
    <glyph glyph-name="bullet" unicode="&#x2022;" horiz-adv-x="333" 
d="M286 354q0 -24 -8.5 -46t-23.5 -38.5t-36.5 -26t-47.5 -9.5q-28 0 -50.5 9.5t-38.5 26t-25 38t-9 45.5q0 21 8 42.5t24 38.5t38 27.5t51 10.5q26 0 48 -9.5t37.5 -26t24 -37.5t8.5 -45z" />
    <glyph glyph-name="ellipsis" unicode="&#x2026;" horiz-adv-x="1000" 
d="M235 57q-10 -11 -17.5 -19t-15.5 -15.5t-18 -15.5t-23 -19q-10 9 -16 15.5t-12 13.5t-14 16t-20 24l44 39l30 30l22 -28zM568 57q-10 -11 -17.5 -19t-15.5 -15.5t-18 -15.5t-23 -19q-10 9 -16 15.5t-12 13.5t-14 16t-20 24l44 39l30 30l22 -28zM901 57q-10 -11 -17.5 -19
t-15.5 -15.5t-18 -15.5t-23 -19q-10 9 -16 15.5t-12 13.5t-14 16t-20 24l44 39l30 30l22 -28z" />
    <glyph glyph-name="perthousand" unicode="&#x2030;" horiz-adv-x="1125" 
d="M311 515q0 -84 -23 -142q-9 -23 -21.5 -43.5t-29 -36.5t-36.5 -25.5t-44 -9.5q-35 0 -60 17t-42 45.5t-25 66t-8 78.5q0 54 12.5 100t34 79t51 51.5t64.5 18.5q55 0 91 -48.5t36 -150.5zM256 442q0 15 -1.5 33t-3.5 36.5t-5 35.5t-7 30q-4 17 -11 34.5t-17.5 32t-24 23.5
t-29.5 9q-25 0 -41.5 -15.5t-24.5 -38.5q-7 -20 -10 -44.5t-3 -47.5q0 -41 6.5 -82.5t19 -75t31.5 -54.5t45 -21q10 0 23 5.5t25 21t20 44t8 74.5zM769 250q0 -84 -23 -142q-9 -23 -21.5 -43.5t-29 -36.5t-36.5 -25.5t-44 -9.5q-35 0 -60 17t-41.5 45.5t-24.5 66t-8 78.5
q0 54 12.5 100t34 79t51 51.5t64.5 18.5q54 0 90 -48.5t36 -150.5zM714 177q0 15 -1 33t-3.5 36.5t-5.5 35.5t-6 30q-5 17 -12 34.5t-17 32t-23.5 23.5t-29.5 9q-25 0 -41.5 -15.5t-24.5 -38.5q-7 -20 -10 -44.5t-3 -47.5q0 -41 6.5 -82.5t19 -75t31.5 -54.5t44 -21
q10 0 23 5.5t25 21t20 44t8 74.5zM1102 250q0 -84 -23 -142q-9 -23 -21.5 -43.5t-29 -36.5t-36.5 -25.5t-44 -9.5q-35 0 -60 17t-41.5 45.5t-24.5 66t-8 78.5q0 54 12.5 100t34 79t51 51.5t64.5 18.5q54 0 90 -48.5t36 -150.5zM1047 177q0 15 -1 33t-3.5 36.5t-5.5 35.5
t-6 30q-5 17 -12 34.5t-17 32t-23.5 23.5t-29.5 9q-25 0 -41.5 -15.5t-24.5 -38.5q-7 -20 -10 -44.5t-3 -47.5q0 -41 6.5 -82.5t19 -75t31.5 -54.5t44 -21q10 0 23 5.5t25 21t20 44t8 74.5zM668 719q-15 -19 -29 -38t-29 -40t-31.5 -45t-36.5 -54q-28 -41 -55.5 -82
t-54.5 -83q-30 -47 -59.5 -93t-59.5 -93q-29 -45 -47 -72.5t-30 -47t-21.5 -35t-22.5 -36.5l-49 -11q4 6 7.5 12t7.5 13q29 45 56.5 90t55.5 90q34 55 78 123t90.5 137.5t91.5 136t82 118.5z" />
    <glyph glyph-name="guilsinglleft" unicode="&#x2039;" 
d="M250 90l-30 -26l-200 196l204 193l27 -27l-175 -166z" />
    <glyph glyph-name="guilsinglright" unicode="&#x203a;" 
d="M21 427l27 26l204 -197l-203 -191l-29 26l175 165z" />
    <glyph glyph-name="fraction" unicode="&#x2044;" horiz-adv-x="125" 
d="M334 718q-15 -19 -28.5 -37.5t-28.5 -39.5t-32 -45t-37 -54q-28 -42 -55 -83t-54 -83l-60 -92t-59 -93q-29 -45 -47 -73t-30 -47t-21.5 -34.5t-22.5 -36.5l-50 -12q5 7 8.5 13t7.5 12q29 45 56.5 90.5t55.5 90.5q36 58 80.5 127t90.5 138t90.5 134t80.5 115z" />
    <glyph glyph-name="trademark" unicode="&#x2122;" horiz-adv-x="771" 
d="M418 612v-157q0 -16 1 -25.5t5 -14.5t12 -7t22 -3v-31q-19 0 -32 0.5t-25 0.5t-26 -0.5t-35 -0.5v31q12 2 19.5 4t11 6.5t5 13.5t1.5 26v209q-7 8 -15.5 9.5t-16.5 2.5v31q12 -1 24 -1h24h22.5t22.5 1l101 -248l104 247h23.5h20.5t21.5 0.5t28.5 0.5v-31q-15 -1 -22.5 -3
t-11.5 -8t-4.5 -16.5t-0.5 -27.5v-166q0 -25 0.5 -31t3.5 -10q3 -5 9 -6t20 -3v-31q-15 1 -31 1.5t-33 0.5q-15 0 -30.5 -0.5t-31.5 -1.5v31q17 2 24.5 5t8.5 17v182l-99 -234h-22zM22 621q1 12 1.5 21.5t1 18.5t1 19.5t0.5 25.5h281q0 -15 0.5 -25.5t1 -19.5t1 -18.5
t1.5 -21.5h-30q-7 20 -12 30.5t-13 15.5t-21 6t-37 1v-222q0 -21 1 -27.5t5 -10.5q5 -5 13.5 -6l25.5 -3v-31q-24 1 -37 1.5t-20.5 0.5h-11h-8.5h-8.5h-11t-20.5 -0.5t-37 -1.5v31q16 1 25.5 2.5t14 6t5.5 13.5t1 25v222q-24 0 -37 -1t-21 -6t-13 -15.5t-12 -30.5h-30z" />
    <glyph glyph-name="minus" unicode="&#x2212;" horiz-adv-x="500" 
d="M500 262h-500v59h500v-59z" />
    <glyph glyph-name="fi" unicode="&#xfb01;" horiz-adv-x="542" 
d="M484 453q-6 -8 -9 -13.5t-4.5 -10.5t-2.5 -11t-1 -16l-4 -290v-10t-0.5 -15.5t-0.5 -15.5v-10q0 -21 8 -26.5t32 -7.5l51 -5l-39 -22h-169q9 10 14.5 16.5t8 12.5t3.5 14t1 20v356h-191l-3 -174v-184q0 -16 3 -21.5t13 -7.5q4 -1 15 -2.5t23 -3t23.5 -2.5t17.5 -1
l-41 -23h-175q4 5 9.5 12t9.5 12q6 8 7 16.5t2 28.5v350h-56l56 34q1 17 4 45.5t17 63.5q25 59 68 92t87 44q12 3 21.5 4.5t23 2.5t33.5 1h51l-78 -43q-18 3 -35 3q-25 0 -40.5 -8.5t-25 -20.5t-14 -25t-6.5 -23q-2 -11 -3.5 -19.5t-2.5 -22.5t-2 -36t-2 -58h303zM486 592
q-8 -9 -14.5 -15.5t-14 -13.5t-17.5 -16t-25 -21q-12 11 -19.5 19t-14 15.5t-12 14.5t-12.5 17q11 10 22.5 20t23.5 21l25 24l22 -26q2 -2 4 -4.5t4 -4.5z" />
    <glyph glyph-name="fl" unicode="&#xfb02;" horiz-adv-x="542" 
d="M85 453q0 12 2 33t9 47t21.5 53.5t40.5 53.5q25 24 50.5 37.5t52.5 20t55.5 7.5t59.5 1h143q-15 -9 -24 -15.5t-14 -16.5t-7 -26.5t-2 -45.5q-1 -18 -1 -36t-1 -36l-3 -225q-2 -60 -2 -118.5v-117.5q0 -27 10 -34t31 -9q13 -1 25.5 -2t25.5 -3l-38 -21h-177
q14 19 20.5 28.5t6.5 23.5l1 164q1 69 1.5 141.5t2.5 150.5q0 9 1 31.5t2 48.5t2 49t1 33h-56q-37 0 -63 -5t-42.5 -20t-24.5 -44.5t-11 -79.5v-13.5t-0.5 -20t-1 -20.5t-0.5 -14h146l-56 -34h-90l-3 -174v-184q0 -19 5 -24.5t33 -8.5q14 -2 28 -2.5t29 -2.5l-41 -23h-175
q4 5 9.5 12t9.5 12q6 8 7 16.5t2 28.5v350h-56z" />
    </font>
</defs>
</svg>
